FoulisGreek.ufo
<glyph name="question" format="1">
  <advance width="752"/>
  <unicode hex="003F"/>
  <outline>
    <contour>
      <point x="279" y="1194" type="qcurve"/>
      <point x="211" y="1194"/>
      <point x="211" y="1278" type="qcurve"/>
      <point x="211" y="1362"/>
      <point x="295" y="1362" type="qcurve"/>
      <point x="425" y="1362"/>
      <point x="541" y="1226" type="qcurve"/>
      <point x="657" y="1090"/>
      <point x="657" y="937" type="qcurve"/>
      <point x="657" y="784"/>
      <point x="575" y="741" type="qcurve"/>
      <point x="410" y="653" type="line"/>
      <point x="336" y="612"/>
      <point x="336" y="559.5" type="qcurve"/>
      <point x="336" y="507"/>
      <point x="356" y="438" type="qcurve"/>
      <point x="356" y="419"/>
      <point x="334" y="419" type="qcurve"/>
      <point x="319" y="419"/>
      <point x="311" y="426" type="qcurve"/>
      <point x="236" y="562"/>
      <point x="236" y="644" type="qcurve"/>
      <point x="236" y="726"/>
      <point x="350" y="788" type="qcurve"/>
      <point x="455" y="844" type="line"/>
      <point x="571" y="906"/>
      <point x="571" y="995" type="qcurve"/>
      <point x="571" y="1194"/>
    </contour>
    <contour>
      <point x="221" y="90" type="qcurve"/>
      <point x="221" y="140"/>
      <point x="256" y="176.5" type="qcurve"/>
      <point x="291" y="213"/>
      <point x="342" y="213" type="qcurve"/>
      <point x="393" y="213"/>
      <point x="426" y="175" type="qcurve"/>
      <point x="459" y="137"/>
      <point x="459" y="84" type="qcurve"/>
      <point x="459" y="31"/>
      <point x="424" y="0" type="qcurve"/>
      <point x="389" y="-31"/>
      <point x="337.5" y="-31" type="qcurve"/>
      <point x="286" y="-31"/>
      <point x="253.5" y="4.5" type="qcurve"/>
      <point x="221" y="40"/>
    </contour>
  </outline>
</glyph>
<glyph name="D" format="1">
  <advance width="1525"/>
  <unicode hex="0044"/>
  <outline>
    <contour>
      <point x="271" y="186" type="qcurve"/>
      <point x="271" y="1089" type="line"/>
      <point x="271" y="1199"/>
      <point x="82" y="1199" type="qcurve"/>
      <point x="68" y="1199"/>
      <point x="68" y="1237" type="qcurve"/>
      <point x="68" y="1275"/>
      <point x="82" y="1275" type="qcurve"/>
      <point x="703" y="1275" type="line"/>
      <point x="1014" y="1275"/>
      <point x="1223" y="1108" type="qcurve"/>
      <point x="1432" y="941"/>
      <point x="1432" y="688" type="qcurve"/>
      <point x="1432" y="366"/>
      <point x="1248.5" y="183" type="qcurve"/>
      <point x="1065" y="0"/>
      <point x="751" y="0" type="qcurve"/>
      <point x="91" y="0" type="line"/>
      <point x="78" y="0"/>
      <point x="78" y="34" type="qcurve"/>
      <point x="78" y="68"/>
      <point x="91" y="69" type="qcurve"/>
      <point x="271" y="69"/>
    </contour>
    <contour>
      <point x="431" y="298" type="line"/>
      <point x="431" y="149"/>
      <point x="491" y="101" type="qcurve"/>
      <point x="551" y="53"/>
      <point x="682" y="53" type="qcurve"/>
      <point x="938" y="53"/>
      <point x="1089.5" y="214" type="qcurve"/>
      <point x="1241" y="375"/>
      <point x="1241" y="676" type="qcurve"/>
      <point x="1241" y="885"/>
      <point x="1064" y="1049.5" type="qcurve"/>
      <point x="887" y="1214"/>
      <point x="621" y="1214" type="qcurve"/>
      <point x="526" y="1214"/>
      <point x="495.5" y="1205.5" type="qcurve"/>
      <point x="465" y="1197"/>
      <point x="448" y="1169.5" type="qcurve"/>
      <point x="431" y="1142"/>
      <point x="431" y="1098" type="qcurve"/>
    </contour>
  </outline>
</glyph>
<glyph name="E" format="1">
  <advance width="1290"/>
  <unicode hex="0045"/>
  <outline>
    <contour>
      <point x="271" y="177" type="qcurve"/>
      <point x="271" y="1095" type="line"/>
      <point x="271" y="1205"/>
      <point x="84" y="1205" type="qcurve"/>
      <point x="70" y="1205"/>
      <point x="70" y="1240" type="qcurve"/>
      <point x="70" y="1275"/>
      <point x="84" y="1275" type="qcurve"/>
      <point x="985" y="1275" type="line"/>
      <point x="1008" y="1275"/>
      <point x="1016" y="1257" type="qcurve"/>
      <point x="1117" y="965" type="line"/>
      <point x="1117" y="948"/>
      <point x="1100.5" y="930.5" type="qcurve"/>
      <point x="1084" y="913"/>
      <point x="1069" y="913" type="qcurve"/>
      <point x="1054" y="913"/>
      <point x="979.5" y="1062.5" type="qcurve"/>
      <point x="905" y="1212"/>
      <point x="696" y="1212" type="qcurve"/>
      <point x="472" y="1212" type="line"/>
      <point x="431" y="1212"/>
      <point x="431" y="1164" type="qcurve"/>
      <point x="431" y="726" type="line"/>
      <point x="431" y="693"/>
      <point x="459" y="693" type="qcurve"/>
      <point x="640" y="693" type="line"/>
      <point x="718" y="693"/>
      <point x="737.5" y="722" type="qcurve"/>
      <point x="757" y="751"/>
      <point x="757" y="810" type="qcurve"/>
      <point x="757" y="884" type="line"/>
      <point x="757" y="897"/>
      <point x="792" y="897" type="qcurve"/>
      <point x="827" y="897"/>
      <point x="827" y="884" type="qcurve"/>
      <point x="827" y="387" type="line"/>
      <point x="827" y="374"/>
      <point x="792" y="374" type="qcurve"/>
      <point x="757" y="374"/>
      <point x="757" y="387" type="qcurve"/>
      <point x="757" y="529" type="line"/>
      <point x="757" y="572"/>
      <point x="737.5" y="598" type="qcurve"/>
      <point x="718" y="624"/>
      <point x="640" y="624" type="qcurve"/>
      <point x="456" y="624" type="line"/>
      <point x="431" y="624"/>
      <point x="431" y="593" type="qcurve"/>
      <point x="431" y="262" type="line"/>
      <point x="431" y="149"/>
      <point x="496" y="94" type="qcurve"/>
      <point x="534" y="62"/>
      <point x="587" y="62" type="qcurve"/>
      <point x="874" y="62" type="line"/>
      <point x="1032" y="62"/>
      <point x="1141" y="340" type="qcurve"/>
      <point x="1146" y="354"/>
      <point x="1179" y="354" type="qcurve"/>
      <point x="1212" y="354"/>
      <point x="1212" y="335" type="qcurve"/>
      <point x="1127" y="20" type="line"/>
      <point x="1122" y="0"/>
      <point x="1093" y="0" type="qcurve"/>
      <point x="84" y="0" type="line"/>
      <point x="70" y="0"/>
      <point x="70" y="34" type="qcurve"/>
      <point x="70" y="68"/>
      <point x="84" y="69" type="qcurve"/>
      <point x="271" y="69"/>
    </contour>
  </outline>
</glyph>
<glyph name="F" format="1">
  <advance width="1170"/>
  <unicode hex="0046"/>
  <outline>
    <contour>
      <point x="271" y="1092" type="line"/>
      <point x="271" y="1205"/>
      <point x="84" y="1205" type="qcurve"/>
      <point x="70" y="1205"/>
      <point x="70" y="1240" type="qcurve"/>
      <point x="70" y="1275"/>
      <point x="84" y="1275" type="qcurve"/>
      <point x="985" y="1275" type="line"/>
      <point x="1008" y="1275"/>
      <point x="1016" y="1257" type="qcurve"/>
      <point x="1117" y="965" type="line"/>
      <point x="1117" y="948"/>
      <point x="1100.5" y="930.5" type="qcurve"/>
      <point x="1084" y="913"/>
      <point x="1069" y="913" type="qcurve"/>
      <point x="1054" y="913"/>
      <point x="979.5" y="1062.5" type="qcurve"/>
      <point x="905" y="1212"/>
      <point x="696" y="1212" type="qcurve"/>
      <point x="472" y="1212" type="line"/>
      <point x="431" y="1212"/>
      <point x="431" y="1161" type="qcurve"/>
      <point x="431" y="707" type="line"/>
      <point x="431" y="676"/>
      <point x="459" y="676" type="qcurve"/>
      <point x="623" y="676" type="line"/>
      <point x="698" y="676"/>
      <point x="719" y="706" type="qcurve"/>
      <point x="740" y="736"/>
      <point x="740" y="806" type="qcurve"/>
      <point x="740" y="923" type="line"/>
      <point x="740" y="936"/>
      <point x="775" y="936" type="qcurve"/>
      <point x="810" y="936"/>
      <point x="810" y="923" type="qcurve"/>
      <point x="810" y="355" type="line"/>
      <point x="810" y="342"/>
      <point x="775" y="342" type="qcurve"/>
      <point x="740" y="342"/>
      <point x="740" y="355" type="qcurve"/>
      <point x="740" y="472" type="line"/>
      <point x="740" y="542"/>
      <point x="715" y="571" type="qcurve"/>
      <point x="690" y="600"/>
      <point x="623" y="600" type="qcurve"/>
      <point x="456" y="600" type="line"/>
      <point x="431" y="600"/>
      <point x="431" y="575" type="qcurve"/>
      <point x="431" y="186" type="line"/>
      <point x="431" y="69"/>
      <point x="619" y="69" type="qcurve"/>
      <point x="632" y="69"/>
      <point x="632" y="34.5" type="qcurve"/>
      <point x="632" y="0"/>
      <point x="619" y="0" type="qcurve"/>
      <point x="91" y="0" type="line"/>
      <point x="78" y="0"/>
      <point x="78" y="34.5" type="qcurve"/>
      <point x="78" y="69"/>
      <point x="91" y="69" type="qcurve"/>
      <point x="271" y="69"/>
      <point x="271" y="186" type="qcurve"/>
    </contour>
  </outline>
</glyph>
<glyph name="G" format="1">
  <advance width="1409"/>
  <unicode hex="0047"/>
  <outline>
    <contour>
      <point x="1230" y="144" type="line"/>
      <point x="1230" y="77"/>
      <point x="1267" y="77" type="qcurve"/>
      <point x="1281" y="77"/>
      <point x="1281" y="54" type="qcurve"/>
      <point x="1281" y="31"/>
      <point x="1268" y="31" type="qcurve"/>
      <point x="1255" y="31"/>
      <point x="1205.5" y="25.5" type="qcurve"/>
      <point x="1156" y="20"/>
      <point x="1049.5" y="1.5" type="qcurve"/>
      <point x="943" y="-17"/>
      <point x="894" y="-22" type="qcurve"/>
      <point x="845" y="-27"/>
      <point x="768" y="-27" type="qcurve"/>
      <point x="622" y="-27"/>
      <point x="440" y="59" type="qcurve"/>
      <point x="258" y="145"/>
      <point x="174.5" y="297" type="qcurve"/>
      <point x="91" y="449"/>
      <point x="91" y="618" type="qcurve"/>
      <point x="91" y="819"/>
      <point x="271.5" y="1057" type="qcurve"/>
      <point x="452" y="1295"/>
      <point x="771" y="1295" type="qcurve"/>
      <point x="935" y="1295"/>
      <point x="1076.5" y="1266" type="qcurve"/>
      <point x="1218" y="1237"/>
      <point x="1232" y="1237" type="qcurve"/>
      <point x="1251" y="1188"/>
      <point x="1261" y="929" type="qcurve"/>
      <point x="1261" y="911"/>
      <point x="1227" y="911" type="qcurve"/>
      <point x="1193" y="911"/>
      <point x="1192" y="924" type="qcurve"/>
      <point x="1192" y="1035"/>
      <point x="1088.5" y="1129.5" type="qcurve"/>
      <point x="985" y="1224"/>
      <point x="776" y="1224" type="qcurve"/>
      <point x="547" y="1224"/>
      <point x="414.5" y="1042.5" type="qcurve"/>
      <point x="282" y="861"/>
      <point x="282" y="677" type="qcurve"/>
      <point x="282" y="371"/>
      <point x="431" y="209.5" type="qcurve"/>
      <point x="580" y="48"/>
      <point x="775" y="48" type="qcurve"/>
      <point x="970" y="48"/>
      <point x="1048" y="95" type="qcurve"/>
      <point x="1070" y="111"/>
      <point x="1070" y="173" type="qcurve"/>
      <point x="1070" y="333" type="line"/>
      <point x="1070" y="448"/>
      <point x="842" y="448" type="qcurve"/>
      <point x="828" y="448"/>
      <point x="828" y="486" type="qcurve"/>
      <point x="828" y="524"/>
      <point x="842" y="524" type="qcurve"/>
      <point x="1371" y="524" type="line"/>
      <point x="1386" y="524"/>
      <point x="1386" y="486" type="qcurve"/>
      <point x="1386" y="448"/>
      <point x="1371" y="448" type="qcurve"/>
      <point x="1230" y="448"/>
      <point x="1230" y="333" type="qcurve"/>
    </contour>
  </outline>
</glyph>
<glyph name="J" format="1">
  <advance width="716"/>
  <unicode hex="004A"/>
  <outline>
    <contour>
      <point x="292" y="260" type="qcurve"/>
      <point x="292" y="1084" type="line"/>
      <point x="292" y="1199"/>
      <point x="102" y="1199" type="qcurve"/>
      <point x="88" y="1199"/>
      <point x="88" y="1237" type="qcurve"/>
      <point x="88" y="1275"/>
      <point x="102" y="1275" type="qcurve"/>
      <point x="644" y="1275" type="line"/>
      <point x="658" y="1275"/>
      <point x="658" y="1237" type="qcurve"/>
      <point x="658" y="1199"/>
      <point x="644" y="1199" type="qcurve"/>
      <point x="452" y="1199"/>
      <point x="452" y="1084" type="qcurve"/>
      <point x="452" y="634" type="line"/>
      <point x="452" y="-82"/>
      <point x="381" y="-183.5" type="qcurve"/>
      <point x="310" y="-285"/>
      <point x="226" y="-352" type="qcurve"/>
      <point x="142" y="-419"/>
      <point x="33" y="-419" type="qcurve"/>
      <point x="-21" y="-419"/>
      <point x="-59" y="-388.5" type="qcurve"/>
      <point x="-97" y="-358"/>
      <point x="-97" y="-298" type="qcurve"/>
      <point x="-97" y="-267"/>
      <point x="-67.5" y="-241.5" type="qcurve"/>
      <point x="-38" y="-216"/>
      <point x="9" y="-216" type="qcurve"/>
      <point x="69" y="-216"/>
      <point x="110" y="-250" type="qcurve"/>
      <point x="151" y="-284"/>
      <point x="160" y="-317" type="qcurve"/>
      <point x="230" y="-293"/>
      <point x="261" y="-203" type="qcurve"/>
      <point x="292" y="-113"/>
    </contour>
  </outline>
</glyph>
<glyph name="L" format="1">
  <advance width="1344"/>
  <unicode hex="004C"/>
  <outline>
    <contour>
      <point x="271" y="177" type="qcurve"/>
      <point x="271" y="1084" type="line"/>
      <point x="271" y="1199"/>
      <point x="82" y="1199" type="qcurve"/>
      <point x="68" y="1199"/>
      <point x="68" y="1237" type="qcurve"/>
      <point x="68" y="1275"/>
      <point x="82" y="1275" type="qcurve"/>
      <point x="605" y="1275" type="line"/>
      <point x="618" y="1275"/>
      <point x="618" y="1237" type="qcurve"/>
      <point x="618" y="1199"/>
      <point x="605" y="1199" type="qcurve"/>
      <point x="431" y="1199"/>
      <point x="431" y="1084" type="qcurve"/>
      <point x="431" y="277" type="line"/>
      <point x="431" y="226"/>
      <point x="445.5" y="178.5" type="qcurve"/>
      <point x="460" y="131"/>
      <point x="500.5" y="96.5" type="qcurve"/>
      <point x="541" y="62"/>
      <point x="609" y="62" type="qcurve"/>
      <point x="892" y="75" type="line"/>
      <point x="1017" y="80"/>
      <point x="1086.5" y="166" type="qcurve"/>
      <point x="1156" y="252"/>
      <point x="1156" y="379" type="qcurve"/>
      <point x="1156" y="392"/>
      <point x="1195" y="392" type="qcurve"/>
      <point x="1234" y="392"/>
      <point x="1234" y="379" type="qcurve"/>
      <point x="1234" y="27" type="line"/>
      <point x="1234" y="1"/>
      <point x="1209" y="0.5" type="qcurve"/>
      <point x="1184" y="0"/>
      <point x="1153" y="0" type="qcurve"/>
      <point x="95" y="0" type="line"/>
      <point x="82" y="0"/>
      <point x="82" y="34.5" type="qcurve"/>
      <point x="82" y="69"/>
      <point x="95" y="69" type="qcurve"/>
      <point x="271" y="69"/>
    </contour>
  </outline>
</glyph>
<glyph name="M" format="1">
  <advance width="1848"/>
  <unicode hex="004D"/>
  <outline>
    <contour>
      <point x="229" y="186" type="qcurve"/>
      <point x="268" y="1047" type="line"/>
      <point x="269" y="1058"/>
      <point x="269" y="1073" type="qcurve"/>
      <point x="269" y="1088"/>
      <point x="259.5" y="1120" type="qcurve"/>
      <point x="250" y="1152"/>
      <point x="207.5" y="1178" type="qcurve"/>
      <point x="165" y="1204"/>
      <point x="78" y="1204" type="qcurve"/>
      <point x="65" y="1204"/>
      <point x="65" y="1239.5" type="qcurve"/>
      <point x="65" y="1275"/>
      <point x="78" y="1275" type="qcurve"/>
      <point x="242" y="1275" type="line"/>
      <point x="362" y="1275"/>
      <point x="388" y="1259.5" type="qcurve"/>
      <point x="414" y="1244"/>
      <point x="434" y="1202" type="qcurve"/>
      <point x="896" y="277" type="line"/>
      <point x="909" y="250"/>
      <point x="918" y="250" type="qcurve"/>
      <point x="927" y="250"/>
      <point x="941" y="279" type="qcurve"/>
      <point x="1366" y="1208" type="line"/>
      <point x="1388" y="1254"/>
      <point x="1422" y="1264.5" type="qcurve"/>
      <point x="1456" y="1275"/>
      <point x="1554" y="1275" type="qcurve"/>
      <point x="1700" y="1275" type="line"/>
      <point x="1714" y="1275"/>
      <point x="1714" y="1239.5" type="qcurve"/>
      <point x="1714" y="1204"/>
      <point x="1700" y="1204" type="qcurve"/>
      <point x="1615" y="1204"/>
      <point x="1575.5" y="1177" type="qcurve"/>
      <point x="1536" y="1150"/>
      <point x="1524" y="1113.5" type="qcurve"/>
      <point x="1512" y="1077"/>
      <point x="1512" y="1023" type="qcurve"/>
      <point x="1519" y="186" type="line"/>
      <point x="1520" y="69"/>
      <point x="1678" y="69" type="qcurve"/>
      <point x="1692" y="69"/>
      <point x="1692" y="34.5" type="qcurve"/>
      <point x="1692" y="0"/>
      <point x="1678" y="0" type="qcurve"/>
      <point x="1210" y="0" type="line"/>
      <point x="1196" y="0"/>
      <point x="1196" y="34.5" type="qcurve"/>
      <point x="1196" y="69"/>
      <point x="1210" y="69" type="qcurve"/>
      <point x="1359" y="69"/>
      <point x="1359" y="186" type="qcurve"/>
      <point x="1355" y="956" type="line"/>
      <point x="1355" y="969"/>
      <point x="1346" y="969" type="qcurve"/>
      <point x="1337" y="969"/>
      <point x="1332" y="957" type="qcurve"/>
      <point x="886" y="-6" type="line"/>
      <point x="878" y="-23"/>
      <point x="864" y="-23" type="qcurve"/>
      <point x="850" y="-23"/>
      <point x="842" y="-6" type="qcurve"/>
      <point x="381" y="973" type="line"/>
      <point x="371" y="995"/>
      <point x="357.5" y="995" type="qcurve"/>
      <point x="344" y="995"/>
      <point x="343" y="974" type="qcurve"/>
      <point x="311" y="186" type="line"/>
      <point x="311" y="181"/>
      <point x="311" y="168.5" type="qcurve"/>
      <point x="311" y="156"/>
      <point x="320.5" y="130" type="qcurve"/>
      <point x="330" y="104"/>
      <point x="369" y="86.5" type="qcurve"/>
      <point x="408" y="69"/>
      <point x="469" y="69" type="qcurve"/>
      <point x="483" y="69"/>
      <point x="483" y="34.5" type="qcurve"/>
      <point x="483" y="0"/>
      <point x="469" y="0" type="qcurve"/>
      <point x="72" y="0" type="line"/>
      <point x="59" y="0"/>
      <point x="59" y="34.5" type="qcurve"/>
      <point x="59" y="69"/>
      <point x="72" y="69" type="qcurve"/>
      <point x="222" y="69"/>
    </contour>
  </outline>
</glyph>
<glyph name="P" format="1">
  <advance width="1148"/>
  <unicode hex="0050"/>
  <outline>
    <contour>
      <point x="271" y="186" type="qcurve"/>
      <point x="271" y="1094" type="line"/>
      <point x="271" y="1209"/>
      <point x="82" y="1209" type="qcurve"/>
      <point x="69" y="1209"/>
      <point x="69" y="1242" type="qcurve"/>
      <point x="69" y="1275"/>
      <point x="82" y="1275" type="qcurve"/>
      <point x="644" y="1275" type="line"/>
      <point x="846" y="1275"/>
      <point x="973" y="1171" type="qcurve"/>
      <point x="1100" y="1067"/>
      <point x="1100" y="887" type="qcurve"/>
      <point x="1100" y="737"/>
      <point x="977" y="642.5" type="qcurve"/>
      <point x="854" y="548"/>
      <point x="638" y="548" type="qcurve"/>
      <point x="518" y="548"/>
      <point x="492.5" y="551" type="qcurve"/>
      <point x="467" y="554"/>
      <point x="460" y="554" type="qcurve"/>
      <point x="453" y="554"/>
      <point x="442" y="550" type="qcurve"/>
      <point x="431" y="546"/>
      <point x="431" y="521" type="qcurve"/>
      <point x="431" y="186" type="line"/>
      <point x="431" y="69"/>
      <point x="617" y="69" type="qcurve"/>
      <point x="630" y="69"/>
      <point x="630" y="34.5" type="qcurve"/>
      <point x="630" y="0"/>
      <point x="617" y="0" type="qcurve"/>
      <point x="93" y="0" type="line"/>
      <point x="80" y="0"/>
      <point x="80" y="34" type="qcurve"/>
      <point x="80" y="68"/>
      <point x="93" y="69" type="qcurve"/>
      <point x="271" y="69"/>
    </contour>
    <contour>
      <point x="431" y="659" type="line"/>
      <point x="431" y="625"/>
      <point x="474.5" y="617.5" type="qcurve"/>
      <point x="518" y="610"/>
      <point x="576" y="610" type="qcurve"/>
      <point x="928" y="610"/>
      <point x="928" y="891" type="qcurve"/>
      <point x="928" y="1020"/>
      <point x="833" y="1116.5" type="qcurve"/>
      <point x="738" y="1213"/>
      <point x="567" y="1213" type="qcurve"/>
      <point x="478" y="1213" type="line"/>
      <point x="431" y="1213"/>
      <point x="431" y="1182" type="qcurve"/>
    </contour>
  </outline>
</glyph>
<glyph name="R" format="1">
  <advance width="1405"/>
  <unicode hex="0052"/>
  <outline>
    <contour>
      <point x="271" y="186" type="qcurve"/>
      <point x="271" y="1172" type="line"/>
      <point x="271" y="1199"/>
      <point x="82" y="1199" type="qcurve"/>
      <point x="68" y="1199"/>
      <point x="68" y="1237" type="qcurve"/>
      <point x="68" y="1275"/>
      <point x="82" y="1275" type="qcurve"/>
      <point x="644" y="1275" type="line"/>
      <point x="874" y="1275"/>
      <point x="1005" y="1178.5" type="qcurve"/>
      <point x="1136" y="1082"/>
      <point x="1136" y="931" type="qcurve"/>
      <point x="1136" y="684"/>
      <point x="869" y="613" type="qcurve"/>
      <point x="856" y="609"/>
      <point x="856" y="590" type="qcurve"/>
      <point x="856" y="571"/>
      <point x="936.5" y="457" type="qcurve"/>
      <point x="1017" y="343"/>
      <point x="1168" y="179" type="qcurve"/>
      <point x="1319" y="15"/>
      <point x="1414" y="15" type="qcurve"/>
      <point x="1428" y="15"/>
      <point x="1428" y="-2.5" type="qcurve"/>
      <point x="1428" y="-20"/>
      <point x="1414" y="-21" type="qcurve"/>
      <point x="1372" y="-25"/>
      <point x="1347" y="-25" type="qcurve"/>
      <point x="1176" y="-25"/>
      <point x="1085" y="42.5" type="qcurve"/>
      <point x="994" y="110"/>
      <point x="919.5" y="203.5" type="qcurve"/>
      <point x="845" y="297"/>
      <point x="759" y="416" type="qcurve"/>
      <point x="673" y="535"/>
      <point x="645" y="554" type="qcurve"/>
      <point x="617" y="573"/>
      <point x="561.5" y="573" type="qcurve"/>
      <point x="506" y="573"/>
      <point x="484" y="575.5" type="qcurve"/>
      <point x="462" y="578"/>
      <point x="454" y="578" type="qcurve"/>
      <point x="446" y="578"/>
      <point x="438.5" y="573" type="qcurve"/>
      <point x="431" y="568"/>
      <point x="431" y="556" type="qcurve"/>
      <point x="431" y="186" type="line"/>
      <point x="431" y="69"/>
      <point x="625" y="69" type="qcurve"/>
      <point x="638" y="69"/>
      <point x="638" y="34.5" type="qcurve"/>
      <point x="638" y="0"/>
      <point x="625" y="0" type="qcurve"/>
      <point x="91" y="0" type="line"/>
      <point x="78" y="0"/>
      <point x="78" y="34" type="qcurve"/>
      <point x="78" y="68"/>
      <point x="91" y="69" type="qcurve"/>
      <point x="271" y="69"/>
    </contour>
    <contour>
      <point x="431" y="682" type="line"/>
      <point x="431" y="651"/>
      <point x="469" y="643" type="qcurve"/>
      <point x="507" y="635"/>
      <point x="576" y="635" type="qcurve"/>
      <point x="963" y="635"/>
      <point x="963" y="931" type="qcurve"/>
      <point x="963" y="1032"/>
      <point x="858" y="1122.5" type="qcurve"/>
      <point x="753" y="1213"/>
      <point x="567" y="1213" type="qcurve"/>
      <point x="478" y="1213" type="line"/>
      <point x="431" y="1213"/>
      <point x="431" y="1182" type="qcurve"/>
    </contour>
  </outline>
</glyph>
<glyph name="T" format="1">
  <advance width="1443"/>
  <unicode hex="0054"/>
  <outline>
    <contour>
      <point x="654" y="186" type="qcurve"/>
      <point x="654" y="1155" type="line"/>
      <point x="654" y="1201"/>
      <point x="606" y="1201" type="qcurve"/>
      <point x="354" y="1201" type="line"/>
      <point x="284" y="1201"/>
      <point x="216.616" y="1167.31"/>
      <point x="124" y="981" type="qcurve"/>
      <point x="118" y="967"/>
      <point x="74" y="967" type="qcurve"/>
      <point x="30" y="967"/>
      <point x="30" y="981" type="qcurve"/>
      <point x="57" y="1103"/>
      <point x="65.5167" y="1212.5" type="qcurve"/>
      <point x="74.0333" y="1322"/>
      <point x="115.517" y="1322" type="qcurve"/>
      <point x="157" y="1322"/>
      <point x="195.5" y="1302" type="qcurve"/>
      <point x="234" y="1282"/>
      <point x="288.5" y="1277" type="qcurve"/>
      <point x="343" y="1272"/>
      <point x="469" y="1272" type="qcurve"/>
      <point x="1117" y="1272" type="line"/>
      <point x="1218" y="1274"/>
      <point x="1262" y="1294.5" type="qcurve"/>
      <point x="1306" y="1315"/>
      <point x="1340" y="1315" type="qcurve"/>
      <point x="1374" y="1315"/>
      <point x="1382" y="1244" type="qcurve"/>
      <point x="1405" y="1005" type="line"/>
      <point x="1405" y="991"/>
      <point x="1360.5" y="991" type="qcurve"/>
      <point x="1316" y="991"/>
      <point x="1316" y="1005" type="qcurve"/>
      <point x="1302" y="1201"/>
      <point x="1057" y="1201" type="qcurve"/>
      <point x="865" y="1201" type="line"/>
      <point x="814" y="1201"/>
      <point x="814" y="1155" type="qcurve"/>
      <point x="814" y="186" type="line"/>
      <point x="814" y="69"/>
      <point x="983" y="69" type="qcurve"/>
      <point x="997" y="69"/>
      <point x="997" y="34.5" type="qcurve"/>
      <point x="997" y="0"/>
      <point x="983" y="0" type="qcurve"/>
      <point x="447" y="0" type="line"/>
      <point x="433" y="0"/>
      <point x="433" y="34.5" type="qcurve"/>
      <point x="433" y="69"/>
      <point x="447" y="69" type="qcurve"/>
      <point x="654" y="69"/>
    </contour>
  </outline>
</glyph>
<glyph name="U" format="1">
  <advance width="1497"/>
  <unicode hex="0055"/>
  <outline>
    <contour>
      <point x="256" y="539" type="qcurve"/>
      <point x="256" y="1084" type="line"/>
      <point x="256" y="1199"/>
      <point x="71" y="1199" type="qcurve"/>
      <point x="58" y="1199"/>
      <point x="58" y="1237" type="qcurve"/>
      <point x="58" y="1275"/>
      <point x="71" y="1275" type="qcurve"/>
      <point x="625" y="1275" type="line"/>
      <point x="638" y="1275"/>
      <point x="638" y="1237" type="qcurve"/>
      <point x="638" y="1199"/>
      <point x="625" y="1199" type="qcurve"/>
      <point x="419" y="1199"/>
      <point x="419" y="1084" type="qcurve"/>
      <point x="419" y="541" type="line"/>
      <point x="419" y="240"/>
      <point x="523.5" y="144" type="qcurve"/>
      <point x="628" y="48"/>
      <point x="783" y="48" type="qcurve"/>
      <point x="976" y="48"/>
      <point x="1077.5" y="148.5" type="qcurve"/>
      <point x="1179" y="249"/>
      <point x="1179" y="487" type="qcurve"/>
      <point x="1179" y="1084" type="line"/>
      <point x="1179" y="1199"/>
      <point x="991" y="1199" type="qcurve"/>
      <point x="978" y="1199"/>
      <point x="978" y="1237" type="qcurve"/>
      <point x="978" y="1275"/>
      <point x="991" y="1275" type="qcurve"/>
      <point x="1469" y="1275" type="line"/>
      <point x="1482" y="1275"/>
      <point x="1482" y="1237" type="qcurve"/>
      <point x="1482" y="1199"/>
      <point x="1469" y="1199" type="qcurve"/>
      <point x="1289" y="1199"/>
      <point x="1289" y="1084" type="qcurve"/>
      <point x="1289" y="729" type="line"/>
      <point x="1289" y="377"/>
      <point x="1236.5" y="253.5" type="qcurve"/>
      <point x="1184" y="130"/>
      <point x="1070.5" y="51.5" type="qcurve"/>
      <point x="957" y="-27"/>
      <point x="758" y="-27" type="qcurve"/>
      <point x="567" y="-27"/>
      <point x="457.5" y="35.5" type="qcurve"/>
      <point x="348" y="98"/>
      <point x="302" y="223.5" type="qcurve"/>
      <point x="256" y="349"/>
    </contour>
  </outline>
</glyph>
<glyph name="Y" format="1">
  <advance width="1235"/>
  <unicode hex="0059"/>
  <outline>
    <contour>
      <point x="175" y="1089" type="line"/>
      <point x="105" y="1204"/>
      <point x="-13" y="1204" type="qcurve"/>
      <point x="-26" y="1204"/>
      <point x="-26" y="1239.5" type="qcurve"/>
      <point x="-26" y="1275"/>
      <point x="-13" y="1275" type="qcurve"/>
      <point x="463" y="1275" type="line"/>
      <point x="476" y="1275"/>
      <point x="476" y="1239.5" type="qcurve"/>
      <point x="476" y="1204"/>
      <point x="463" y="1204" type="qcurve"/>
      <point x="342" y="1204"/>
      <point x="342" y="1147" type="qcurve"/>
      <point x="342" y="1124"/>
      <point x="363" y="1089" type="qcurve"/>
      <point x="644" y="617" type="line"/>
      <point x="652" y="603"/>
      <point x="659.5" y="603" type="qcurve"/>
      <point x="667" y="603"/>
      <point x="676" y="617" type="qcurve"/>
      <point x="974" y="1080" type="line"/>
      <point x="1001" y="1122"/>
      <point x="1001" y="1151" type="qcurve"/>
      <point x="1001" y="1204"/>
      <point x="890" y="1204" type="qcurve"/>
      <point x="876" y="1204"/>
      <point x="876" y="1239.5" type="qcurve"/>
      <point x="876" y="1275"/>
      <point x="890" y="1275" type="qcurve"/>
      <point x="1285" y="1275" type="line"/>
      <point x="1298" y="1275"/>
      <point x="1298" y="1239.5" type="qcurve"/>
      <point x="1298" y="1204"/>
      <point x="1285" y="1204" type="qcurve"/>
      <point x="1146" y="1204"/>
      <point x="1074" y="1095" type="qcurve"/>
      <point x="766" y="622" type="line"/>
      <point x="701" y="522"/>
      <point x="695" y="492.5" type="qcurve"/>
      <point x="689" y="463"/>
      <point x="689" y="406" type="qcurve"/>
      <point x="689" y="186" type="line"/>
      <point x="689" y="69"/>
      <point x="853" y="69" type="qcurve"/>
      <point x="866" y="69"/>
      <point x="866" y="34.5" type="qcurve"/>
      <point x="866" y="0"/>
      <point x="853" y="0" type="qcurve"/>
      <point x="365" y="0" type="line"/>
      <point x="352" y="0"/>
      <point x="352" y="34.5" type="qcurve"/>
      <point x="352" y="69"/>
      <point x="365" y="69" type="qcurve"/>
      <point x="529" y="69"/>
      <point x="529" y="186" type="qcurve"/>
      <point x="529" y="404" type="line"/>
      <point x="529" y="505"/>
      <point x="501" y="551" type="qcurve"/>
    </contour>
  </outline>
</glyph>
<glyph name="c" format="1">
  <advance width="817"/>
  <unicode hex="0063"/>
  <outline>
    <contour>
      <point x="500" y="-75" type="move" name="below"/>
    </contour>
    <contour>
      <point x="500" y="900" type="move" name="above"/>
    </contour>
    <contour>
      <point x="743" y="152" type="qcurve"/>
      <point x="754" y="157"/>
      <point x="767.5" y="136.5" type="qcurve"/>
      <point x="781" y="116"/>
      <point x="781" y="108" type="qcurve"/>
      <point x="781" y="102"/>
      <point x="776" y="97" type="qcurve"/>
      <point x="750" y="74"/>
      <point x="668" y="26" type="qcurve"/>
      <point x="588" y="-22"/>
      <point x="446" y="-23" type="qcurve"/>
      <point x="300" y="-23"/>
      <point x="193" y="94" type="qcurve"/>
      <point x="86" y="211"/>
      <point x="86" y="396" type="qcurve"/>
      <point x="86" y="581"/>
      <point x="208" y="725.5" type="qcurve"/>
      <point x="330" y="870"/>
      <point x="523" y="870" type="qcurve"/>
      <point x="719" y="870"/>
      <point x="756" y="797" type="qcurve"/>
      <point x="762" y="785"/>
      <point x="762" y="756" type="qcurve"/>
      <point x="762" y="737"/>
      <point x="740" y="709.5" type="qcurve"/>
      <point x="718" y="682"/>
      <point x="701" y="682" type="qcurve"/>
      <point x="684" y="682"/>
      <point x="674" y="696" type="qcurve"/>
      <point x="596" y="803"/>
      <point x="501" y="803" type="qcurve"/>
      <point x="406" y="803"/>
      <point x="328" y="701" type="qcurve"/>
      <point x="250" y="598"/>
      <point x="249" y="440" type="qcurve"/>
      <point x="249" y="282"/>
      <point x="338.5" y="186" type="qcurve"/>
      <point x="428" y="90"/>
      <point x="530" y="90" type="qcurve"/>
      <point x="607" y="90"/>
    </contour>
  </outline>
</glyph>
<glyph name="f" format="1">
  <advance width="584"/>
  <unicode hex="0066"/>
  <outline>
    <contour>
      <point x="279" y="-75" type="move" name="below"/>
    </contour>
    <contour>
      <point x="500" y="1545" type="move" name="above"/>
    </contour>
    <contour>
      <point x="201" y="127" type="qcurve"/>
      <point x="201" y="727" type="line"/>
      <point x="201" y="764"/>
      <point x="164" y="764" type="qcurve"/>
      <point x="90" y="764" type="line"/>
      <point x="75" y="764"/>
      <point x="75" y="791.5" type="qcurve"/>
      <point x="75" y="819"/>
      <point x="90" y="819" type="qcurve"/>
      <point x="201" y="819"/>
      <point x="201" y="905" type="qcurve"/>
      <point x="201" y="924" type="line"/>
      <point x="201" y="1174"/>
      <point x="342" y="1330.5" type="qcurve"/>
      <point x="483" y="1487"/>
      <point x="672" y="1487" type="qcurve"/>
      <point x="725" y="1487"/>
      <point x="768" y="1474" type="qcurve"/>
      <point x="810" y="1461"/>
      <point x="834" y="1435" type="qcurve"/>
      <point x="858" y="1410"/>
      <point x="858" y="1368" type="qcurve"/>
      <point x="858" y="1338"/>
      <point x="830.5" y="1311" type="qcurve"/>
      <point x="803" y="1284"/>
      <point x="772" y="1284" type="qcurve"/>
      <point x="716" y="1284"/>
      <point x="670.5" y="1338.5" type="qcurve"/>
      <point x="625" y="1393"/>
      <point x="571" y="1393" type="qcurve"/>
      <point x="465" y="1393"/>
      <point x="409.5" y="1308" type="qcurve"/>
      <point x="354" y="1223"/>
      <point x="354" y="1101" type="qcurve"/>
      <point x="354" y="887" type="line"/>
      <point x="354" y="850"/>
      <point x="391" y="850" type="qcurve"/>
      <point x="594" y="850" type="line"/>
      <point x="609" y="850"/>
      <point x="609" y="807" type="qcurve"/>
      <point x="609" y="764"/>
      <point x="594" y="764" type="qcurve"/>
      <point x="391" y="764" type="line"/>
      <point x="354" y="764"/>
      <point x="354" y="727" type="qcurve"/>
      <point x="354" y="127" type="line"/>
      <point x="354" y="49"/>
      <point x="502" y="49" type="qcurve"/>
      <point x="516" y="49"/>
      <point x="516" y="24" type="qcurve"/>
      <point x="516" y="-1"/>
      <point x="502" y="-1" type="qcurve"/>
      <point x="84" y="-1" type="line"/>
      <point x="70" y="-1"/>
      <point x="70" y="24" type="qcurve"/>
      <point x="70" y="49"/>
      <point x="84" y="49" type="qcurve"/>
      <point x="201" y="49"/>
    </contour>
  </outline>
</glyph>
<glyph name="h" format="1">
  <advance width="1094"/>
  <unicode hex="0068"/>
  <outline>
    <contour>
      <point x="921" y="127" type="line"/>
      <point x="921" y="49"/>
      <point x="1048" y="49" type="qcurve"/>
      <point x="1062" y="49"/>
      <point x="1062" y="24.5" type="qcurve"/>
      <point x="1062" y="0"/>
      <point x="1048" y="0" type="qcurve"/>
      <point x="655" y="0" type="line"/>
      <point x="641" y="0"/>
      <point x="641" y="24.5" type="qcurve"/>
      <point x="641" y="49"/>
      <point x="655" y="49" type="qcurve"/>
      <point x="768" y="49"/>
      <point x="768" y="127" type="qcurve"/>
      <point x="768" y="547" type="line"/>
      <point x="768" y="644"/>
      <point x="709" y="712" type="qcurve"/>
      <point x="650" y="780"/>
      <point x="566" y="780" type="qcurve"/>
      <point x="482" y="780"/>
      <point x="418" y="729" type="qcurve"/>
      <point x="354" y="678"/>
      <point x="354" y="629" type="qcurve"/>
      <point x="354" y="127" type="line"/>
      <point x="354" y="49"/>
      <point x="465" y="49" type="qcurve"/>
      <point x="479" y="49"/>
      <point x="479" y="24.5" type="qcurve"/>
      <point x="479" y="0"/>
      <point x="465" y="0" type="qcurve"/>
      <point x="80" y="0" type="line"/>
      <point x="66" y="0"/>
      <point x="66" y="24.5" type="qcurve"/>
      <point x="66" y="49"/>
      <point x="80" y="49" type="qcurve"/>
      <point x="201" y="49"/>
      <point x="201" y="127" type="qcurve"/>
      <point x="201" y="1174" type="line"/>
      <point x="201" y="1313"/>
      <point x="109" y="1313" type="qcurve"/>
      <point x="92" y="1313"/>
      <point x="92" y="1340.5" type="qcurve"/>
      <point x="92" y="1368"/>
      <point x="109" y="1368" type="qcurve"/>
      <point x="142" y="1368"/>
      <point x="206.5" y="1402" type="qcurve"/>
      <point x="271" y="1436"/>
      <point x="304" y="1462" type="qcurve"/>
      <point x="336" y="1488"/>
      <point x="348" y="1488" type="qcurve"/>
      <point x="360" y="1488"/>
      <point x="360" y="1479" type="qcurve"/>
      <point x="360" y="1470"/>
      <point x="357" y="1416.5" type="qcurve"/>
      <point x="354" y="1363"/>
      <point x="354" y="1305" type="qcurve"/>
      <point x="354" y="791" type="line"/>
      <point x="354" y="766"/>
      <point x="370" y="766" type="qcurve"/>
      <point x="379" y="766"/>
      <point x="387" y="774" type="qcurve"/>
      <point x="478" y="870"/>
      <point x="628" y="870" type="qcurve"/>
      <point x="773" y="870"/>
      <point x="847" y="764.5" type="qcurve"/>
      <point x="921" y="659"/>
      <point x="921" y="549" type="qcurve"/>
    </contour>
  </outline>
</glyph>
<glyph name="j" format="1">
  <advance width="518"/>
  <unicode hex="006A"/>
  <outline>
    <contour>
      <point x="207" y="-594" type="move" name="below"/>
    </contour>
    <contour>
      <point x="264" y="1545" type="move" name="above"/>
    </contour>
    <contour>
      <point x="365" y="1157" type="qcurve"/>
      <point x="365" y="1112"/>
      <point x="333" y="1080" type="qcurve"/>
      <point x="301" y="1048"/>
      <point x="256" y="1048" type="qcurve"/>
      <point x="211" y="1048"/>
      <point x="180.5" y="1080" type="qcurve"/>
      <point x="150" y="1112"/>
      <point x="150" y="1157" type="qcurve"/>
      <point x="150" y="1202"/>
      <point x="180.5" y="1232.5" type="qcurve"/>
      <point x="211" y="1263"/>
      <point x="256" y="1263" type="qcurve"/>
      <point x="301" y="1263"/>
      <point x="333" y="1232.5" type="qcurve"/>
      <point x="365" y="1202"/>
    </contour>
    <contour>
      <point x="358" y="59" type="line"/>
      <point x="358" y="-270"/>
      <point x="248" y="-424" type="qcurve"/>
      <point x="155" y="-555"/>
      <point x="0" y="-555" type="qcurve"/>
      <point x="-50" y="-555"/>
      <point x="-87.5" y="-527" type="qcurve"/>
      <point x="-125" y="-499"/>
      <point x="-125" y="-459" type="qcurve"/>
      <point x="-125" y="-427"/>
      <point x="-100.5" y="-408" type="qcurve"/>
      <point x="-76" y="-389"/>
      <point x="-47" y="-389" type="qcurve"/>
      <point x="2" y="-389"/>
      <point x="41.5" y="-428" type="qcurve"/>
      <point x="81" y="-467"/>
      <point x="106" y="-467" type="qcurve"/>
      <point x="205" y="-467"/>
      <point x="205" y="-254" type="qcurve"/>
      <point x="205" y="571" type="line"/>
      <point x="205" y="709"/>
      <point x="113" y="709" type="qcurve"/>
      <point x="96" y="709"/>
      <point x="96" y="737" type="qcurve"/>
      <point x="96" y="765"/>
      <point x="113" y="765" type="qcurve"/>
      <point x="146" y="765"/>
      <point x="210.5" y="799" type="qcurve"/>
      <point x="275" y="833"/>
      <point x="308" y="858" type="qcurve"/>
      <point x="341" y="883"/>
      <point x="352" y="883" type="qcurve"/>
      <point x="364" y="883"/>
      <point x="364" y="867" type="qcurve"/>
      <point x="358" y="759"/>
      <point x="358" y="701" type="qcurve"/>
    </contour>
  </outline>
</glyph>
<glyph name="k" format="1">
  <advance width="1008"/>
  <unicode hex="006B"/>
  <outline>
    <contour>
      <point x="664" y="723" type="line"/>
      <point x="690" y="752"/>
      <point x="690" y="770" type="qcurve"/>
      <point x="690" y="803"/>
      <point x="594" y="803" type="qcurve"/>
      <point x="580" y="803"/>
      <point x="580" y="826.5" type="qcurve"/>
      <point x="580" y="850"/>
      <point x="594" y="850" type="qcurve"/>
      <point x="958" y="850" type="line"/>
      <point x="972" y="850"/>
      <point x="972" y="826.5" type="qcurve"/>
      <point x="972" y="803"/>
      <point x="958" y="803" type="qcurve"/>
      <point x="866" y="803"/>
      <point x="795" y="735" type="qcurve"/>
      <point x="582" y="530" type="line"/>
      <point x="563" y="512"/>
      <point x="563" y="496" type="qcurve"/>
      <point x="563" y="480"/>
      <point x="580" y="461" type="qcurve"/>
      <point x="901" y="94" type="line"/>
      <point x="940" y="49"/>
      <point x="1030" y="49" type="qcurve"/>
      <point x="1044" y="49"/>
      <point x="1044" y="24.5" type="qcurve"/>
      <point x="1044" y="0"/>
      <point x="1030" y="0" type="qcurve"/>
      <point x="627" y="0" type="line"/>
      <point x="613" y="0"/>
      <point x="613" y="24.5" type="qcurve"/>
      <point x="613" y="49"/>
      <point x="627" y="49" type="qcurve"/>
      <point x="709" y="49"/>
      <point x="709" y="78" type="qcurve"/>
      <point x="709" y="91"/>
      <point x="678" y="127" type="qcurve"/>
      <point x="457" y="381" type="line"/>
      <point x="441" y="399"/>
      <point x="421.5" y="405.5" type="qcurve"/>
      <point x="402" y="412"/>
      <point x="387" y="412" type="qcurve"/>
      <point x="372" y="412"/>
      <point x="363" y="404" type="qcurve"/>
      <point x="354" y="396"/>
      <point x="354" y="369" type="qcurve"/>
      <point x="354" y="127" type="line"/>
      <point x="354" y="49"/>
      <point x="473" y="49" type="qcurve"/>
      <point x="487" y="49"/>
      <point x="487" y="24.5" type="qcurve"/>
      <point x="487" y="0"/>
      <point x="473" y="0" type="qcurve"/>
      <point x="86" y="0" type="line"/>
      <point x="73" y="0"/>
      <point x="73" y="24.5" type="qcurve"/>
      <point x="73" y="49"/>
      <point x="86" y="49" type="qcurve"/>
      <point x="201" y="49"/>
      <point x="201" y="127" type="qcurve"/>
      <point x="201" y="1175" type="line"/>
      <point x="201" y="1313"/>
      <point x="109" y="1313" type="qcurve"/>
      <point x="92" y="1313"/>
      <point x="92" y="1341" type="qcurve"/>
      <point x="92" y="1369"/>
      <point x="109" y="1369" type="qcurve"/>
      <point x="142" y="1369"/>
      <point x="206.5" y="1403" type="qcurve"/>
      <point x="271" y="1437"/>
      <point x="304" y="1462" type="qcurve"/>
      <point x="337" y="1487"/>
      <point x="348" y="1487" type="qcurve"/>
      <point x="360" y="1487"/>
      <point x="360" y="1479" type="qcurve"/>
      <point x="360" y="1471"/>
      <point x="357" y="1418.5" type="qcurve"/>
      <point x="354" y="1366"/>
      <point x="354" y="1305" type="qcurve"/>
      <point x="354" y="522" type="line"/>
      <point x="354" y="479"/>
      <point x="400" y="479" type="qcurve"/>
      <point x="446" y="479"/>
      <point x="467" y="502" type="qcurve"/>
    </contour>
  </outline>
</glyph>
<glyph name="m" format="1">
  <advance width="1607"/>
  <unicode hex="006D"/>
  <outline>
    <contour>
      <point x="80" y="0" type="line"/>
      <point x="66" y="0"/>
      <point x="66" y="24.5" type="qcurve"/>
      <point x="66" y="49"/>
      <point x="80" y="49" type="qcurve"/>
      <point x="201" y="49"/>
      <point x="201" y="127" type="qcurve"/>
      <point x="201" y="578" type="line"/>
      <point x="201" y="702"/>
      <point x="117" y="702" type="qcurve"/>
      <point x="100" y="702"/>
      <point x="100" y="730" type="qcurve"/>
      <point x="100" y="758"/>
      <point x="117" y="758" type="qcurve"/>
      <point x="142" y="758"/>
      <point x="200.5" y="792.5" type="qcurve"/>
      <point x="259" y="827"/>
      <point x="294.5" y="855" type="qcurve"/>
      <point x="330" y="883"/>
      <point x="343" y="883" type="qcurve"/>
      <point x="358" y="883"/>
      <point x="358" y="869.5" type="qcurve"/>
      <point x="358" y="856"/>
      <point x="355.5" y="827" type="qcurve"/>
      <point x="353" y="798"/>
      <point x="353" y="775" type="qcurve"/>
      <point x="353" y="752"/>
      <point x="365" y="752" type="qcurve"/>
      <point x="374" y="752"/>
      <point x="382" y="760" type="qcurve"/>
      <point x="486" y="870"/>
      <point x="634" y="870" type="qcurve"/>
      <point x="766" y="870"/>
      <point x="850" y="748" type="qcurve"/>
      <point x="861" y="732"/>
      <point x="869.5" y="732" type="qcurve"/>
      <point x="878" y="732"/>
      <point x="889" y="745" type="qcurve"/>
      <point x="1002" y="870"/>
      <point x="1163" y="870" type="qcurve"/>
      <point x="1285" y="870"/>
      <point x="1344.5" y="802" type="qcurve"/>
      <point x="1404" y="734"/>
      <point x="1420.5" y="683.5" type="qcurve"/>
      <point x="1437" y="633"/>
      <point x="1437" y="565" type="qcurve"/>
      <point x="1437" y="127" type="line"/>
      <point x="1437" y="49"/>
      <point x="1553" y="49" type="qcurve"/>
      <point x="1567" y="49"/>
      <point x="1567" y="24.5" type="qcurve"/>
      <point x="1567" y="0"/>
      <point x="1553" y="0" type="qcurve"/>
      <point x="1174" y="0" type="line"/>
      <point x="1160" y="0"/>
      <point x="1160" y="24.5" type="qcurve"/>
      <point x="1160" y="49"/>
      <point x="1174" y="49" type="qcurve"/>
      <point x="1284" y="49"/>
      <point x="1284" y="127" type="qcurve"/>
      <point x="1284" y="580" type="line"/>
      <point x="1284" y="697"/>
      <point x="1227.5" y="738.5" type="qcurve"/>
      <point x="1171" y="780"/>
      <point x="1085" y="780" type="qcurve"/>
      <point x="998" y="780"/>
      <point x="946.5" y="698" type="qcurve"/>
      <point x="895" y="616"/>
      <point x="895" y="477" type="qcurve"/>
      <point x="895" y="127" type="line"/>
      <point x="895" y="49"/>
      <point x="1010" y="49" type="qcurve"/>
      <point x="1024" y="49"/>
      <point x="1024" y="24.5" type="qcurve"/>
      <point x="1024" y="0"/>
      <point x="1010" y="0" type="qcurve"/>
      <point x="632" y="0" type="line"/>
      <point x="618" y="0"/>
      <point x="618" y="24.5" type="qcurve"/>
      <point x="618" y="49"/>
      <point x="632" y="49" type="qcurve"/>
      <point x="742" y="49"/>
      <point x="742" y="127" type="qcurve"/>
      <point x="742" y="532" type="line"/>
      <point x="742" y="622"/>
      <point x="726" y="679" type="qcurve"/>
      <point x="710" y="736"/>
      <point x="677.5" y="758" type="qcurve"/>
      <point x="645" y="780"/>
      <point x="571" y="780" type="qcurve"/>
      <point x="526" y="780"/>
      <point x="493.5" y="763" type="qcurve"/>
      <point x="461" y="746"/>
      <point x="429.5" y="722" type="qcurve"/>
      <point x="398" y="698"/>
      <point x="376" y="664" type="qcurve"/>
      <point x="354" y="630"/>
      <point x="354" y="590" type="qcurve"/>
      <point x="354" y="127" type="line"/>
      <point x="354" y="49"/>
      <point x="460" y="49" type="qcurve"/>
      <point x="474" y="49"/>
      <point x="474" y="24.5" type="qcurve"/>
      <point x="474" y="0"/>
      <point x="460" y="0" type="qcurve"/>
    </contour>
  </outline>
</glyph>
<glyph name="n" format="1">
  <advance width="1069"/>
  <unicode hex="006E"/>
  <outline>
    <contour>
      <point x="896" y="127" type="line"/>
      <point x="896" y="49"/>
      <point x="1011" y="49" type="qcurve"/>
      <point x="1025" y="49"/>
      <point x="1025" y="24.5" type="qcurve"/>
      <point x="1025" y="0"/>
      <point x="1011" y="0" type="qcurve"/>
      <point x="633" y="0" type="line"/>
      <point x="619" y="0"/>
      <point x="619" y="24.5" type="qcurve"/>
      <point x="619" y="49"/>
      <point x="633" y="49" type="qcurve"/>
      <point x="743" y="49"/>
      <point x="743" y="127" type="qcurve"/>
      <point x="743" y="530" type="line"/>
      <point x="743" y="614"/>
      <point x="728.5" y="672.5" type="qcurve"/>
      <point x="714" y="731"/>
      <point x="683" y="755.5" type="qcurve"/>
      <point x="652" y="780"/>
      <point x="574" y="780" type="qcurve"/>
      <point x="532" y="780"/>
      <point x="498" y="763" type="qcurve"/>
      <point x="464" y="746"/>
      <point x="431.5" y="722.5" type="qcurve"/>
      <point x="399" y="699"/>
      <point x="376.5" y="664.5" type="qcurve"/>
      <point x="354" y="630"/>
      <point x="354" y="590" type="qcurve"/>
      <point x="354" y="127" type="line"/>
      <point x="354" y="49"/>
      <point x="461" y="49" type="qcurve"/>
      <point x="475" y="49"/>
      <point x="475" y="24.5" type="qcurve"/>
      <point x="475" y="0"/>
      <point x="461" y="0" type="qcurve"/>
      <point x="86" y="0" type="line"/>
      <point x="72" y="0"/>
      <point x="72" y="24.5" type="qcurve"/>
      <point x="72" y="49"/>
      <point x="86" y="49" type="qcurve"/>
      <point x="201" y="49"/>
      <point x="201" y="127" type="qcurve"/>
      <point x="201" y="574" type="line"/>
      <point x="201" y="702"/>
      <point x="117" y="702" type="qcurve"/>
      <point x="100" y="702"/>
      <point x="100" y="730" type="qcurve"/>
      <point x="100" y="758"/>
      <point x="117" y="758" type="qcurve"/>
      <point x="155" y="758"/>
      <point x="204.5" y="788" type="qcurve"/>
      <point x="254" y="818"/>
      <point x="291" y="850.5" type="qcurve"/>
      <point x="328" y="883"/>
      <point x="343" y="883" type="qcurve"/>
      <point x="357" y="883"/>
      <point x="357" y="867.5" type="qcurve"/>
      <point x="357" y="852"/>
      <point x="355" y="825.5" type="qcurve"/>
      <point x="353" y="799"/>
      <point x="353" y="778.5" type="qcurve"/>
      <point x="353" y="758"/>
      <point x="368" y="758" type="qcurve"/>
      <point x="376" y="758"/>
      <point x="383" y="764" type="qcurve"/>
      <point x="490" y="870"/>
      <point x="642" y="870" type="qcurve"/>
      <point x="790" y="870"/>
      <point x="863" y="723" type="qcurve"/>
      <point x="896" y="657"/>
      <point x="896" y="475" type="qcurve"/>
    </contour>
  </outline>
</glyph>
<glyph name="o" format="1">
  <advance width="995"/>
  <unicode hex="006F"/>
  <outline>
    <contour>
      <point x="507" y="-75" type="move" name="below"/>
    </contour>
    <contour>
      <point x="507" y="900" type="move" name="above"/>
    </contour>
    <contour>
      <point x="84" y="428" type="qcurve"/>
      <point x="84" y="596"/>
      <point x="209" y="733" type="qcurve"/>
      <point x="334" y="870"/>
      <point x="508" y="870" type="qcurve"/>
      <point x="682" y="870"/>
      <point x="803" y="733" type="qcurve"/>
      <point x="924" y="596"/>
      <point x="924" y="420" type="qcurve"/>
      <point x="924" y="244"/>
      <point x="813" y="110.5" type="qcurve"/>
      <point x="702" y="-23"/>
      <point x="516" y="-23" type="qcurve"/>
      <point x="330" y="-23"/>
      <point x="207" y="118.5" type="qcurve"/>
      <point x="84" y="260"/>
    </contour>
    <contour>
      <point x="247" y="422" type="qcurve"/>
      <point x="247" y="244"/>
      <point x="328.5" y="143.5" type="qcurve"/>
      <point x="410" y="43"/>
      <point x="504" y="43" type="qcurve"/>
      <point x="600" y="43"/>
      <point x="680.5" y="144.5" type="qcurve"/>
      <point x="761" y="246"/>
      <point x="761" y="422" type="qcurve"/>
      <point x="761" y="598"/>
      <point x="681" y="704" type="qcurve"/>
      <point x="601" y="810"/>
      <point x="506" y="811" type="qcurve"/>
      <point x="410" y="811"/>
      <point x="328.5" y="705.5" type="qcurve"/>
      <point x="247" y="600"/>
    </contour>
  </outline>
</glyph>
<glyph name="p" format="1">
  <advance width="1001"/>
  <unicode hex="0070"/>
  <outline>
    <contour>
      <point x="945" y="418" type="qcurve"/>
      <point x="945" y="220"/>
      <point x="835.5" y="98.5" type="qcurve"/>
      <point x="726" y="-23"/>
      <point x="531" y="-23" type="qcurve"/>
      <point x="421" y="-23"/>
      <point x="389" y="-12.5" type="qcurve"/>
      <point x="357" y="-2"/>
      <point x="353" y="-2" type="qcurve"/>
      <point x="327" y="-2"/>
      <point x="327" y="-35" type="qcurve"/>
      <point x="327" y="-416" type="line"/>
      <point x="327" y="-502"/>
      <point x="478" y="-502" type="qcurve"/>
      <point x="492" y="-502"/>
      <point x="492" y="-526.5" type="qcurve"/>
      <point x="492" y="-551"/>
      <point x="478" y="-551" type="qcurve"/>
      <point x="59" y="-551" type="line"/>
      <point x="45" y="-551"/>
      <point x="45" y="-526.5" type="qcurve"/>
      <point x="45" y="-502"/>
      <point x="59" y="-502" type="qcurve"/>
      <point x="174" y="-502"/>
      <point x="174" y="-418" type="qcurve"/>
      <point x="174" y="581" type="line"/>
      <point x="174" y="705"/>
      <point x="88" y="705" type="qcurve"/>
      <point x="71" y="705"/>
      <point x="71" y="732.5" type="qcurve"/>
      <point x="71" y="760"/>
      <point x="88" y="760" type="qcurve"/>
      <point x="117" y="760"/>
      <point x="187" y="800" type="qcurve"/>
      <point x="257" y="840"/>
      <point x="278.5" y="861.5" type="qcurve"/>
      <point x="300" y="883"/>
      <point x="315.5" y="883" type="qcurve"/>
      <point x="331" y="883"/>
      <point x="331" y="869.5" type="qcurve"/>
      <point x="331" y="856"/>
      <point x="329" y="827" type="qcurve"/>
      <point x="327" y="798"/>
      <point x="327" y="783" type="qcurve"/>
      <point x="327" y="768"/>
      <point x="343" y="768" type="qcurve"/>
      <point x="352" y="768"/>
      <point x="361" y="776" type="qcurve"/>
      <point x="445" y="870"/>
      <point x="548" y="870" type="qcurve"/>
      <point x="660" y="870"/>
      <point x="754" y="801.5" type="qcurve"/>
      <point x="848" y="733"/>
      <point x="896.5" y="648" type="qcurve"/>
      <point x="945" y="563"/>
    </contour>
    <contour>
      <point x="771" y="420" type="qcurve"/>
      <point x="771" y="788"/>
      <point x="507" y="788" type="qcurve"/>
      <point x="423" y="788"/>
      <point x="347" y="688" type="qcurve"/>
      <point x="327" y="662"/>
      <point x="327" y="594" type="qcurve"/>
      <point x="327" y="205" type="line"/>
      <point x="327" y="41"/>
      <point x="516" y="41" type="qcurve"/>
      <point x="656" y="41"/>
      <point x="713.5" y="152" type="qcurve"/>
      <point x="771" y="263"/>
    </contour>
  </outline>
</glyph>
<glyph name="r" format="1">
  <advance width="696"/>
  <unicode hex="0072"/>
  <outline>
    <contour>
      <point x="393" y="-75" type="move" name="below"/>
    </contour>
    <contour>
      <point x="393" y="900" type="move" name="above"/>
    </contour>
    <contour>
      <point x="581" y="870" type="qcurve"/>
      <point x="613" y="870"/>
      <point x="634" y="859" type="qcurve"/>
      <point x="655" y="848"/>
      <point x="673" y="825" type="qcurve"/>
      <point x="691" y="802"/>
      <point x="691" y="758" type="qcurve"/>
      <point x="691" y="746"/>
      <point x="681" y="724" type="qcurve"/>
      <point x="671" y="702"/>
      <point x="650" y="686" type="qcurve"/>
      <point x="630" y="670"/>
      <point x="608" y="670" type="qcurve"/>
      <point x="586" y="670"/>
      <point x="540.5" y="694.5" type="qcurve"/>
      <point x="495" y="719"/>
      <point x="472" y="719" type="qcurve"/>
      <point x="411" y="719"/>
      <point x="369" y="658.5" type="qcurve"/>
      <point x="327" y="598"/>
      <point x="327" y="494" type="qcurve"/>
      <point x="327" y="127" type="line"/>
      <point x="327" y="49"/>
      <point x="478" y="49" type="qcurve"/>
      <point x="492" y="49"/>
      <point x="492" y="24.5" type="qcurve"/>
      <point x="492" y="0"/>
      <point x="478" y="0" type="qcurve"/>
      <point x="59" y="0" type="line"/>
      <point x="45" y="0"/>
      <point x="45" y="24.5" type="qcurve"/>
      <point x="45" y="49"/>
      <point x="59" y="49" type="qcurve"/>
      <point x="174" y="49"/>
      <point x="174" y="127" type="qcurve"/>
      <point x="174" y="589" type="line"/>
      <point x="174" y="702"/>
      <point x="90" y="702" type="qcurve"/>
      <point x="73" y="702"/>
      <point x="73" y="730" type="qcurve"/>
      <point x="73" y="758"/>
      <point x="90" y="758" type="qcurve"/>
      <point x="128" y="758"/>
      <point x="199" y="806" type="qcurve"/>
      <point x="270" y="854"/>
      <point x="286.5" y="868.5" type="qcurve"/>
      <point x="303" y="883"/>
      <point x="314" y="883" type="qcurve"/>
      <point x="331" y="883"/>
      <point x="331" y="858" type="qcurve"/>
      <point x="327" y="809"/>
      <point x="327" y="768.5" type="qcurve"/>
      <point x="327" y="728"/>
      <point x="340.5" y="728" type="qcurve"/>
      <point x="354" y="728"/>
      <point x="368" y="748" type="qcurve"/>
      <point x="457" y="870"/>
    </contour>
  </outline>
</glyph>
<glyph name="s" format="1">
  <advance width="707"/>
  <unicode hex="0073"/>
  <outline>
    <contour>
      <point x="369" y="-75" type="move" name="below"/>
    </contour>
    <contour>
      <point x="369" y="900" type="move" name="above"/>
    </contour>
    <contour>
      <point x="649" y="246" type="qcurve"/>
      <point x="649" y="165"/>
      <point x="607" y="101.5" type="qcurve"/>
      <point x="565" y="38"/>
      <point x="492" y="6.5" type="qcurve"/>
      <point x="419" y="-25"/>
      <point x="338" y="-25" type="qcurve"/>
      <point x="182" y="-25"/>
      <point x="98" y="35" type="qcurve"/>
      <point x="78" y="98"/>
      <point x="78" y="207" type="qcurve"/>
      <point x="78" y="252" type="line"/>
      <point x="78" y="267"/>
      <point x="101.5" y="267" type="qcurve"/>
      <point x="125" y="267"/>
      <point x="127" y="252" type="qcurve"/>
      <point x="132" y="213"/>
      <point x="192" y="126" type="qcurve"/>
      <point x="252" y="39"/>
      <point x="371" y="39" type="qcurve"/>
      <point x="430" y="39"/>
      <point x="481" y="76" type="qcurve"/>
      <point x="532" y="113"/>
      <point x="532" y="183" type="qcurve"/>
      <point x="532" y="253"/>
      <point x="489" y="295.5" type="qcurve"/>
      <point x="446" y="338"/>
      <point x="336" y="367.5" type="qcurve"/>
      <point x="226" y="397"/>
      <point x="159" y="462" type="qcurve"/>
      <point x="92" y="527"/>
      <point x="92" y="627" type="qcurve"/>
      <point x="92" y="729"/>
      <point x="176" y="799.5" type="qcurve"/>
      <point x="260" y="870"/>
      <point x="389" y="870" type="qcurve"/>
      <point x="518" y="870"/>
      <point x="596" y="834" type="qcurve"/>
      <point x="627" y="750"/>
      <point x="627" y="664" type="qcurve"/>
      <point x="627" y="653" type="line"/>
      <point x="627" y="639"/>
      <point x="605" y="639" type="qcurve"/>
      <point x="583" y="639"/>
      <point x="580" y="653" type="qcurve"/>
      <point x="570" y="707"/>
      <point x="512.5" y="758" type="qcurve"/>
      <point x="455" y="809"/>
      <point x="378" y="809" type="qcurve"/>
      <point x="301" y="809"/>
      <point x="254" y="771.5" type="qcurve"/>
      <point x="207" y="734"/>
      <point x="207" y="670" type="qcurve"/>
      <point x="207" y="610"/>
      <point x="240.5" y="576.5" type="qcurve"/>
      <point x="274" y="543"/>
      <point x="407" y="504.5" type="qcurve"/>
      <point x="540" y="466"/>
      <point x="594.5" y="407.5" type="qcurve"/>
      <point x="649" y="349"/>
    </contour>
  </outline>
</glyph>
<glyph name="t" format="1">
  <advance width="674"/>
  <unicode hex="0074"/>
  <outline>
    <contour>
      <point x="193" y="213" type="qcurve"/>
      <point x="193" y="720" type="line"/>
      <point x="193" y="760"/>
      <point x="153" y="760" type="qcurve"/>
      <point x="80" y="760" type="line"/>
      <point x="66" y="760"/>
      <point x="66" y="783" type="qcurve"/>
      <point x="66" y="806"/>
      <point x="80" y="806" type="qcurve"/>
      <point x="125" y="806"/>
      <point x="173" y="841.5" type="qcurve"/>
      <point x="221" y="877"/>
      <point x="253" y="919.5" type="qcurve"/>
      <point x="285" y="962"/>
      <point x="301" y="1001" type="qcurve"/>
      <point x="305" y="1010"/>
      <point x="315" y="1010" type="qcurve"/>
      <point x="325" y="1010"/>
      <point x="335.5" y="1005" type="qcurve"/>
      <point x="346" y="1000"/>
      <point x="346" y="991" type="qcurve"/>
      <point x="346" y="893" type="line"/>
      <point x="346" y="850"/>
      <point x="387" y="850" type="qcurve"/>
      <point x="631" y="850" type="line"/>
      <point x="645" y="850"/>
      <point x="645" y="805" type="qcurve"/>
      <point x="645" y="760"/>
      <point x="631" y="760" type="qcurve"/>
      <point x="387" y="760" type="line"/>
      <point x="346" y="760"/>
      <point x="346" y="720" type="qcurve"/>
      <point x="346" y="317" type="line"/>
      <point x="346" y="186"/>
      <point x="383.5" y="130" type="qcurve"/>
      <point x="421" y="74"/>
      <point x="508" y="74" type="qcurve"/>
      <point x="560" y="74"/>
      <point x="616" y="113" type="qcurve"/>
      <point x="622" y="117"/>
      <point x="627.5" y="117" type="qcurve"/>
      <point x="633" y="117"/>
      <point x="639" y="106" type="qcurve"/>
      <point x="645" y="95"/>
      <point x="645" y="88" type="qcurve"/>
      <point x="645" y="81"/>
      <point x="643" y="78" type="qcurve"/>
      <point x="559" y="-23"/>
      <point x="423" y="-23" type="qcurve"/>
      <point x="298" y="-23"/>
      <point x="245.5" y="31.5" type="qcurve"/>
      <point x="193" y="86"/>
    </contour>
  </outline>
</glyph>
<glyph name="x" format="1">
  <advance width="918"/>
  <unicode hex="0078"/>
  <outline>
    <contour>
      <point x="188" y="733" type="line"/>
      <point x="137" y="803"/>
      <point x="90" y="803" type="qcurve"/>
      <point x="76" y="803"/>
      <point x="76" y="826.5" type="qcurve"/>
      <point x="76" y="850"/>
      <point x="90" y="850" type="qcurve"/>
      <point x="432" y="850" type="line"/>
      <point x="446" y="850"/>
      <point x="446" y="826.5" type="qcurve"/>
      <point x="446" y="803"/>
      <point x="432" y="803" type="qcurve"/>
      <point x="356" y="803"/>
      <point x="356" y="766" type="qcurve"/>
      <point x="356" y="748"/>
      <point x="373" y="721" type="qcurve"/>
      <point x="483" y="545" type="line"/>
      <point x="492" y="530"/>
      <point x="502" y="530" type="qcurve"/>
      <point x="512" y="530"/>
      <point x="522" y="545" type="qcurve"/>
      <point x="643" y="705" type="line"/>
      <point x="670" y="740"/>
      <point x="670" y="762" type="qcurve"/>
      <point x="670" y="803"/>
      <point x="588" y="803" type="qcurve"/>
      <point x="574" y="803"/>
      <point x="574" y="826.5" type="qcurve"/>
      <point x="574" y="850"/>
      <point x="588" y="850" type="qcurve"/>
      <point x="883" y="850" type="line"/>
      <point x="897" y="850"/>
      <point x="897" y="826.5" type="qcurve"/>
      <point x="897" y="803"/>
      <point x="883" y="803" type="qcurve"/>
      <point x="816" y="803"/>
      <point x="758" y="731" type="qcurve"/>
      <point x="563" y="494" type="line"/>
      <point x="549" y="477"/>
      <point x="549" y="465" type="qcurve"/>
      <point x="549" y="453"/>
      <point x="559" y="438" type="qcurve"/>
      <point x="770" y="133" type="line"/>
      <point x="828" y="49"/>
      <point x="918" y="49" type="qcurve"/>
      <point x="932" y="49"/>
      <point x="932" y="24.5" type="qcurve"/>
      <point x="932" y="0"/>
      <point x="918" y="0" type="qcurve"/>
      <point x="524" y="0" type="line"/>
      <point x="510" y="0"/>
      <point x="510" y="24.5" type="qcurve"/>
      <point x="510" y="49"/>
      <point x="524" y="49" type="qcurve"/>
      <point x="621" y="49"/>
      <point x="621" y="82" type="qcurve"/>
      <point x="621" y="94"/>
      <point x="598" y="129" type="qcurve"/>
      <point x="461" y="344" type="line"/>
      <point x="452" y="356"/>
      <point x="444" y="356" type="qcurve"/>
      <point x="436" y="356"/>
      <point x="428" y="344" type="qcurve"/>
      <point x="285" y="145" type="line"/>
      <point x="252" y="98"/>
      <point x="252" y="78" type="qcurve"/>
      <point x="252" y="49"/>
      <point x="317" y="49" type="qcurve"/>
      <point x="331" y="49"/>
      <point x="331" y="24.5" type="qcurve"/>
      <point x="331" y="0"/>
      <point x="317" y="0" type="qcurve"/>
      <point x="23" y="0" type="line"/>
      <point x="9" y="0"/>
      <point x="9" y="24.5" type="qcurve"/>
      <point x="9" y="49"/>
      <point x="23" y="49" type="qcurve"/>
      <point x="117" y="49"/>
      <point x="170" y="117" type="qcurve"/>
      <point x="395" y="399" type="line"/>
      <point x="403" y="410"/>
      <point x="403" y="421" type="qcurve"/>
      <point x="403" y="432"/>
      <point x="395" y="444" type="qcurve"/>
    </contour>
  </outline>
</glyph>
<glyph name="y" format="1">
  <advance width="838"/>
  <unicode hex="0079"/>
  <outline>
    <contour>
      <point x="82" y="731" type="line"/>
      <point x="56" y="803"/>
      <point x="-39" y="803" type="qcurve"/>
      <point x="-53" y="803"/>
      <point x="-53" y="826.5" type="qcurve"/>
      <point x="-53" y="850"/>
      <point x="-39" y="850" type="qcurve"/>
      <point x="332" y="850" type="line"/>
      <point x="346" y="850"/>
      <point x="346" y="826.5" type="qcurve"/>
      <point x="346" y="803"/>
      <point x="332" y="803" type="qcurve"/>
      <point x="236" y="803"/>
      <point x="236" y="748" type="qcurve"/>
      <point x="236" y="732"/>
      <point x="240" y="719" type="qcurve"/>
      <point x="414" y="215" type="line"/>
      <point x="424" y="184"/>
      <point x="439" y="184" type="qcurve"/>
      <point x="454" y="184"/>
      <point x="467" y="217" type="qcurve"/>
      <point x="662" y="719" type="line"/>
      <point x="668" y="732"/>
      <point x="668" y="745" type="qcurve"/>
      <point x="668" y="803"/>
      <point x="539" y="803" type="qcurve"/>
      <point x="525" y="803"/>
      <point x="525" y="826.5" type="qcurve"/>
      <point x="525" y="850"/>
      <point x="539" y="850" type="qcurve"/>
      <point x="866" y="850" type="line"/>
      <point x="880" y="850"/>
      <point x="880" y="826.5" type="qcurve"/>
      <point x="880" y="803"/>
      <point x="866" y="803" type="qcurve"/>
      <point x="770" y="803"/>
      <point x="741" y="731" type="qcurve"/>
      <point x="299" y="-418" type="line"/>
      <point x="274" y="-482"/>
      <point x="225.5" y="-517.5" type="qcurve"/>
      <point x="177" y="-553"/>
      <point x="129" y="-553" type="qcurve"/>
      <point x="81" y="-553"/>
      <point x="56" y="-528" type="qcurve"/>
      <point x="31" y="-503"/>
      <point x="31" y="-477" type="qcurve"/>
      <point x="31" y="-401"/>
      <point x="125.5" y="-401" type="qcurve"/>
      <point x="220" y="-401"/>
      <point x="246" y="-338" type="qcurve"/>
      <point x="342" y="-98" type="line"/>
      <point x="353" y="-73"/>
      <point x="353" y="-59" type="qcurve"/>
      <point x="353" y="-45"/>
      <point x="340" y="-8" type="qcurve"/>
    </contour>
  </outline>
</glyph>
<glyph name="z" format="1">
  <advance width="735"/>
  <unicode hex="007A"/>
  <outline>
    <contour>
      <point x="713" y="276" type="qcurve"/>
      <point x="682" y="47"/>
      <point x="682" y="10" type="qcurve"/>
      <point x="682" y="-27"/>
      <point x="655" y="-27" type="qcurve"/>
      <point x="645" y="-27"/>
      <point x="586.5" y="-13.5" type="qcurve"/>
      <point x="528" y="0"/>
      <point x="492" y="0" type="qcurve"/>
      <point x="72" y="0" type="line"/>
      <point x="55" y="0"/>
      <point x="55" y="14" type="qcurve"/>
      <point x="55" y="20"/>
      <point x="57" y="23" type="qcurve"/>
      <point x="455" y="752" type="line"/>
      <point x="463" y="767"/>
      <point x="463" y="775" type="qcurve"/>
      <point x="463" y="793"/>
      <point x="434" y="793" type="qcurve"/>
      <point x="276" y="793" type="line"/>
      <point x="221" y="793"/>
      <point x="183.5" y="745.5" type="qcurve"/>
      <point x="146" y="698"/>
      <point x="84" y="563" type="qcurve"/>
      <point x="81" y="559"/>
      <point x="77.5" y="559" type="qcurve"/>
      <point x="74" y="559"/>
      <point x="67.5" y="562" type="qcurve"/>
      <point x="61" y="565"/>
      <point x="61" y="569" type="qcurve"/>
      <point x="98" y="836" type="line"/>
      <point x="101" y="859"/>
      <point x="107" y="864.5" type="qcurve"/>
      <point x="113" y="870"/>
      <point x="121" y="870" type="qcurve"/>
      <point x="224" y="854" type="line"/>
      <point x="250" y="850"/>
      <point x="301" y="850" type="qcurve"/>
      <point x="647" y="850" type="line"/>
      <point x="662" y="850"/>
      <point x="662" y="843" type="qcurve"/>
      <point x="662" y="836"/>
      <point x="657" y="827" type="qcurve"/>
      <point x="260" y="104" type="line"/>
      <point x="254" y="93"/>
      <point x="254" y="86" type="qcurve"/>
      <point x="254" y="68"/>
      <point x="281" y="64" type="qcurve"/>
      <point x="308" y="60"/>
      <point x="402.5" y="60" type="qcurve"/>
      <point x="497" y="60"/>
      <point x="552.5" y="96" type="qcurve"/>
      <point x="608" y="132"/>
      <point x="672" y="285" type="qcurve"/>
      <point x="676" y="291"/>
      <point x="682.5" y="291" type="qcurve"/>
      <point x="689" y="291"/>
      <point x="701" y="287.5" type="qcurve"/>
      <point x="713" y="284"/>
    </contour>
  </outline>
</glyph>
<glyph name="paragraph" format="1">
  <advance width="997"/>
  <unicode hex="00B6"/>
  <outline>
    <contour>
      <point x="836" y="127" type="line"/>
      <point x="836" y="49"/>
      <point x="954" y="49" type="qcurve"/>
      <point x="968" y="49"/>
      <point x="968" y="25" type="qcurve"/>
      <point x="968" y="1"/>
      <point x="954" y="1" type="qcurve"/>
      <point x="371" y="1" type="line"/>
      <point x="357" y="1"/>
      <point x="357" y="25" type="qcurve"/>
      <point x="357" y="49"/>
      <point x="371" y="49" type="qcurve"/>
      <point x="487" y="49"/>
      <point x="487" y="125" type="qcurve"/>
      <point x="487" y="492.066" type="line"/>
      <point x="487" y="539.479"/>
      <point x="436.167" y="542.442" type="qcurve"/>
      <point x="217.109" y="555.211"/>
      <point x="116.555" y="659.105" type="qcurve"/>
      <point x="16" y="763"/>
      <point x="16" y="929" type="qcurve"/>
      <point x="16" y="1095"/>
      <point x="141.5" y="1185" type="qcurve"/>
      <point x="267" y="1275"/>
      <point x="453" y="1275" type="qcurve"/>
      <point x="954" y="1275" type="line"/>
      <point x="968" y="1275"/>
      <point x="968" y="1246.5" type="qcurve"/>
      <point x="968" y="1218"/>
      <point x="954" y="1218" type="qcurve"/>
      <point x="836" y="1218"/>
      <point x="836" y="1141" type="qcurve"/>
    </contour>
    <contour>
      <point x="743" y="125" type="qcurve"/>
      <point x="743" y="1141" type="line"/>
      <point x="743" y="1215"/>
      <point x="661.5" y="1215" type="qcurve"/>
      <point x="580" y="1215"/>
      <point x="580" y="1141" type="qcurve"/>
      <point x="580" y="127" type="line"/>
      <point x="580" y="49"/>
      <point x="661.5" y="49" type="qcurve"/>
      <point x="743" y="49"/>
    </contour>
  </outline>
</glyph>
<glyph name="tonos" format="1">
  <advance width="569"/>
  <unicode hex="0384"/>
  <outline>
    <contour>
      <point x="267" y="900" type="move" name="_above"/>
    </contour>
    <contour>
      <point x="254" y="1028" type="qcurve"/>
      <point x="240" y="1028"/>
      <point x="240" y="1049" type="qcurve"/>
      <point x="240" y="1056"/>
      <point x="242" y="1062" type="qcurve"/>
      <point x="354" y="1542" type="line"/>
      <point x="372" y="1619"/>
      <point x="401" y="1620" type="qcurve"/>
      <point x="424" y="1620"/>
      <point x="445.5" y="1588" type="qcurve"/>
      <point x="467" y="1556"/>
      <point x="467" y="1532" type="qcurve"/>
      <point x="467" y="1508"/>
      <point x="431" y="1400" type="qcurve"/>
      <point x="354" y="1170" type="line"/>
      <point x="306" y="1028"/>
    </contour>
  </outline>
</glyph>
<glyph name="dieresistonos" format="1">
  <advance width="797"/>
  <unicode hex="0385"/>
  <outline>
    <contour>
      <point x="288" y="1156" type="qcurve"/>
      <point x="288" y="1111"/>
      <point x="256.5" y="1079.5" type="qcurve"/>
      <point x="225" y="1048"/>
      <point x="180.5" y="1048" type="qcurve"/>
      <point x="136" y="1048"/>
      <point x="104.5" y="1079.5" type="qcurve"/>
      <point x="73" y="1111"/>
      <point x="73" y="1156" type="qcurve"/>
      <point x="73" y="1201"/>
      <point x="104.5" y="1232.5" type="qcurve"/>
      <point x="136" y="1264"/>
      <point x="180.5" y="1264" type="qcurve"/>
      <point x="225" y="1264"/>
      <point x="256.5" y="1232.5" type="qcurve"/>
      <point x="288" y="1201"/>
    </contour>
    <contour>
      <point x="754" y="1156" type="qcurve"/>
      <point x="754" y="1111"/>
      <point x="722.5" y="1079.5" type="qcurve"/>
      <point x="691" y="1048"/>
      <point x="646.5" y="1048" type="qcurve"/>
      <point x="602" y="1048"/>
      <point x="570.5" y="1079.5" type="qcurve"/>
      <point x="539" y="1111"/>
      <point x="539" y="1156" type="qcurve"/>
      <point x="539" y="1201"/>
      <point x="570.5" y="1232.5" type="qcurve"/>
      <point x="602" y="1264"/>
      <point x="646.5" y="1264" type="qcurve"/>
      <point x="691" y="1264"/>
      <point x="722.5" y="1232.5" type="qcurve"/>
      <point x="754" y="1201"/>
    </contour>
    <contour>
      <point x="384" y="1148" type="qcurve"/>
      <point x="370" y="1148"/>
      <point x="370" y="1168" type="qcurve"/>
      <point x="370" y="1174"/>
      <point x="372" y="1181" type="qcurve"/>
      <point x="447" y="1542" type="line"/>
      <point x="463" y="1619"/>
      <point x="494" y="1620" type="qcurve"/>
      <point x="517" y="1620"/>
      <point x="538.5" y="1588" type="qcurve"/>
      <point x="560" y="1556"/>
      <point x="560" y="1532" type="qcurve"/>
      <point x="560" y="1498"/>
      <point x="524" y="1400" type="qcurve"/>
      <point x="484" y="1290" type="line"/>
      <point x="432" y="1148"/>
    </contour>
  </outline>
</glyph>
<glyph name="Alphatonos" format="1">
  <advance width="1398"/>
  <unicode hex="0386"/>
  <outline>
    <contour>
      <point x="123.336" y="1028" type="qcurve"/>
      <point x="109.336" y="1028"/>
      <point x="109.336" y="1049" type="qcurve"/>
      <point x="109.336" y="1056"/>
      <point x="111.336" y="1062" type="qcurve"/>
      <point x="222.336" y="1542" type="line"/>
      <point x="240.336" y="1619"/>
      <point x="269.336" y="1620" type="qcurve"/>
      <point x="292.336" y="1620"/>
      <point x="313.836" y="1588" type="qcurve"/>
      <point x="335.336" y="1556"/>
      <point x="335.336" y="1532" type="qcurve"/>
      <point x="335.336" y="1508"/>
      <point x="299.336" y="1400" type="qcurve"/>
      <point x="223.336" y="1170" type="line"/>
      <point x="176.336" y="1028"/>
    </contour>
    <component base="Alpha" xOffset="3.3355"/>
  </outline>
</glyph>
<glyph name="Epsilontonos" format="1">
  <advance width="1550"/>
  <unicode hex="0388"/>
  <outline>
    <contour>
      <point x="120" y="1028" type="qcurve"/>
      <point x="106" y="1028"/>
      <point x="105" y="1049" type="qcurve"/>
      <point x="105" y="1056"/>
      <point x="107" y="1062" type="qcurve"/>
      <point x="218" y="1542" type="line"/>
      <point x="236" y="1619"/>
      <point x="266" y="1620" type="qcurve"/>
      <point x="289" y="1620"/>
      <point x="310.5" y="1588" type="qcurve"/>
      <point x="332" y="1556"/>
      <point x="332" y="1532" type="qcurve"/>
      <point x="332" y="1508"/>
      <point x="296" y="1400" type="qcurve"/>
      <point x="220" y="1170" type="line"/>
      <point x="174" y="1028"/>
    </contour>
    <component base="Epsilon" xOffset="314"/>
  </outline>
</glyph>
<glyph name="Omicrontonos" format="1">
  <advance width="1673"/>
  <unicode hex="038C"/>
  <outline>
    <contour>
      <point x="304" y="622" type="qcurve"/>
      <point x="304" y="845"/>
      <point x="480" y="1070" type="qcurve"/>
      <point x="656" y="1295"/>
      <point x="953" y="1295" type="qcurve"/>
      <point x="1219" y="1295"/>
      <point x="1407.5" y="1089.5" type="qcurve"/>
      <point x="1596" y="884"/>
      <point x="1596" y="618" type="qcurve"/>
      <point x="1596" y="362"/>
      <point x="1422" y="167.5" type="qcurve"/>
      <point x="1248" y="-27"/>
      <point x="948" y="-27" type="qcurve"/>
      <point x="658" y="-27"/>
      <point x="481" y="155.5" type="qcurve"/>
      <point x="304" y="338"/>
    </contour>
    <contour>
      <point x="495" y="681" type="qcurve"/>
      <point x="495" y="371"/>
      <point x="645" y="209.5" type="qcurve"/>
      <point x="795" y="48"/>
      <point x="962" y="48" type="qcurve"/>
      <point x="1174" y="48"/>
      <point x="1289.5" y="198.5" type="qcurve"/>
      <point x="1405" y="349"/>
      <point x="1405" y="602" type="qcurve"/>
      <point x="1405" y="841"/>
      <point x="1259.5" y="1032.5" type="qcurve"/>
      <point x="1114" y="1224"/>
      <point x="940" y="1224" type="qcurve"/>
      <point x="730" y="1224"/>
      <point x="612.5" y="1045.5" type="qcurve"/>
      <point x="495" y="867"/>
    </contour>
    <contour>
      <point x="120" y="1028" type="qcurve"/>
      <point x="106" y="1028"/>
      <point x="105" y="1049" type="qcurve"/>
      <point x="105" y="1056"/>
      <point x="107" y="1062" type="qcurve"/>
      <point x="218" y="1542" type="line"/>
      <point x="236" y="1619"/>
      <point x="266" y="1620" type="qcurve"/>
      <point x="289" y="1620"/>
      <point x="310.5" y="1588" type="qcurve"/>
      <point x="332" y="1556"/>
      <point x="332" y="1532" type="qcurve"/>
      <point x="332" y="1508"/>
      <point x="296" y="1400" type="qcurve"/>
      <point x="220" y="1170" type="line"/>
      <point x="174" y="1028"/>
    </contour>
  </outline>
</glyph>
<glyph name="Upsilontonos" format="1">
  <advance width="1581"/>
  <unicode hex="038E"/>
  <outline>
    <contour>
      <point x="102" y="1028" type="qcurve"/>
      <point x="88" y="1028"/>
      <point x="88" y="1049" type="qcurve"/>
      <point x="88" y="1056"/>
      <point x="89" y="1062" type="qcurve"/>
      <point x="201" y="1542" type="line"/>
      <point x="219" y="1619"/>
      <point x="248" y="1620" type="qcurve"/>
      <point x="271" y="1620"/>
      <point x="292.5" y="1588" type="qcurve"/>
      <point x="314" y="1556"/>
      <point x="314" y="1532" type="qcurve"/>
      <point x="314" y="1508"/>
      <point x="278" y="1400" type="qcurve"/>
      <point x="202" y="1170" type="line"/>
      <point x="155" y="1028"/>
    </contour>
    <component base="Upsilon" xOffset="300"/>
  </outline>
</glyph>
<glyph name="iotadieresistonos" format="1">
  <advance width="445"/>
  <unicode hex="0390"/>
  <outline>
    <contour>
      <point x="40" y="105" type="qcurve"/>
      <point x="40" y="153"/>
      <point x="64" y="237" type="qcurve"/>
      <point x="232" y="825" type="line"/>
      <point x="245" y="870"/>
      <point x="308" y="870" type="qcurve"/>
      <point x="353" y="870"/>
      <point x="369" y="850.5" type="qcurve"/>
      <point x="385" y="831"/>
      <point x="385" y="792" type="qcurve"/>
      <point x="385" y="742"/>
      <point x="286" y="543" type="qcurve"/>
      <point x="187" y="344"/>
      <point x="175" y="250" type="qcurve"/>
      <point x="204" y="262"/>
      <point x="250" y="262" type="qcurve"/>
      <point x="286" y="262"/>
      <point x="307" y="233" type="qcurve"/>
      <point x="328" y="204"/>
      <point x="328" y="172" type="qcurve"/>
      <point x="328" y="98"/>
      <point x="278" y="34.5" type="qcurve"/>
      <point x="228" y="-29"/>
      <point x="159" y="-29" type="qcurve"/>
      <point x="104" y="-29"/>
      <point x="72" y="2.5" type="qcurve"/>
      <point x="40" y="34"/>
    </contour>
    <contour>
      <point x="215" y="1156" type="qcurve"/>
      <point x="215" y="1111"/>
      <point x="183.5" y="1079.5" type="qcurve"/>
      <point x="152" y="1048"/>
      <point x="107" y="1048" type="qcurve"/>
      <point x="62" y="1048"/>
      <point x="30.5" y="1079.5" type="qcurve"/>
      <point x="-1" y="1111"/>
      <point x="-1" y="1156" type="qcurve"/>
      <point x="-1" y="1201"/>
      <point x="30.5" y="1232.5" type="qcurve"/>
      <point x="62" y="1264"/>
      <point x="107" y="1264" type="qcurve"/>
      <point x="152" y="1264"/>
      <point x="183.5" y="1232.5" type="qcurve"/>
      <point x="215" y="1201"/>
    </contour>
    <contour>
      <point x="681" y="1156" type="qcurve"/>
      <point x="681" y="1111"/>
      <point x="649.5" y="1079.5" type="qcurve"/>
      <point x="618" y="1048"/>
      <point x="573" y="1048" type="qcurve"/>
      <point x="528" y="1048"/>
      <point x="496.5" y="1079.5" type="qcurve"/>
      <point x="465" y="1111"/>
      <point x="465" y="1156" type="qcurve"/>
      <point x="465" y="1201"/>
      <point x="496.5" y="1232.5" type="qcurve"/>
      <point x="528" y="1264"/>
      <point x="573" y="1264" type="qcurve"/>
      <point x="618" y="1264"/>
      <point x="649.5" y="1232.5" type="qcurve"/>
      <point x="681" y="1201"/>
    </contour>
    <contour>
      <point x="311" y="1148" type="qcurve"/>
      <point x="297" y="1148"/>
      <point x="297" y="1168" type="qcurve"/>
      <point x="297" y="1174"/>
      <point x="298" y="1181" type="qcurve"/>
      <point x="374" y="1542" type="line"/>
      <point x="390" y="1619"/>
      <point x="421" y="1620" type="qcurve"/>
      <point x="444" y="1620"/>
      <point x="465.5" y="1588" type="qcurve"/>
      <point x="487" y="1556"/>
      <point x="487" y="1527" type="qcurve"/>
      <point x="487" y="1498"/>
      <point x="451" y="1400" type="qcurve"/>
      <point x="411" y="1290" type="line"/>
      <point x="359" y="1148"/>
    </contour>
  </outline>
</glyph>
<glyph name="Beta" format="1">
  <advance width="1270"/>
  <unicode hex="0392"/>
  <outline>
    <contour>
      <point x="271" y="186" type="qcurve"/>
      <point x="271" y="1095" type="line"/>
      <point x="271" y="1205"/>
      <point x="82" y="1205" type="qcurve"/>
      <point x="68" y="1205"/>
      <point x="68" y="1240" type="qcurve"/>
      <point x="68" y="1275"/>
      <point x="82" y="1275" type="qcurve"/>
      <point x="639" y="1275" type="line"/>
      <point x="812" y="1275"/>
      <point x="934" y="1197" type="qcurve"/>
      <point x="1056" y="1119"/>
      <point x="1056" y="968" type="qcurve"/>
      <point x="1056" y="794"/>
      <point x="860" y="703" type="qcurve"/>
      <point x="845" y="696"/>
      <point x="845" y="689.5" type="qcurve"/>
      <point x="845" y="683"/>
      <point x="860" y="678" type="qcurve"/>
      <point x="968" y="643"/>
      <point x="1058.5" y="551.5" type="qcurve"/>
      <point x="1149" y="460"/>
      <point x="1149" y="317" type="qcurve"/>
      <point x="1149" y="195"/>
      <point x="1049.5" y="97.5" type="qcurve"/>
      <point x="950" y="0"/>
      <point x="639" y="0" type="qcurve"/>
      <point x="91" y="0" type="line"/>
      <point x="78" y="0"/>
      <point x="78" y="34.5" type="qcurve"/>
      <point x="78" y="69"/>
      <point x="91" y="69" type="qcurve"/>
      <point x="271" y="69"/>
    </contour>
    <contour>
      <point x="431" y="745" type="line"/>
      <point x="431" y="709"/>
      <point x="510" y="709" type="qcurve"/>
      <point x="884" y="709"/>
      <point x="884" y="965" type="qcurve"/>
      <point x="884" y="1220"/>
      <point x="483" y="1220" type="qcurve"/>
      <point x="431" y="1220"/>
      <point x="431" y="1153" type="qcurve"/>
    </contour>
    <contour>
      <point x="431" y="277" type="line"/>
      <point x="431" y="57"/>
      <point x="625" y="57" type="qcurve"/>
      <point x="968" y="57"/>
      <point x="968" y="350" type="qcurve"/>
      <point x="968" y="479"/>
      <point x="865.5" y="563.5" type="qcurve"/>
      <point x="763" y="648"/>
      <point x="466" y="649" type="qcurve"/>
      <point x="431" y="649"/>
      <point x="431" y="619" type="qcurve"/>
    </contour>
  </outline>
</glyph>
<glyph name="Theta" format="1">
  <advance width="1461"/>
  <unicode hex="0398"/>
  <outline>
    <contour>
      <point x="91" y="622" type="qcurve"/>
      <point x="91" y="845"/>
      <point x="267" y="1070" type="qcurve"/>
      <point x="443" y="1295"/>
      <point x="740" y="1295" type="qcurve"/>
      <point x="1006" y="1295"/>
      <point x="1194.5" y="1089.5" type="qcurve"/>
      <point x="1383" y="884"/>
      <point x="1383" y="618" type="qcurve"/>
      <point x="1383" y="362"/>
      <point x="1209" y="167.5" type="qcurve"/>
      <point x="1035" y="-27"/>
      <point x="735" y="-27" type="qcurve"/>
      <point x="445" y="-27"/>
      <point x="268" y="155.5" type="qcurve"/>
      <point x="91" y="338"/>
    </contour>
    <contour>
      <point x="282" y="681" type="qcurve"/>
      <point x="282" y="371"/>
      <point x="432" y="209.5" type="qcurve"/>
      <point x="582" y="48"/>
      <point x="749" y="48" type="qcurve"/>
      <point x="961" y="48"/>
      <point x="1076.5" y="198.5" type="qcurve"/>
      <point x="1192" y="349"/>
      <point x="1192" y="602" type="qcurve"/>
      <point x="1192" y="841"/>
      <point x="1046.5" y="1032.5" type="qcurve"/>
      <point x="901" y="1224"/>
      <point x="727" y="1224" type="qcurve"/>
      <point x="517" y="1224"/>
      <point x="399.5" y="1045.5" type="qcurve"/>
      <point x="282" y="867"/>
    </contour>
    <contour>
      <point x="609" y="570" type="line"/>
      <point x="492" y="570"/>
      <point x="465" y="455" type="qcurve"/>
      <point x="462" y="443"/>
      <point x="425.5" y="443" type="qcurve"/>
      <point x="389" y="443"/>
      <point x="389" y="451.5" type="qcurve"/>
      <point x="389" y="460"/>
      <point x="400.5" y="493" type="qcurve"/>
      <point x="412" y="526"/>
      <point x="443" y="657" type="qcurve"/>
      <point x="474" y="788"/>
      <point x="474" y="830" type="qcurve"/>
      <point x="474" y="843"/>
      <point x="512" y="843" type="qcurve"/>
      <point x="550" y="843"/>
      <point x="550" y="834" type="qcurve"/>
      <point x="550" y="825"/>
      <point x="547.5" y="813.5" type="qcurve"/>
      <point x="545" y="802"/>
      <point x="545" y="780.5" type="qcurve"/>
      <point x="545" y="759"/>
      <point x="564" y="736.5" type="qcurve"/>
      <point x="583" y="714"/>
      <point x="640" y="714" type="qcurve"/>
      <point x="842" y="715" type="line"/>
      <point x="959" y="716"/>
      <point x="986" y="830" type="qcurve"/>
      <point x="989" y="842"/>
      <point x="1025.5" y="842" type="qcurve"/>
      <point x="1062" y="842"/>
      <point x="1062" y="833.5" type="qcurve"/>
      <point x="1062" y="825"/>
      <point x="1050.5" y="790" type="qcurve"/>
      <point x="1039" y="755"/>
      <point x="1008" y="626.5" type="qcurve"/>
      <point x="977" y="498"/>
      <point x="977" y="455" type="qcurve"/>
      <point x="977" y="442"/>
      <point x="939" y="442" type="qcurve"/>
      <point x="901" y="442"/>
      <point x="901" y="451.5" type="qcurve"/>
      <point x="901" y="461"/>
      <point x="903.5" y="474.5" type="qcurve"/>
      <point x="906" y="488"/>
      <point x="906" y="506.5" type="qcurve"/>
      <point x="906" y="525"/>
      <point x="886.5" y="547.5" type="qcurve"/>
      <point x="867" y="570"/>
      <point x="811" y="570" type="qcurve"/>
    </contour>
  </outline>
</glyph>
<glyph name="Iota" format="1">
  <advance width="683"/>
  <unicode hex="0399"/>
  <outline>
    <contour>
      <point x="354" y="1415" type="move" name="above"/>
    </contour>
    <contour>
      <point x="271" y="186" type="qcurve"/>
      <point x="271" y="1089" type="line"/>
      <point x="271" y="1204"/>
      <point x="82" y="1204" type="qcurve"/>
      <point x="68" y="1204"/>
      <point x="68" y="1239.5" type="qcurve"/>
      <point x="68" y="1275"/>
      <point x="82" y="1275" type="qcurve"/>
      <point x="611" y="1275" type="line"/>
      <point x="624" y="1275"/>
      <point x="624" y="1239.5" type="qcurve"/>
      <point x="624" y="1204"/>
      <point x="611" y="1204" type="qcurve"/>
      <point x="431" y="1204"/>
      <point x="431" y="1089" type="qcurve"/>
      <point x="431" y="186" type="line"/>
      <point x="431" y="69"/>
      <point x="611" y="69" type="qcurve"/>
      <point x="624" y="69"/>
      <point x="624" y="34.5" type="qcurve"/>
      <point x="624" y="0"/>
      <point x="611" y="0" type="qcurve"/>
      <point x="93" y="0" type="line"/>
      <point x="80" y="0"/>
      <point x="80" y="34.5" type="qcurve"/>
      <point x="80" y="69"/>
      <point x="93" y="69" type="qcurve"/>
      <point x="271" y="69"/>
    </contour>
  </outline>
</glyph>
<glyph name="Xi" format="1">
  <advance width="1310"/>
  <unicode hex="039E"/>
  <outline>
    <contour>
      <point x="226" y="1018" type="line"/>
      <point x="137" y="1018"/>
      <point x="82" y="902" type="qcurve"/>
      <point x="79" y="890"/>
      <point x="42.5" y="890" type="qcurve"/>
      <point x="6" y="890"/>
      <point x="6" y="899" type="qcurve"/>
      <point x="6" y="908"/>
      <point x="34" y="967" type="qcurve"/>
      <point x="62" y="1026"/>
      <point x="92.5" y="1113" type="qcurve"/>
      <point x="123" y="1200"/>
      <point x="137" y="1298" type="qcurve"/>
      <point x="137" y="1310"/>
      <point x="175" y="1310" type="qcurve"/>
      <point x="213" y="1310"/>
      <point x="213" y="1302" type="qcurve"/>
      <point x="213" y="1292"/>
      <point x="210.5" y="1281" type="qcurve"/>
      <point x="208" y="1270"/>
      <point x="208" y="1248" type="qcurve"/>
      <point x="208" y="1226"/>
      <point x="227" y="1204" type="qcurve"/>
      <point x="246" y="1182"/>
      <point x="303" y="1182" type="qcurve"/>
      <point x="960" y="1182" type="line"/>
      <point x="1077" y="1184"/>
      <point x="1104" y="1298" type="qcurve"/>
      <point x="1107" y="1310"/>
      <point x="1143.5" y="1310" type="qcurve"/>
      <point x="1180" y="1310"/>
      <point x="1180" y="1301" type="qcurve"/>
      <point x="1180" y="1292"/>
      <point x="1168" y="1257" type="qcurve"/>
      <point x="1156" y="1222"/>
      <point x="1122.5" y="1084" type="qcurve"/>
      <point x="1089" y="946"/>
      <point x="1089" y="902" type="qcurve"/>
      <point x="1089" y="890"/>
      <point x="1051" y="890" type="qcurve"/>
      <point x="1013" y="890"/>
      <point x="1013" y="899" type="qcurve"/>
      <point x="1013" y="908"/>
      <point x="1015.5" y="922" type="qcurve"/>
      <point x="1018" y="936"/>
      <point x="1018" y="954" type="qcurve"/>
      <point x="1018" y="972"/>
      <point x="998.5" y="995" type="qcurve"/>
      <point x="979" y="1018"/>
      <point x="923" y="1018" type="qcurve"/>
    </contour>
    <contour>
      <point x="300" y="14" type="line"/>
      <point x="213" y="14"/>
      <point x="156" y="-102" type="qcurve"/>
      <point x="153" y="-114"/>
      <point x="116.5" y="-114" type="qcurve"/>
      <point x="80" y="-114"/>
      <point x="80" y="-105" type="qcurve"/>
      <point x="80" y="-96"/>
      <point x="111" y="-41" type="qcurve"/>
      <point x="142" y="14"/>
      <point x="176.5" y="133" type="qcurve"/>
      <point x="211" y="252"/>
      <point x="211" y="294" type="qcurve"/>
      <point x="211" y="306"/>
      <point x="249" y="306" type="qcurve"/>
      <point x="287" y="306"/>
      <point x="287" y="298" type="qcurve"/>
      <point x="287" y="288"/>
      <point x="284.5" y="277" type="qcurve"/>
      <point x="282" y="266"/>
      <point x="282" y="244" type="qcurve"/>
      <point x="282" y="222"/>
      <point x="301" y="200" type="qcurve"/>
      <point x="320" y="178"/>
      <point x="377" y="178" type="qcurve"/>
      <point x="1064" y="178" type="line"/>
      <point x="1181" y="180"/>
      <point x="1208" y="294" type="qcurve"/>
      <point x="1211" y="306"/>
      <point x="1247.5" y="306" type="qcurve"/>
      <point x="1284" y="306"/>
      <point x="1284" y="297" type="qcurve"/>
      <point x="1284" y="288"/>
      <point x="1272" y="253" type="qcurve"/>
      <point x="1260" y="218"/>
      <point x="1226.5" y="80" type="qcurve"/>
      <point x="1193" y="-58"/>
      <point x="1193" y="-102" type="qcurve"/>
      <point x="1193" y="-114"/>
      <point x="1155" y="-114" type="qcurve"/>
      <point x="1117" y="-114"/>
      <point x="1117" y="-105" type="qcurve"/>
      <point x="1117" y="-96"/>
      <point x="1119.5" y="-82" type="qcurve"/>
      <point x="1122" y="-68"/>
      <point x="1122" y="-50" type="qcurve"/>
      <point x="1122" y="-32"/>
      <point x="1102.5" y="-9" type="qcurve"/>
      <point x="1083" y="14"/>
      <point x="1027" y="14" type="qcurve"/>
    </contour>
    <contour>
      <point x="462" y="499" type="line"/>
      <point x="375" y="499"/>
      <point x="318" y="384" type="qcurve"/>
      <point x="315" y="372"/>
      <point x="278.5" y="372" type="qcurve"/>
      <point x="242" y="372"/>
      <point x="242" y="380.5" type="qcurve"/>
      <point x="242" y="389"/>
      <point x="260.5" y="424.5" type="qcurve"/>
      <point x="279" y="460"/>
      <point x="326" y="598.5" type="qcurve"/>
      <point x="373" y="737"/>
      <point x="373" y="779" type="qcurve"/>
      <point x="373" y="792"/>
      <point x="411" y="792" type="qcurve"/>
      <point x="449" y="792"/>
      <point x="449" y="783" type="qcurve"/>
      <point x="449" y="774"/>
      <point x="446.5" y="762.5" type="qcurve"/>
      <point x="444" y="751"/>
      <point x="444" y="729.5" type="qcurve"/>
      <point x="444" y="708"/>
      <point x="463" y="685.5" type="qcurve"/>
      <point x="482" y="663"/>
      <point x="539" y="663" type="qcurve"/>
      <point x="829" y="664" type="line"/>
      <point x="946" y="665"/>
      <point x="973" y="779" type="qcurve"/>
      <point x="976" y="791"/>
      <point x="1012.5" y="791" type="qcurve"/>
      <point x="1049" y="791"/>
      <point x="1049" y="782.5" type="qcurve"/>
      <point x="1049" y="774"/>
      <point x="1037.5" y="739" type="qcurve"/>
      <point x="1026" y="704"/>
      <point x="992" y="565.5" type="qcurve"/>
      <point x="958" y="427"/>
      <point x="958" y="384" type="qcurve"/>
      <point x="958" y="371"/>
      <point x="920" y="371" type="qcurve"/>
      <point x="882" y="371"/>
      <point x="882" y="380.5" type="qcurve"/>
      <point x="882" y="390"/>
      <point x="884.5" y="403.5" type="qcurve"/>
      <point x="887" y="417"/>
      <point x="887" y="435.5" type="qcurve"/>
      <point x="887" y="454"/>
      <point x="867.5" y="476.5" type="qcurve"/>
      <point x="848" y="499"/>
      <point x="792" y="499" type="qcurve"/>
    </contour>
  </outline>
</glyph>
<glyph name="Omicron" format="1">
  <advance width="1461"/>
  <unicode hex="039F"/>
  <outline>
    <contour>
      <point x="718" y="1415" type="move" name="above"/>
    </contour>
    <contour>
      <point x="91" y="622" type="qcurve"/>
      <point x="91" y="845"/>
      <point x="267" y="1070" type="qcurve"/>
      <point x="443" y="1295"/>
      <point x="740" y="1295" type="qcurve"/>
      <point x="1006" y="1295"/>
      <point x="1194.5" y="1089.5" type="qcurve"/>
      <point x="1383" y="884"/>
      <point x="1383" y="618" type="qcurve"/>
      <point x="1383" y="362"/>
      <point x="1209" y="167.5" type="qcurve"/>
      <point x="1035" y="-27"/>
      <point x="735" y="-27" type="qcurve"/>
      <point x="445" y="-27"/>
      <point x="268" y="155.5" type="qcurve"/>
      <point x="91" y="338"/>
    </contour>
    <contour>
      <point x="282" y="681" type="qcurve"/>
      <point x="282" y="371"/>
      <point x="432" y="209.5" type="qcurve"/>
      <point x="582" y="48"/>
      <point x="749" y="48" type="qcurve"/>
      <point x="961" y="48"/>
      <point x="1076.5" y="198.5" type="qcurve"/>
      <point x="1192" y="349"/>
      <point x="1192" y="602" type="qcurve"/>
      <point x="1192" y="841"/>
      <point x="1046.5" y="1032.5" type="qcurve"/>
      <point x="901" y="1224"/>
      <point x="727" y="1224" type="qcurve"/>
      <point x="517" y="1224"/>
      <point x="399.5" y="1045.5" type="qcurve"/>
      <point x="282" y="867"/>
    </contour>
  </outline>
</glyph>
<glyph name="Pi" format="1">
  <advance width="1520"/>
  <unicode hex="03A0"/>
  <outline>
    <contour>
      <point x="1265" y="186" type="line"/>
      <point x="1265" y="69"/>
      <point x="1446" y="69" type="qcurve"/>
      <point x="1461" y="69"/>
      <point x="1461" y="34.5" type="qcurve"/>
      <point x="1461" y="0"/>
      <point x="1446" y="0" type="qcurve"/>
      <point x="928" y="0" type="line"/>
      <point x="914" y="0"/>
      <point x="914" y="34.5" type="qcurve"/>
      <point x="914" y="69"/>
      <point x="928" y="69" type="qcurve"/>
      <point x="1105" y="69"/>
      <point x="1105" y="186" type="qcurve"/>
      <point x="1105" y="1089" type="line"/>
      <point x="1105" y="1164"/>
      <point x="1059" y="1184" type="qcurve"/>
      <point x="1013" y="1204"/>
      <point x="916" y="1204" type="qcurve"/>
      <point x="611" y="1204" type="line"/>
      <point x="502" y="1204"/>
      <point x="466.5" y="1179.5" type="qcurve"/>
      <point x="431" y="1155"/>
      <point x="431" y="1089" type="qcurve"/>
      <point x="431" y="186" type="line"/>
      <point x="431" y="69"/>
      <point x="611" y="69" type="qcurve"/>
      <point x="625" y="69"/>
      <point x="625" y="34.5" type="qcurve"/>
      <point x="625" y="0"/>
      <point x="611" y="0" type="qcurve"/>
      <point x="93" y="0" type="line"/>
      <point x="80" y="0"/>
      <point x="80" y="34.5" type="qcurve"/>
      <point x="80" y="69"/>
      <point x="93" y="69" type="qcurve"/>
      <point x="271" y="69"/>
      <point x="271" y="186" type="qcurve"/>
      <point x="271" y="1089" type="line"/>
      <point x="271" y="1163"/>
      <point x="223.5" y="1183.5" type="qcurve"/>
      <point x="176" y="1204"/>
      <point x="82" y="1204" type="qcurve"/>
      <point x="69" y="1204"/>
      <point x="69" y="1239.5" type="qcurve"/>
      <point x="69" y="1275"/>
      <point x="82" y="1275" type="qcurve"/>
      <point x="1446" y="1275" type="line"/>
      <point x="1461" y="1275"/>
      <point x="1461" y="1239.5" type="qcurve"/>
      <point x="1461" y="1204"/>
      <point x="1446" y="1204" type="qcurve"/>
      <point x="1335" y="1204"/>
      <point x="1300" y="1176" type="qcurve"/>
      <point x="1265" y="1148"/>
      <point x="1265" y="1089" type="qcurve"/>
    </contour>
  </outline>
</glyph>
<glyph name="Phi" format="1">
  <advance width="1529"/>
  <unicode hex="03A6"/>
  <outline>
    <contour>
      <point x="71" y="632" type="qcurve"/>
      <point x="71" y="815"/>
      <point x="240.5" y="952" type="qcurve"/>
      <point x="410" y="1089"/>
      <point x="706" y="1089" type="qcurve"/>
      <point x="706" y="1204"/>
      <point x="517" y="1204" type="qcurve"/>
      <point x="504" y="1204"/>
      <point x="504" y="1239.5" type="qcurve"/>
      <point x="504" y="1275"/>
      <point x="517" y="1275" type="qcurve"/>
      <point x="1046" y="1275" type="line"/>
      <point x="1059" y="1275"/>
      <point x="1059" y="1239.5" type="qcurve"/>
      <point x="1059" y="1204"/>
      <point x="1046" y="1204" type="qcurve"/>
      <point x="938" y="1204"/>
      <point x="903" y="1181" type="qcurve"/>
      <point x="866" y="1155"/>
      <point x="866" y="1089" type="qcurve"/>
      <point x="1169" y="1071"/>
      <point x="1316" y="948.5" type="qcurve"/>
      <point x="1463" y="826"/>
      <point x="1463" y="629" type="qcurve"/>
      <point x="1463" y="454"/>
      <point x="1329" y="318.5" type="qcurve"/>
      <point x="1195" y="183"/>
      <point x="866" y="169" type="qcurve"/>
      <point x="866" y="69"/>
      <point x="1046" y="69" type="qcurve"/>
      <point x="1059" y="69"/>
      <point x="1059" y="34.5" type="qcurve"/>
      <point x="1059" y="0"/>
      <point x="1046" y="0" type="qcurve"/>
      <point x="528" y="0" type="line"/>
      <point x="514" y="0"/>
      <point x="514" y="34" type="qcurve"/>
      <point x="514" y="68"/>
      <point x="528" y="69" type="qcurve"/>
      <point x="706" y="69"/>
      <point x="706" y="167" type="qcurve"/>
      <point x="485" y="177"/>
      <point x="356.5" y="231" type="qcurve"/>
      <point x="228" y="285"/>
      <point x="149.5" y="381" type="qcurve"/>
      <point x="71" y="477"/>
    </contour>
    <contour>
      <point x="866" y="243" type="line"/>
      <point x="1075" y="257"/>
      <point x="1173.5" y="384.5" type="qcurve"/>
      <point x="1272" y="512"/>
      <point x="1272" y="620" type="qcurve"/>
      <point x="1272" y="746"/>
      <point x="1142.5" y="875.5" type="qcurve"/>
      <point x="1013" y="1005"/>
      <point x="866" y="1018" type="qcurve"/>
    </contour>
    <contour>
      <point x="282" y="667" type="qcurve"/>
      <point x="282" y="521"/>
      <point x="401.5" y="382" type="qcurve"/>
      <point x="521" y="243"/>
      <point x="706" y="243" type="qcurve"/>
      <point x="706" y="1021" type="line"/>
      <point x="527" y="1010"/>
      <point x="449.5" y="952.5" type="qcurve"/>
      <point x="372" y="895"/>
      <point x="327" y="824.5" type="qcurve"/>
      <point x="282" y="754"/>
    </contour>
  </outline>
</glyph>
<glyph name="Psi" format="1">
  <advance width="1574"/>
  <unicode hex="03A8"/>
  <outline>
    <contour>
      <point x="978" y="0" type="qcurve"/>
      <point x="460" y="0" type="line"/>
      <point x="447" y="0"/>
      <point x="447" y="34.5" type="qcurve"/>
      <point x="447" y="69"/>
      <point x="460" y="69" type="qcurve"/>
      <point x="638" y="69"/>
      <point x="638" y="186" type="qcurve"/>
      <point x="638" y="402" type="line"/>
      <point x="522" y="402"/>
      <point x="456" y="419" type="qcurve"/>
      <point x="390" y="436"/>
      <point x="305.5" y="483" type="qcurve"/>
      <point x="221" y="530"/>
      <point x="186.5" y="604.5" type="qcurve"/>
      <point x="152" y="679"/>
      <point x="152" y="807" type="qcurve"/>
      <point x="152" y="1127" type="line"/>
      <point x="152" y="1170"/>
      <point x="121.5" y="1197" type="qcurve"/>
      <point x="91" y="1224"/>
      <point x="65" y="1224" type="qcurve"/>
      <point x="39" y="1224"/>
      <point x="25" y="1219" type="qcurve"/>
      <point x="11" y="1214"/>
      <point x="3" y="1214" type="qcurve"/>
      <point x="-5" y="1214"/>
      <point x="-12" y="1231" type="qcurve"/>
      <point x="-19" y="1248"/>
      <point x="-19" y="1262" type="qcurve"/>
      <point x="-19" y="1276"/>
      <point x="-7" y="1281" type="qcurve"/>
      <point x="38" y="1299"/>
      <point x="95" y="1299" type="qcurve"/>
      <point x="191" y="1299"/>
      <point x="251.5" y="1251" type="qcurve"/>
      <point x="312" y="1203"/>
      <point x="312" y="1105" type="qcurve"/>
      <point x="312" y="807" type="line"/>
      <point x="312" y="668"/>
      <point x="411.5" y="584" type="qcurve"/>
      <point x="511" y="500"/>
      <point x="638" y="484" type="qcurve"/>
      <point x="638" y="1089" type="line"/>
      <point x="638" y="1204"/>
      <point x="449" y="1204" type="qcurve"/>
      <point x="435" y="1204"/>
      <point x="435" y="1239.5" type="qcurve"/>
      <point x="435" y="1275"/>
      <point x="449" y="1275" type="qcurve"/>
      <point x="978" y="1275" type="line"/>
      <point x="991" y="1275"/>
      <point x="991" y="1239.5" type="qcurve"/>
      <point x="991" y="1204"/>
      <point x="978" y="1204" type="qcurve"/>
      <point x="798" y="1204"/>
      <point x="798" y="1089" type="qcurve"/>
      <point x="798" y="484" type="line"/>
      <point x="958" y="500"/>
      <point x="1052" y="578" type="qcurve"/>
      <point x="1146" y="656"/>
      <point x="1146" y="807" type="qcurve"/>
      <point x="1146" y="1105" type="line"/>
      <point x="1146" y="1203"/>
      <point x="1205.5" y="1251" type="qcurve"/>
      <point x="1265" y="1299"/>
      <point x="1359" y="1299" type="qcurve"/>
      <point x="1417" y="1299"/>
      <point x="1461" y="1281" type="qcurve"/>
      <point x="1472" y="1276"/>
      <point x="1472" y="1258.5" type="qcurve"/>
      <point x="1472" y="1241"/>
      <point x="1465.5" y="1227.5" type="qcurve"/>
      <point x="1459" y="1214"/>
      <point x="1451.5" y="1214" type="qcurve"/>
      <point x="1444" y="1214"/>
      <point x="1432" y="1219" type="qcurve"/>
      <point x="1420" y="1224"/>
      <point x="1391" y="1224" type="qcurve"/>
      <point x="1362" y="1224"/>
      <point x="1332" y="1196" type="qcurve"/>
      <point x="1302" y="1168"/>
      <point x="1302" y="1127" type="qcurve"/>
      <point x="1302" y="807" type="line"/>
      <point x="1302" y="684"/>
      <point x="1253.5" y="608" type="qcurve"/>
      <point x="1205" y="532"/>
      <point x="1154" y="498.5" type="qcurve"/>
      <point x="1103" y="465"/>
      <point x="1017.5" y="433.5" type="qcurve"/>
      <point x="932" y="402"/>
      <point x="798" y="402" type="qcurve"/>
      <point x="798" y="186" type="line"/>
      <point x="798" y="69"/>
      <point x="978" y="69" type="qcurve"/>
      <point x="991" y="69"/>
      <point x="991" y="34.5" type="qcurve"/>
      <point x="991" y="0"/>
    </contour>
  </outline>
</glyph>
<glyph name="Omega" format="1">
  <advance width="1585"/>
  <unicode hex="03A9"/>
  <outline>
    <contour>
      <point x="812" y="1415" type="move" name="above"/>
    </contour>
    <contour>
      <point x="797" y="1305" type="qcurve"/>
      <point x="1068" y="1305"/>
      <point x="1244.5" y="1157.5" type="qcurve"/>
      <point x="1421" y="1010"/>
      <point x="1421" y="825" type="qcurve"/>
      <point x="1421" y="701"/>
      <point x="1352.5" y="537" type="qcurve"/>
      <point x="1284" y="373"/>
      <point x="1214" y="267.5" type="qcurve"/>
      <point x="1144" y="162"/>
      <point x="1069" y="62" type="qcurve"/>
      <point x="1217" y="69" type="line"/>
      <point x="1280" y="74"/>
      <point x="1337" y="89" type="qcurve"/>
      <point x="1394" y="104"/>
      <point x="1415.5" y="140" type="qcurve"/>
      <point x="1437" y="176"/>
      <point x="1437" y="250" type="qcurve"/>
      <point x="1437" y="267"/>
      <point x="1474.5" y="267" type="qcurve"/>
      <point x="1512" y="267"/>
      <point x="1512" y="250" type="qcurve"/>
      <point x="1512" y="23" type="line"/>
      <point x="1512" y="-6"/>
      <point x="1489" y="-6" type="qcurve"/>
      <point x="1335" y="0"/>
      <point x="1242" y="0" type="qcurve"/>
      <point x="1098" y="0"/>
      <point x="954" y="0" type="qcurve"/>
      <point x="939" y="0"/>
      <point x="939" y="22" type="qcurve"/>
      <point x="939" y="44"/>
      <point x="958" y="57" type="qcurve"/>
      <point x="1032" y="168"/>
      <point x="1126" y="338" type="qcurve"/>
      <point x="1220" y="508"/>
      <point x="1220" y="710" type="qcurve"/>
      <point x="1220" y="940"/>
      <point x="1094.5" y="1077" type="qcurve"/>
      <point x="969" y="1214"/>
      <point x="793" y="1214" type="qcurve"/>
      <point x="617" y="1214"/>
      <point x="491" y="1077" type="qcurve"/>
      <point x="365" y="940"/>
      <point x="365" y="710" type="qcurve"/>
      <point x="365" y="508"/>
      <point x="459" y="338" type="qcurve"/>
      <point x="553" y="168"/>
      <point x="627" y="57" type="qcurve"/>
      <point x="646" y="44"/>
      <point x="646" y="22" type="qcurve"/>
      <point x="646" y="0"/>
      <point x="631" y="0" type="qcurve"/>
      <point x="487" y="0"/>
      <point x="343" y="0" type="qcurve"/>
      <point x="250" y="0"/>
      <point x="96" y="-6" type="qcurve"/>
      <point x="73" y="-6"/>
      <point x="73" y="23" type="qcurve"/>
      <point x="73" y="250" type="line"/>
      <point x="73" y="267"/>
      <point x="110.5" y="267" type="qcurve"/>
      <point x="148" y="267"/>
      <point x="148" y="250" type="qcurve"/>
      <point x="148" y="176"/>
      <point x="169.5" y="142" type="qcurve"/>
      <point x="191" y="108"/>
      <point x="248" y="91" type="qcurve"/>
      <point x="305" y="74"/>
      <point x="368" y="69" type="qcurve"/>
      <point x="516" y="62" type="line"/>
      <point x="441" y="162"/>
      <point x="371" y="267.5" type="qcurve"/>
      <point x="301" y="373"/>
      <point x="232.5" y="537" type="qcurve"/>
      <point x="164" y="701"/>
      <point x="164" y="825" type="qcurve"/>
      <point x="164" y="1010"/>
      <point x="345" y="1157.5" type="qcurve"/>
      <point x="526" y="1305"/>
    </contour>
  </outline>
</glyph>
<glyph name="Iotadieresis" format="1">
  <advance width="683"/>
  <unicode hex="03AA"/>
  <outline>
    <contour>
      <point x="271" y="186" type="qcurve"/>
      <point x="271" y="1089" type="line"/>
      <point x="271" y="1204"/>
      <point x="82" y="1204" type="qcurve"/>
      <point x="68" y="1204"/>
      <point x="68" y="1239.5" type="qcurve"/>
      <point x="68" y="1275"/>
      <point x="82" y="1275" type="qcurve"/>
      <point x="611" y="1275" type="line"/>
      <point x="624" y="1275"/>
      <point x="624" y="1239.5" type="qcurve"/>
      <point x="624" y="1204"/>
      <point x="611" y="1204" type="qcurve"/>
      <point x="431" y="1204"/>
      <point x="431" y="1089" type="qcurve"/>
      <point x="431" y="186" type="line"/>
      <point x="431" y="69"/>
      <point x="611" y="69" type="qcurve"/>
      <point x="624" y="69"/>
      <point x="624" y="34.5" type="qcurve"/>
      <point x="624" y="0"/>
      <point x="611" y="0" type="qcurve"/>
      <point x="93" y="0" type="line"/>
      <point x="80" y="0"/>
      <point x="80" y="34.5" type="qcurve"/>
      <point x="80" y="69"/>
      <point x="93" y="69" type="qcurve"/>
      <point x="271" y="69"/>
    </contour>
    <contour>
      <point x="236" y="1658" type="qcurve"/>
      <point x="236" y="1614"/>
      <point x="204.5" y="1582.5" type="qcurve"/>
      <point x="173" y="1551"/>
      <point x="129" y="1551" type="qcurve"/>
      <point x="85" y="1551"/>
      <point x="53.5" y="1582.5" type="qcurve"/>
      <point x="22" y="1614"/>
      <point x="22" y="1658" type="qcurve"/>
      <point x="22" y="1702"/>
      <point x="53.5" y="1733" type="qcurve"/>
      <point x="85" y="1764"/>
      <point x="129" y="1764" type="qcurve"/>
      <point x="173" y="1764"/>
      <point x="204.5" y="1733" type="qcurve"/>
      <point x="236" y="1702"/>
    </contour>
    <contour>
      <point x="678" y="1658" type="qcurve"/>
      <point x="678" y="1614"/>
      <point x="646.5" y="1582.5" type="qcurve"/>
      <point x="615" y="1551"/>
      <point x="571" y="1551" type="qcurve"/>
      <point x="527" y="1551"/>
      <point x="495.5" y="1582.5" type="qcurve"/>
      <point x="464" y="1614"/>
      <point x="464" y="1658" type="qcurve"/>
      <point x="464" y="1702"/>
      <point x="495.5" y="1733" type="qcurve"/>
      <point x="527" y="1764"/>
      <point x="571" y="1764" type="qcurve"/>
      <point x="615" y="1764"/>
      <point x="646.5" y="1733" type="qcurve"/>
      <point x="678" y="1702"/>
    </contour>
  </outline>
</glyph>
<glyph name="epsilontonos" format="1">
  <advance width="612"/>
  <unicode hex="03AD"/>
  <outline>
    <contour>
      <point x="253" y="-23" type="qcurve"/>
      <point x="163" y="-23"/>
      <point x="106.5" y="25" type="qcurve"/>
      <point x="50" y="73"/>
      <point x="50" y="146" type="qcurve"/>
      <point x="50" y="219"/>
      <point x="87.5" y="287.5" type="qcurve"/>
      <point x="125" y="356"/>
      <point x="168" y="389" type="qcurve"/>
      <point x="146" y="402"/>
      <point x="118.5" y="448" type="qcurve"/>
      <point x="91" y="494"/>
      <point x="91" y="547.5" type="qcurve"/>
      <point x="91" y="601"/>
      <point x="134.5" y="674" type="qcurve"/>
      <point x="178" y="747"/>
      <point x="246.5" y="808.5" type="qcurve"/>
      <point x="315" y="870"/>
      <point x="416" y="870" type="qcurve"/>
      <point x="466" y="870"/>
      <point x="509" y="849" type="qcurve"/>
      <point x="552" y="828"/>
      <point x="552" y="790" type="qcurve"/>
      <point x="552" y="752"/>
      <point x="504.5" y="734.5" type="qcurve"/>
      <point x="457" y="717"/>
      <point x="397" y="717" type="qcurve"/>
      <point x="296" y="717"/>
      <point x="227" y="659" type="qcurve"/>
      <point x="158" y="601"/>
      <point x="158" y="530" type="qcurve"/>
      <point x="158" y="490"/>
      <point x="172.5" y="462" type="qcurve"/>
      <point x="187" y="434"/>
      <point x="209" y="422" type="qcurve"/>
      <point x="259" y="456"/>
      <point x="310.5" y="491" type="qcurve"/>
      <point x="362" y="526"/>
      <point x="411" y="526" type="qcurve"/>
      <point x="460" y="526"/>
      <point x="478" y="507.5" type="qcurve"/>
      <point x="496" y="489"/>
      <point x="496" y="462" type="qcurve"/>
      <point x="496" y="418"/>
      <point x="447.5" y="382" type="qcurve"/>
      <point x="399" y="346"/>
      <point x="299" y="346" type="qcurve"/>
      <point x="257" y="346"/>
      <point x="222" y="359" type="qcurve"/>
      <point x="177" y="316"/>
      <point x="163" y="280.5" type="qcurve"/>
      <point x="149" y="245"/>
      <point x="149" y="217" type="qcurve"/>
      <point x="149" y="181"/>
      <point x="173" y="156.5" type="qcurve"/>
      <point x="197" y="132"/>
      <point x="257.5" y="132" type="qcurve"/>
      <point x="318" y="132"/>
      <point x="368" y="153" type="qcurve"/>
      <point x="418" y="174"/>
      <point x="441.5" y="200" type="qcurve"/>
      <point x="465" y="226"/>
      <point x="500" y="226" type="qcurve"/>
      <point x="521" y="226"/>
      <point x="533" y="216.5" type="qcurve"/>
      <point x="545" y="207"/>
      <point x="545" y="189" type="qcurve"/>
      <point x="545" y="161"/>
      <point x="497.5" y="101" type="qcurve"/>
      <point x="450" y="41"/>
      <point x="387" y="9" type="qcurve"/>
      <point x="324" y="-23"/>
    </contour>
    <contour>
      <point x="290" y="1028" type="qcurve"/>
      <point x="276" y="1028"/>
      <point x="276" y="1049" type="qcurve"/>
      <point x="276" y="1056"/>
      <point x="278" y="1062" type="qcurve"/>
      <point x="389" y="1542" type="line"/>
      <point x="407" y="1619"/>
      <point x="436" y="1620" type="qcurve"/>
      <point x="459" y="1620"/>
      <point x="481" y="1588" type="qcurve"/>
      <point x="503" y="1556"/>
      <point x="503" y="1532" type="qcurve"/>
      <point x="503" y="1508"/>
      <point x="467" y="1400" type="qcurve"/>
      <point x="390" y="1170" type="line"/>
      <point x="343" y="1028"/>
    </contour>
  </outline>
</glyph>
<glyph name="alpha" format="1">
  <advance width="1185"/>
  <unicode hex="03B1"/>
  <outline>
    <contour>
      <point x="80" y="218" type="qcurve"/>
      <point x="80" y="341"/>
      <point x="123" y="475.5" type="qcurve"/>
      <point x="166" y="610"/>
      <point x="269.5" y="738" type="qcurve"/>
      <point x="373" y="866"/>
      <point x="465" y="866" type="qcurve"/>
      <point x="550" y="866"/>
      <point x="600" y="810.5" type="qcurve"/>
      <point x="650" y="755"/>
      <point x="667.5" y="683" type="qcurve"/>
      <point x="685" y="611"/>
      <point x="687" y="586" type="qcurve"/>
      <point x="712" y="631"/>
      <point x="735" y="687.5" type="qcurve"/>
      <point x="758" y="744"/>
      <point x="780.5" y="783.5" type="qcurve"/>
      <point x="803" y="823"/>
      <point x="839" y="855" type="qcurve"/>
      <point x="875" y="887"/>
      <point x="909" y="887" type="qcurve"/>
      <point x="943" y="887"/>
      <point x="956.5" y="866.5" type="qcurve"/>
      <point x="970" y="846"/>
      <point x="970" y="803" type="qcurve"/>
      <point x="970" y="734"/>
      <point x="894" y="596.5" type="qcurve"/>
      <point x="818" y="459"/>
      <point x="783" y="405.5" type="qcurve"/>
      <point x="748" y="352"/>
      <point x="702" y="290" type="qcurve"/>
      <point x="706" y="199"/>
      <point x="734" y="151.5" type="qcurve"/>
      <point x="762" y="104"/>
      <point x="832" y="104" type="qcurve"/>
      <point x="902" y="104"/>
      <point x="981" y="164" type="qcurve"/>
      <point x="1060" y="224"/>
      <point x="1126" y="317" type="qcurve"/>
      <point x="1141" y="339"/>
      <point x="1154" y="339" type="qcurve"/>
      <point x="1167" y="339"/>
      <point x="1167" y="307" type="qcurve"/>
      <point x="1167" y="298"/>
      <point x="1163.5" y="260.5" type="qcurve"/>
      <point x="1160" y="223"/>
      <point x="1118.5" y="145" type="qcurve"/>
      <point x="1077" y="67"/>
      <point x="1000" y="21.5" type="qcurve"/>
      <point x="923" y="-24"/>
      <point x="842.5" y="-24" type="qcurve"/>
      <point x="762" y="-24"/>
      <point x="703" y="45.5" type="qcurve"/>
      <point x="644" y="115"/>
      <point x="644" y="216" type="qcurve"/>
      <point x="524" y="72"/>
      <point x="427" y="24.5" type="qcurve"/>
      <point x="330" y="-23"/>
      <point x="273" y="-23" type="qcurve"/>
      <point x="186" y="-23"/>
      <point x="133" y="27" type="qcurve"/>
      <point x="80" y="77"/>
    </contour>
    <contour>
      <point x="155" y="190" type="qcurve"/>
      <point x="155" y="155"/>
      <point x="173" y="136.5" type="qcurve"/>
      <point x="191" y="118"/>
      <point x="217" y="118" type="qcurve"/>
      <point x="333" y="118"/>
      <point x="423.5" y="204.5" type="qcurve"/>
      <point x="514" y="291"/>
      <point x="559.5" y="361" type="qcurve"/>
      <point x="605" y="431"/>
      <point x="634" y="484" type="qcurve"/>
      <point x="628" y="576"/>
      <point x="612" y="633.5" type="qcurve"/>
      <point x="596" y="691"/>
      <point x="575" y="712.5" type="qcurve"/>
      <point x="554" y="734"/>
      <point x="535" y="734" type="qcurve"/>
      <point x="472" y="734"/>
      <point x="385" y="639.5" type="qcurve"/>
      <point x="298" y="545"/>
      <point x="226.5" y="404" type="qcurve"/>
      <point x="155" y="263"/>
    </contour>
  </outline>
</glyph>
<glyph name="beta" format="1">
  <advance width="1215"/>
  <unicode hex="03B2"/>
  <outline>
    <contour>
      <point x="0" y="-315" type="qcurve"/>
      <point x="110" y="323"/>
      <point x="194" y="664" type="qcurve"/>
      <point x="278" y="1005"/>
      <point x="405" y="1176.5" type="qcurve"/>
      <point x="532" y="1348"/>
      <point x="698" y="1348" type="qcurve"/>
      <point x="812" y="1348"/>
      <point x="896.5" y="1261.5" type="qcurve"/>
      <point x="981" y="1175"/>
      <point x="981" y="1055" type="qcurve"/>
      <point x="981" y="954"/>
      <point x="962.5" y="898.5" type="qcurve"/>
      <point x="944" y="843"/>
      <point x="918.5" y="785" type="qcurve"/>
      <point x="893" y="727"/>
      <point x="871" y="681" type="qcurve"/>
      <point x="957" y="665"/>
      <point x="1051.5" y="587.5" type="qcurve"/>
      <point x="1146" y="510"/>
      <point x="1146" y="392" type="qcurve"/>
      <point x="1146" y="236"/>
      <point x="1025.5" y="106.5" type="qcurve"/>
      <point x="905" y="-23"/>
      <point x="655" y="-23" type="qcurve"/>
      <point x="477" y="-23"/>
      <point x="382.5" y="60" type="qcurve"/>
      <point x="288" y="143"/>
      <point x="265.5" y="186" type="qcurve"/>
      <point x="243" y="229"/>
      <point x="227" y="229" type="qcurve"/>
      <point x="211" y="229"/>
      <point x="198" y="164" type="qcurve"/>
      <point x="185" y="99"/>
      <point x="153.5" y="-74" type="qcurve"/>
      <point x="122" y="-247"/>
      <point x="112" y="-322" type="qcurve"/>
      <point x="109" y="-343"/>
      <point x="54.5" y="-343" type="qcurve"/>
      <point x="0" y="-343"/>
    </contour>
    <contour>
      <point x="243" y="384" type="qcurve"/>
      <point x="266" y="320"/>
      <point x="351.5" y="225" type="qcurve"/>
      <point x="437" y="130"/>
      <point x="650" y="130" type="qcurve"/>
      <point x="830" y="130"/>
      <point x="925" y="225" type="qcurve"/>
      <point x="1020" y="320"/>
      <point x="1020" y="422" type="qcurve"/>
      <point x="1020" y="498"/>
      <point x="989" y="540" type="qcurve"/>
      <point x="958" y="582"/>
      <point x="858" y="582" type="qcurve"/>
      <point x="839" y="582"/>
      <point x="818" y="575" type="qcurve"/>
      <point x="811" y="556"/>
      <point x="759" y="482.5" type="qcurve"/>
      <point x="707" y="409"/>
      <point x="673" y="409" type="qcurve"/>
      <point x="639" y="409"/>
      <point x="629.5" y="441.5" type="qcurve"/>
      <point x="620" y="474"/>
      <point x="620" y="510" type="qcurve"/>
      <point x="620" y="546"/>
      <point x="646.5" y="587" type="qcurve"/>
      <point x="673" y="628"/>
      <point x="707.5" y="656" type="qcurve"/>
      <point x="742" y="684"/>
      <point x="791" y="688" type="qcurve"/>
      <point x="814" y="729"/>
      <point x="835" y="780" type="qcurve"/>
      <point x="856" y="831"/>
      <point x="865" y="883.5" type="qcurve"/>
      <point x="874" y="936"/>
      <point x="874" y="986" type="qcurve"/>
      <point x="874" y="1064"/>
      <point x="824" y="1144" type="qcurve"/>
      <point x="774" y="1224"/>
      <point x="688" y="1224" type="qcurve"/>
      <point x="580" y="1224"/>
      <point x="474.5" y="1056" type="qcurve"/>
      <point x="369" y="888"/>
      <point x="314" y="683.5" type="qcurve"/>
      <point x="259" y="479"/>
    </contour>
  </outline>
</glyph>
<glyph name="gamma" format="1">
  <advance width="1236"/>
  <unicode hex="03B3"/>
  <outline>
    <contour>
      <point x="1204" y="753" type="qcurve"/>
      <point x="1123" y="611"/>
      <point x="931" y="346" type="qcurve"/>
      <point x="739" y="81"/>
      <point x="610" y="-46" type="qcurve"/>
      <point x="583" y="-206"/>
      <point x="492.5" y="-325" type="qcurve"/>
      <point x="402" y="-444"/>
      <point x="277" y="-444" type="qcurve"/>
      <point x="167" y="-444"/>
      <point x="167" y="-357" type="qcurve"/>
      <point x="167" y="-300"/>
      <point x="218" y="-229" type="qcurve"/>
      <point x="269" y="-158"/>
      <point x="383.5" y="-56" type="qcurve"/>
      <point x="498" y="46"/>
      <point x="556" y="118" type="qcurve"/>
      <point x="586" y="203"/>
      <point x="586" y="360.5" type="qcurve"/>
      <point x="586" y="518"/>
      <point x="535" y="611.5" type="qcurve"/>
      <point x="484" y="705"/>
      <point x="354" y="705" type="qcurve"/>
      <point x="253" y="705"/>
      <point x="198.5" y="606.5" type="qcurve"/>
      <point x="144" y="508"/>
      <point x="144" y="449" type="qcurve"/>
      <point x="144" y="390"/>
      <point x="145.5" y="372" type="qcurve"/>
      <point x="147" y="354"/>
      <point x="147" y="339" type="qcurve"/>
      <point x="147" y="324"/>
      <point x="134.5" y="301.5" type="qcurve"/>
      <point x="122" y="279"/>
      <point x="93" y="278" type="qcurve"/>
      <point x="67" y="278"/>
      <point x="52" y="339" type="qcurve"/>
      <point x="40" y="392"/>
      <point x="40" y="489" type="qcurve"/>
      <point x="40" y="666"/>
      <point x="151" y="768" type="qcurve"/>
      <point x="262" y="870"/>
      <point x="391" y="870" type="qcurve"/>
      <point x="490" y="870"/>
      <point x="543.5" y="805" type="qcurve"/>
      <point x="597" y="740"/>
      <point x="629.5" y="640" type="qcurve"/>
      <point x="662" y="540"/>
      <point x="662" y="439.5" type="qcurve"/>
      <point x="662" y="339"/>
      <point x="649" y="207" type="qcurve"/>
      <point x="773" y="334"/>
      <point x="884" y="466.5" type="qcurve"/>
      <point x="995" y="599"/>
      <point x="1105" y="745" type="qcurve"/>
      <point x="1143" y="793"/>
      <point x="1177.5" y="793" type="qcurve"/>
      <point x="1212" y="793"/>
      <point x="1212" y="780" type="qcurve"/>
      <point x="1212" y="767"/>
    </contour>
  </outline>
</glyph>
<glyph name="delta" format="1">
  <advance width="677"/>
  <unicode hex="03B4"/>
  <outline>
    <contour>
      <point x="84" y="220" type="qcurve"/>
      <point x="84" y="373"/>
      <point x="187" y="517.5" type="qcurve"/>
      <point x="290" y="662"/>
      <point x="420" y="662" type="qcurve"/>
      <point x="484" y="662"/>
      <point x="484" y="673" type="qcurve"/>
      <point x="484" y="684"/>
      <point x="475" y="705" type="qcurve"/>
      <point x="438" y="784"/>
      <point x="339" y="938.5" type="qcurve"/>
      <point x="240" y="1093"/>
      <point x="168" y="1182" type="qcurve"/>
      <point x="96" y="1271"/>
      <point x="84" y="1287.5" type="qcurve"/>
      <point x="72" y="1304"/>
      <point x="72" y="1327" type="qcurve"/>
      <point x="72" y="1350"/>
      <point x="81" y="1381" type="qcurve"/>
      <point x="90" y="1412"/>
      <point x="123" y="1441" type="qcurve"/>
      <point x="156" y="1470"/>
      <point x="186.5" y="1470" type="qcurve"/>
      <point x="217" y="1470"/>
      <point x="278" y="1428" type="qcurve"/>
      <point x="339" y="1386"/>
      <point x="438" y="1302.5" type="qcurve"/>
      <point x="537" y="1219"/>
      <point x="603.5" y="1139" type="qcurve"/>
      <point x="670" y="1059"/>
      <point x="694.5" y="1019.5" type="qcurve"/>
      <point x="719" y="980"/>
      <point x="719" y="967" type="qcurve"/>
      <point x="719" y="954"/>
      <point x="694.5" y="939.5" type="qcurve"/>
      <point x="670" y="925"/>
      <point x="654.5" y="925" type="qcurve"/>
      <point x="639" y="925"/>
      <point x="628" y="942" type="qcurve"/>
      <point x="617" y="959"/>
      <point x="566" y="1023" type="qcurve"/>
      <point x="515" y="1087"/>
      <point x="447.5" y="1148" type="qcurve"/>
      <point x="380" y="1209"/>
      <point x="340" y="1238" type="qcurve"/>
      <point x="300" y="1267"/>
      <point x="288" y="1267" type="qcurve"/>
      <point x="276" y="1267"/>
      <point x="265" y="1256.5" type="qcurve"/>
      <point x="254" y="1246"/>
      <point x="254" y="1233.5" type="qcurve"/>
      <point x="254" y="1221"/>
      <point x="287" y="1184.5" type="qcurve"/>
      <point x="320" y="1148"/>
      <point x="415" y="997" type="qcurve"/>
      <point x="510" y="846"/>
      <point x="568" y="714" type="qcurve"/>
      <point x="626" y="582"/>
      <point x="626" y="402" type="qcurve"/>
      <point x="626" y="306"/>
      <point x="581" y="208.5" type="qcurve"/>
      <point x="536" y="111"/>
      <point x="448.5" y="44.5" type="qcurve"/>
      <point x="361" y="-22"/>
      <point x="276.5" y="-22" type="qcurve"/>
      <point x="192" y="-22"/>
      <point x="138" y="39" type="qcurve"/>
      <point x="84" y="100"/>
    </contour>
    <contour>
      <point x="185" y="136" type="qcurve"/>
      <point x="185" y="86"/>
      <point x="225" y="86" type="qcurve"/>
      <point x="280" y="86"/>
      <point x="368" y="172" type="qcurve"/>
      <point x="456" y="258"/>
      <point x="491" y="370.5" type="qcurve"/>
      <point x="526" y="483"/>
      <point x="526" y="525.5" type="qcurve"/>
      <point x="526" y="568"/>
      <point x="485" y="568" type="qcurve"/>
      <point x="444" y="568"/>
      <point x="364" y="484.5" type="qcurve"/>
      <point x="284" y="401"/>
      <point x="234.5" y="302.5" type="qcurve"/>
      <point x="185" y="204"/>
    </contour>
  </outline>
</glyph>
<glyph name="epsilon" format="1">
  <advance width="612"/>
  <unicode hex="03B5"/>
  <outline>
    <contour>
      <point x="253" y="-23" type="qcurve"/>
      <point x="163" y="-23"/>
      <point x="106.5" y="25" type="qcurve"/>
      <point x="50" y="73"/>
      <point x="50" y="146" type="qcurve"/>
      <point x="50" y="219"/>
      <point x="87.5" y="287.5" type="qcurve"/>
      <point x="125" y="356"/>
      <point x="168" y="389" type="qcurve"/>
      <point x="146" y="402"/>
      <point x="118.5" y="448" type="qcurve"/>
      <point x="91" y="494"/>
      <point x="91" y="547.5" type="qcurve"/>
      <point x="91" y="601"/>
      <point x="134.5" y="674" type="qcurve"/>
      <point x="178" y="747"/>
      <point x="246.5" y="808.5" type="qcurve"/>
      <point x="315" y="870"/>
      <point x="416" y="870" type="qcurve"/>
      <point x="466" y="870"/>
      <point x="509" y="849" type="qcurve"/>
      <point x="552" y="828"/>
      <point x="552" y="790" type="qcurve"/>
      <point x="552" y="752"/>
      <point x="504.5" y="734.5" type="qcurve"/>
      <point x="457" y="717"/>
      <point x="397" y="717" type="qcurve"/>
      <point x="296" y="717"/>
      <point x="227" y="659" type="qcurve"/>
      <point x="158" y="601"/>
      <point x="158" y="530" type="qcurve"/>
      <point x="158" y="490"/>
      <point x="172.5" y="462" type="qcurve"/>
      <point x="187" y="434"/>
      <point x="209" y="422" type="qcurve"/>
      <point x="259" y="456"/>
      <point x="310.5" y="491" type="qcurve"/>
      <point x="362" y="526"/>
      <point x="411" y="526" type="qcurve"/>
      <point x="460" y="526"/>
      <point x="478" y="507.5" type="qcurve"/>
      <point x="496" y="489"/>
      <point x="496" y="462" type="qcurve"/>
      <point x="496" y="418"/>
      <point x="447.5" y="382" type="qcurve"/>
      <point x="399" y="346"/>
      <point x="299" y="346" type="qcurve"/>
      <point x="257" y="346"/>
      <point x="222" y="359" type="qcurve"/>
      <point x="177" y="316"/>
      <point x="163" y="280.5" type="qcurve"/>
      <point x="149" y="245"/>
      <point x="149" y="217" type="qcurve"/>
      <point x="149" y="181"/>
      <point x="173" y="156.5" type="qcurve"/>
      <point x="197" y="132"/>
      <point x="257.5" y="132" type="qcurve"/>
      <point x="318" y="132"/>
      <point x="368" y="153" type="qcurve"/>
      <point x="418" y="174"/>
      <point x="441.5" y="200" type="qcurve"/>
      <point x="465" y="226"/>
      <point x="500" y="226" type="qcurve"/>
      <point x="521" y="226"/>
      <point x="533" y="216.5" type="qcurve"/>
      <point x="545" y="207"/>
      <point x="545" y="189" type="qcurve"/>
      <point x="545" y="161"/>
      <point x="497.5" y="101" type="qcurve"/>
      <point x="450" y="41"/>
      <point x="387" y="9" type="qcurve"/>
      <point x="324" y="-23"/>
    </contour>
  </outline>
</glyph>
<glyph name="zeta" format="1">
  <advance width="644"/>
  <unicode hex="03B6"/>
  <outline>
    <contour>
      <point x="80" y="233" type="qcurve"/>
      <point x="80" y="367"/>
      <point x="118.5" y="486" type="qcurve"/>
      <point x="157" y="605"/>
      <point x="245.5" y="744.5" type="qcurve"/>
      <point x="334" y="884"/>
      <point x="414.5" y="987.5" type="qcurve"/>
      <point x="495" y="1091"/>
      <point x="551" y="1164.5" type="qcurve"/>
      <point x="607" y="1238"/>
      <point x="607" y="1301" type="qcurve"/>
      <point x="607" y="1332"/>
      <point x="582" y="1357.5" type="qcurve"/>
      <point x="557" y="1383"/>
      <point x="510" y="1383" type="qcurve"/>
      <point x="466" y="1383"/>
      <point x="431" y="1358.5" type="qcurve"/>
      <point x="396" y="1334"/>
      <point x="396" y="1286" type="qcurve"/>
      <point x="396" y="1253"/>
      <point x="448" y="1195" type="qcurve"/>
      <point x="453" y="1189"/>
      <point x="453" y="1180.5" type="qcurve"/>
      <point x="453" y="1172"/>
      <point x="428.5" y="1155.5" type="qcurve"/>
      <point x="404" y="1139"/>
      <point x="391.5" y="1139" type="qcurve"/>
      <point x="379" y="1139"/>
      <point x="372" y="1145" type="qcurve"/>
      <point x="316" y="1196"/>
      <point x="316" y="1289" type="qcurve"/>
      <point x="316" y="1382"/>
      <point x="375.5" y="1433.5" type="qcurve"/>
      <point x="435" y="1485"/>
      <point x="494" y="1485" type="qcurve"/>
      <point x="603" y="1485"/>
      <point x="650.5" y="1413.5" type="qcurve"/>
      <point x="698" y="1342"/>
      <point x="698" y="1260" type="qcurve"/>
      <point x="698" y="1126"/>
      <point x="634" y="1031" type="qcurve"/>
      <point x="570" y="936"/>
      <point x="435" y="759" type="qcurve"/>
      <point x="300" y="582"/>
      <point x="224.5" y="448" type="qcurve"/>
      <point x="149" y="314"/>
      <point x="149" y="264" type="qcurve"/>
      <point x="149" y="158"/>
      <point x="263.5" y="103" type="qcurve"/>
      <point x="378" y="48"/>
      <point x="498" y="24.5" type="qcurve"/>
      <point x="618" y="1"/>
      <point x="662.5" y="-73.5" type="qcurve"/>
      <point x="707" y="-148"/>
      <point x="707" y="-222" type="qcurve"/>
      <point x="707" y="-288"/>
      <point x="675" y="-343.5" type="qcurve"/>
      <point x="643" y="-399"/>
      <point x="592" y="-435.5" type="qcurve"/>
      <point x="541" y="-472"/>
      <point x="493.5" y="-472" type="qcurve"/>
      <point x="446" y="-472"/>
      <point x="409" y="-444" type="qcurve"/>
      <point x="402" y="-438"/>
      <point x="402" y="-423" type="qcurve"/>
      <point x="402" y="-408"/>
      <point x="411" y="-380" type="qcurve"/>
      <point x="428" y="-328"/>
      <point x="448" y="-328" type="qcurve"/>
      <point x="468" y="-328"/>
      <point x="502" y="-339.5" type="qcurve"/>
      <point x="536" y="-351"/>
      <point x="549" y="-351" type="qcurve"/>
      <point x="601" y="-351"/>
      <point x="601" y="-297.5" type="qcurve"/>
      <point x="601" y="-244"/>
      <point x="578" y="-197" type="qcurve"/>
      <point x="555" y="-150"/>
      <point x="446.5" y="-122.5" type="qcurve"/>
      <point x="338" y="-95"/>
      <point x="209" y="-8" type="qcurve"/>
      <point x="80" y="79"/>
    </contour>
  </outline>
</glyph>
<glyph name="theta" format="1">
  <advance width="877"/>
  <unicode hex="03B8"/>
  <outline>
    <contour>
      <point x="80" y="321" type="qcurve"/>
      <point x="80" y="575"/>
      <point x="149.5" y="776.5" type="qcurve"/>
      <point x="219" y="978"/>
      <point x="284" y="1110" type="qcurve"/>
      <point x="349" y="1242"/>
      <point x="449" y="1362.5" type="qcurve"/>
      <point x="549" y="1483"/>
      <point x="638" y="1483" type="qcurve"/>
      <point x="713" y="1483"/>
      <point x="771" y="1348.5" type="qcurve"/>
      <point x="829" y="1214"/>
      <point x="829" y="1038" type="qcurve"/>
      <point x="828" y="934"/>
      <point x="804" y="776.5" type="qcurve"/>
      <point x="780" y="619"/>
      <point x="722.5" y="448" type="qcurve"/>
      <point x="665" y="277"/>
      <point x="567.5" y="124" type="qcurve"/>
      <point x="470" y="-29"/>
      <point x="364" y="-29" type="qcurve"/>
      <point x="214" y="-29"/>
      <point x="147" y="74" type="qcurve"/>
      <point x="80" y="177"/>
    </contour>
    <contour>
      <point x="235" y="399" type="qcurve"/>
      <point x="235" y="26"/>
      <point x="329" y="26" type="qcurve"/>
      <point x="424" y="26"/>
      <point x="509.5" y="222.5" type="qcurve"/>
      <point x="595" y="419"/>
      <point x="635" y="648" type="qcurve"/>
      <point x="262" y="648" type="line"/>
      <point x="235" y="501"/>
    </contour>
    <contour>
      <point x="285" y="750" type="qcurve"/>
      <point x="651" y="750" type="line"/>
      <point x="675" y="936"/>
      <point x="675" y="1149" type="qcurve"/>
      <point x="675" y="1369"/>
      <point x="592" y="1369" type="qcurve"/>
      <point x="509" y="1369"/>
      <point x="418" y="1148.5" type="qcurve"/>
      <point x="327" y="928"/>
    </contour>
  </outline>
</glyph>
<glyph name="iota" format="1">
  <advance width="445"/>
  <unicode hex="03B9"/>
  <outline>
    <contour>
      <point x="40" y="105" type="qcurve"/>
      <point x="40" y="153"/>
      <point x="64" y="237" type="qcurve"/>
      <point x="232" y="825" type="line"/>
      <point x="245" y="870"/>
      <point x="308" y="870" type="qcurve"/>
      <point x="353" y="870"/>
      <point x="369" y="850.5" type="qcurve"/>
      <point x="385" y="831"/>
      <point x="385" y="792" type="qcurve"/>
      <point x="385" y="742"/>
      <point x="286" y="543" type="qcurve"/>
      <point x="187" y="344"/>
      <point x="175" y="250" type="qcurve"/>
      <point x="204" y="262"/>
      <point x="250" y="262" type="qcurve"/>
      <point x="286" y="262"/>
      <point x="307" y="233" type="qcurve"/>
      <point x="328" y="204"/>
      <point x="328" y="172" type="qcurve"/>
      <point x="328" y="98"/>
      <point x="278" y="34.5" type="qcurve"/>
      <point x="228" y="-29"/>
      <point x="159" y="-29" type="qcurve"/>
      <point x="104" y="-29"/>
      <point x="72" y="2.5" type="qcurve"/>
      <point x="40" y="34"/>
    </contour>
  </outline>
</glyph>
<glyph name="lambda" format="1">
  <advance width="917"/>
  <unicode hex="03BB"/>
  <outline>
    <contour>
      <point x="12" y="-9" type="qcurve"/>
      <point x="517" y="729" type="line"/>
      <point x="530" y="749"/>
      <point x="530" y="765.5" type="qcurve"/>
      <point x="530" y="782"/>
      <point x="522" y="793" type="qcurve"/>
      <point x="455" y="903"/>
      <point x="383" y="903" type="qcurve"/>
      <point x="367" y="903"/>
      <point x="349.5" y="890.5" type="qcurve"/>
      <point x="332" y="878"/>
      <point x="305" y="878" type="qcurve"/>
      <point x="278" y="878"/>
      <point x="264" y="898" type="qcurve"/>
      <point x="250" y="918"/>
      <point x="250" y="944" type="qcurve"/>
      <point x="250" y="970"/>
      <point x="271.5" y="987" type="qcurve"/>
      <point x="293" y="1004"/>
      <point x="338" y="1004" type="qcurve"/>
      <point x="427" y="1004"/>
      <point x="525.5" y="908" type="qcurve"/>
      <point x="624" y="812"/>
      <point x="680" y="586" type="qcurve"/>
      <point x="753" y="291" type="line"/>
      <point x="779" y="185"/>
      <point x="834.5" y="139" type="qcurve"/>
      <point x="890" y="93"/>
      <point x="890" y="57" type="qcurve"/>
      <point x="890" y="21"/>
      <point x="879.5" y="-1" type="qcurve"/>
      <point x="869" y="-23"/>
      <point x="843" y="-23" type="qcurve"/>
      <point x="793" y="-23"/>
      <point x="755.5" y="59" type="qcurve"/>
      <point x="718" y="141"/>
      <point x="698" y="225" type="qcurve"/>
      <point x="614" y="567" type="line"/>
      <point x="610" y="584"/>
      <point x="606.5" y="584" type="qcurve"/>
      <point x="603" y="584"/>
      <point x="591" y="566" type="qcurve"/>
      <point x="198" y="-10" type="line"/>
      <point x="188" y="-24"/>
      <point x="100" y="-24" type="qcurve"/>
      <point x="12" y="-24"/>
    </contour>
  </outline>
</glyph>
<glyph name="mu" format="1">
  <advance width="1200"/>
  <unicode hex="03BC"/>
  <outline>
    <contour>
      <point x="-54" y="-346" type="qcurve"/>
      <point x="-54" y="-218"/>
      <point x="40" y="125.5" type="qcurve"/>
      <point x="134" y="469"/>
      <point x="208" y="630.5" type="qcurve"/>
      <point x="282" y="792"/>
      <point x="309" y="831" type="qcurve"/>
      <point x="336" y="870"/>
      <point x="375.5" y="870" type="qcurve"/>
      <point x="415" y="870"/>
      <point x="433.5" y="854.5" type="qcurve"/>
      <point x="452" y="839"/>
      <point x="452" y="792" type="qcurve"/>
      <point x="452" y="750"/>
      <point x="425.5" y="688.5" type="qcurve"/>
      <point x="399" y="627"/>
      <point x="300.5" y="469.5" type="qcurve"/>
      <point x="202" y="312"/>
      <point x="173" y="247" type="qcurve"/>
      <point x="175" y="172"/>
      <point x="219" y="139.5" type="qcurve"/>
      <point x="263" y="107"/>
      <point x="302" y="107" type="qcurve"/>
      <point x="423" y="107"/>
      <point x="505" y="189.5" type="qcurve"/>
      <point x="587" y="272"/>
      <point x="632.5" y="355" type="qcurve"/>
      <point x="678" y="438"/>
      <point x="765.5" y="636" type="qcurve"/>
      <point x="853" y="834"/>
      <point x="881.5" y="852" type="qcurve"/>
      <point x="910" y="870"/>
      <point x="939" y="870" type="qcurve"/>
      <point x="968" y="870"/>
      <point x="987.5" y="854" type="qcurve"/>
      <point x="1007" y="838"/>
      <point x="1007" y="776" type="qcurve"/>
      <point x="1007" y="735"/>
      <point x="965.5" y="657" type="qcurve"/>
      <point x="924" y="579"/>
      <point x="831" y="439.5" type="qcurve"/>
      <point x="738" y="300"/>
      <point x="738" y="223" type="qcurve"/>
      <point x="738" y="105"/>
      <point x="824" y="105" type="qcurve"/>
      <point x="910" y="105"/>
      <point x="994" y="165" type="qcurve"/>
      <point x="1078" y="225"/>
      <point x="1143" y="318" type="qcurve"/>
      <point x="1158" y="340"/>
      <point x="1171" y="340" type="qcurve"/>
      <point x="1184" y="340"/>
      <point x="1184" y="308" type="qcurve"/>
      <point x="1184" y="289"/>
      <point x="1174" y="241.5" type="qcurve"/>
      <point x="1164" y="194"/>
      <point x="1124.5" y="129" type="qcurve"/>
      <point x="1085" y="64"/>
      <point x="1016.5" y="20.5" type="qcurve"/>
      <point x="948" y="-23"/>
      <point x="868" y="-23" type="qcurve"/>
      <point x="788" y="-23"/>
      <point x="738" y="32.5" type="qcurve"/>
      <point x="688" y="88"/>
      <point x="678" y="156" type="qcurve"/>
      <point x="674" y="182"/>
      <point x="662.5" y="182" type="qcurve"/>
      <point x="651" y="182"/>
      <point x="633" y="155" type="qcurve"/>
      <point x="565" y="57"/>
      <point x="490" y="17" type="qcurve"/>
      <point x="415" y="-23"/>
      <point x="335" y="-23" type="qcurve"/>
      <point x="268" y="-23"/>
      <point x="220" y="6.5" type="qcurve"/>
      <point x="172" y="36"/>
      <point x="134" y="116" type="qcurve"/>
      <point x="128" y="128"/>
      <point x="124" y="128" type="qcurve"/>
      <point x="120" y="128"/>
      <point x="118" y="122" type="qcurve"/>
      <point x="82" y="24"/>
      <point x="73.5" y="-30.5" type="qcurve"/>
      <point x="65" y="-85"/>
      <point x="65" y="-131" type="qcurve"/>
      <point x="65" y="-177"/>
      <point x="81" y="-250" type="qcurve"/>
      <point x="97" y="-323"/>
      <point x="97" y="-375.5" type="qcurve"/>
      <point x="97" y="-428"/>
      <point x="72" y="-449.5" type="qcurve"/>
      <point x="47" y="-471"/>
      <point x="15" y="-471" type="qcurve"/>
      <point x="-25" y="-471"/>
      <point x="-39.5" y="-430.5" type="qcurve"/>
      <point x="-54" y="-390"/>
    </contour>
  </outline>
</glyph>
<glyph name="nu" format="1">
  <advance width="653"/>
  <unicode hex="03BD"/>
  <outline>
    <contour>
      <point x="121" y="32" type="qcurve"/>
      <point x="121" y="70"/>
      <point x="131.5" y="146" type="qcurve"/>
      <point x="142" y="222"/>
      <point x="142" y="321" type="qcurve"/>
      <point x="142" y="420"/>
      <point x="125" y="484.5" type="qcurve"/>
      <point x="108" y="549"/>
      <point x="94" y="607.5" type="qcurve"/>
      <point x="80" y="666"/>
      <point x="80" y="724" type="qcurve"/>
      <point x="80" y="794"/>
      <point x="119.5" y="833.5" type="qcurve"/>
      <point x="159" y="873"/>
      <point x="179" y="873" type="qcurve"/>
      <point x="265" y="873"/>
      <point x="265" y="721" type="qcurve"/>
      <point x="265" y="648"/>
      <point x="243" y="485" type="qcurve"/>
      <point x="221" y="322"/>
      <point x="215" y="294.5" type="qcurve"/>
      <point x="209" y="267"/>
      <point x="209" y="260" type="qcurve"/>
      <point x="209" y="253"/>
      <point x="215.5" y="253" type="qcurve"/>
      <point x="222" y="253"/>
      <point x="238" y="267" type="qcurve"/>
      <point x="314" y="332"/>
      <point x="380.5" y="419" type="qcurve"/>
      <point x="447" y="506"/>
      <point x="485.5" y="619" type="qcurve"/>
      <point x="524" y="732"/>
      <point x="524" y="800" type="qcurve"/>
      <point x="524" y="868"/>
      <point x="549" y="868" type="qcurve"/>
      <point x="594" y="868"/>
      <point x="594" y="726" type="qcurve"/>
      <point x="594" y="584"/>
      <point x="545.5" y="458" type="qcurve"/>
      <point x="497" y="332"/>
      <point x="355" y="155.5" type="qcurve"/>
      <point x="213" y="-21"/>
      <point x="159" y="-21" type="qcurve"/>
      <point x="121" y="-21"/>
    </contour>
  </outline>
</glyph>
<glyph name="xi" format="1">
  <advance width="717"/>
  <unicode hex="03BE"/>
  <outline>
    <contour>
      <point x="80" y="222" type="qcurve"/>
      <point x="80" y="290"/>
      <point x="111" y="360" type="qcurve"/>
      <point x="142" y="430"/>
      <point x="205" y="526" type="qcurve"/>
      <point x="268" y="622"/>
      <point x="332" y="693" type="qcurve"/>
      <point x="261" y="724"/>
      <point x="218" y="788" type="qcurve"/>
      <point x="175" y="852"/>
      <point x="175" y="910" type="qcurve"/>
      <point x="175" y="1014"/>
      <point x="223.5" y="1095" type="qcurve"/>
      <point x="272" y="1176"/>
      <point x="332" y="1237" type="qcurve"/>
      <point x="290" y="1258"/>
      <point x="240" y="1309" type="qcurve"/>
      <point x="190" y="1360"/>
      <point x="190" y="1418.5" type="qcurve"/>
      <point x="190" y="1477"/>
      <point x="216.5" y="1502" type="qcurve"/>
      <point x="243" y="1527"/>
      <point x="284" y="1527" type="qcurve"/>
      <point x="310" y="1527"/>
      <point x="331.5" y="1509" type="qcurve"/>
      <point x="353" y="1491"/>
      <point x="353" y="1469" type="qcurve"/>
      <point x="353" y="1438"/>
      <point x="334" y="1409" type="qcurve"/>
      <point x="315" y="1380"/>
      <point x="315" y="1350.5" type="qcurve"/>
      <point x="315" y="1321"/>
      <point x="345" y="1310" type="qcurve"/>
      <point x="375" y="1299"/>
      <point x="395" y="1297" type="qcurve"/>
      <point x="480" y="1386"/>
      <point x="576" y="1439" type="qcurve"/>
      <point x="672" y="1492"/>
      <point x="707" y="1492" type="qcurve"/>
      <point x="762" y="1492"/>
      <point x="776" y="1465" type="qcurve"/>
      <point x="790" y="1438"/>
      <point x="790" y="1407.5" type="qcurve"/>
      <point x="790" y="1377"/>
      <point x="727" y="1314" type="qcurve"/>
      <point x="664" y="1251"/>
      <point x="540" y="1224" type="qcurve"/>
      <point x="472" y="1166"/>
      <point x="407" y="1100" type="qcurve"/>
      <point x="342" y="1034"/>
      <point x="310.5" y="970" type="qcurve"/>
      <point x="279" y="906"/>
      <point x="279" y="862" type="qcurve"/>
      <point x="279" y="818"/>
      <point x="337" y="777"/>
      <point x="403" y="777" type="qcurve"/>
      <point x="454" y="834"/>
      <point x="521" y="883.5" type="qcurve"/>
      <point x="588" y="933"/>
      <point x="647" y="933" type="qcurve"/>
      <point x="688" y="933"/>
      <point x="706.5" y="898.5" type="qcurve"/>
      <point x="725" y="864"/>
      <point x="725" y="837" type="qcurve"/>
      <point x="725" y="799"/>
      <point x="666.5" y="747" type="qcurve"/>
      <point x="608" y="695"/>
      <point x="528" y="686" type="qcurve"/>
      <point x="411" y="595"/>
      <point x="289.5" y="440.5" type="qcurve"/>
      <point x="168" y="286"/>
      <point x="168" y="189" type="qcurve"/>
      <point x="168" y="148"/>
      <point x="192.5" y="116" type="qcurve"/>
      <point x="217" y="84"/>
      <point x="276" y="84" type="qcurve"/>
      <point x="311" y="84"/>
      <point x="397.5" y="111.5" type="qcurve"/>
      <point x="484" y="139"/>
      <point x="562" y="139" type="qcurve"/>
      <point x="640" y="139"/>
      <point x="695" y="81.5" type="qcurve"/>
      <point x="750" y="24"/>
      <point x="750" y="-49" type="qcurve"/>
      <point x="750" y="-103"/>
      <point x="707" y="-174" type="qcurve"/>
      <point x="664" y="-245"/>
      <point x="614" y="-264.5" type="qcurve"/>
      <point x="564" y="-284"/>
      <point x="520.5" y="-284" type="qcurve"/>
      <point x="477" y="-284"/>
      <point x="443" y="-258" type="qcurve"/>
      <point x="437" y="-253"/>
      <point x="437" y="-238.5" type="qcurve" smooth="yes"/>
      <point x="438" y="-224"/>
      <point x="452" y="-192" type="qcurve"/>
      <point x="472" y="-147"/>
      <point x="492" y="-147" type="qcurve" smooth="yes"/>
      <point x="498" y="-147"/>
      <point x="515.5" y="-153.5" type="qcurve"/>
      <point x="533" y="-160"/>
      <point x="557" y="-160" type="qcurve" smooth="yes"/>
      <point x="598" y="-160"/>
      <point x="628" y="-130" type="qcurve"/>
      <point x="676" y="-82"/>
      <point x="676" y="-37" type="qcurve"/>
      <point x="676" y="-14"/>
      <point x="656" y="8.5" type="qcurve"/>
      <point x="636" y="31"/>
      <point x="579" y="31" type="qcurve"/>
      <point x="541" y="31"/>
      <point x="456" y="7.5" type="qcurve"/>
      <point x="371" y="-16"/>
      <point x="297.5" y="-16" type="qcurve"/>
      <point x="224" y="-16"/>
      <point x="152" y="47.5" type="qcurve"/>
      <point x="80" y="111"/>
    </contour>
  </outline>
</glyph>
<glyph name="omicron" format="1">
  <advance width="742"/>
  <unicode hex="03BF"/>
  <outline>
    <contour>
      <point x="497" y="900" type="move" name="above"/>
    </contour>
    <contour>
      <point x="80" y="242" type="qcurve"/>
      <point x="80" y="376"/>
      <point x="148.5" y="516" type="qcurve"/>
      <point x="217" y="656"/>
      <point x="329.5" y="763.5" type="qcurve"/>
      <point x="442" y="871"/>
      <point x="508" y="871" type="qcurve"/>
      <point x="540" y="871"/>
      <point x="558.5" y="848" type="qcurve"/>
      <point x="577" y="825"/>
      <point x="577" y="780" type="qcurve"/>
      <point x="577" y="769"/>
      <point x="568" y="754" type="qcurve"/>
      <point x="682" y="606"/>
      <point x="682" y="390" type="qcurve"/>
      <point x="682" y="233"/>
      <point x="573" y="105.5" type="qcurve"/>
      <point x="464" y="-22"/>
      <point x="329" y="-22" type="qcurve"/>
      <point x="211" y="-22"/>
      <point x="145.5" y="43" type="qcurve"/>
      <point x="80" y="108"/>
    </contour>
    <contour>
      <point x="164" y="204" type="qcurve"/>
      <point x="164" y="142"/>
      <point x="197" y="117" type="qcurve"/>
      <point x="230" y="92"/>
      <point x="266" y="92" type="qcurve"/>
      <point x="367" y="92"/>
      <point x="445.5" y="184" type="qcurve"/>
      <point x="524" y="276"/>
      <point x="544" y="358.5" type="qcurve"/>
      <point x="564" y="441"/>
      <point x="564" y="508" type="qcurve"/>
      <point x="564" y="612"/>
      <point x="512" y="691" type="qcurve"/>
      <point x="487" y="668"/>
      <point x="453" y="641" type="qcurve"/>
      <point x="329" y="540"/>
      <point x="246.5" y="411.5" type="qcurve"/>
      <point x="164" y="283"/>
    </contour>
  </outline>
</glyph>
<glyph name="rho" format="1">
  <advance width="818"/>
  <unicode hex="03C1"/>
  <outline>
    <contour>
      <point x="-340" y="-599" type="qcurve"/>
      <point x="-340" y="-570"/>
      <point x="-319" y="-534.5" type="qcurve"/>
      <point x="-298" y="-499"/>
      <point x="-244" y="-499" type="qcurve"/>
      <point x="-213" y="-499"/>
      <point x="-160.5" y="-565.5" type="qcurve"/>
      <point x="-108" y="-632"/>
      <point x="-71" y="-632" type="qcurve"/>
      <point x="-17" y="-632"/>
      <point x="16.5" y="-532" type="qcurve"/>
      <point x="50" y="-432"/>
      <point x="61.5" y="-78" type="qcurve"/>
      <point x="73" y="276"/>
      <point x="103.5" y="447.5" type="qcurve"/>
      <point x="134" y="619"/>
      <point x="240" y="744.5" type="qcurve"/>
      <point x="346" y="870"/>
      <point x="508" y="870" type="qcurve"/>
      <point x="624" y="870"/>
      <point x="691.5" y="790" type="qcurve"/>
      <point x="759" y="710"/>
      <point x="759" y="605" type="qcurve"/>
      <point x="759" y="431"/>
      <point x="648.5" y="301" type="qcurve"/>
      <point x="538" y="171"/>
      <point x="395" y="171" type="qcurve"/>
      <point x="283" y="171"/>
      <point x="208" y="238" type="qcurve"/>
      <point x="194" y="70"/>
      <point x="169.5" y="-245" type="qcurve"/>
      <point x="145" y="-560"/>
      <point x="79" y="-654.5" type="qcurve"/>
      <point x="13" y="-749"/>
      <point x="-100" y="-749" type="qcurve"/>
      <point x="-222" y="-749"/>
      <point x="-281" y="-698" type="qcurve"/>
      <point x="-340" y="-647"/>
    </contour>
    <contour>
      <point x="213" y="298" type="qcurve"/>
      <point x="260" y="274"/>
      <point x="311" y="274" type="qcurve"/>
      <point x="420" y="274"/>
      <point x="532" y="419" type="qcurve"/>
      <point x="644" y="564"/>
      <point x="644" y="680" type="qcurve"/>
      <point x="644" y="711"/>
      <point x="632" y="732" type="qcurve"/>
      <point x="620" y="753"/>
      <point x="584" y="753" type="qcurve"/>
      <point x="496" y="753"/>
      <point x="398.5" y="672.5" type="qcurve"/>
      <point x="301" y="592"/>
      <point x="259" y="481" type="qcurve"/>
      <point x="217" y="370"/>
    </contour>
  </outline>
</glyph>
<glyph name="sigma1" format="1">
  <advance width="577"/>
  <unicode hex="03C2"/>
  <outline>
    <contour>
      <point x="62" y="390" type="qcurve"/>
      <point x="62" y="494"/>
      <point x="137" y="611.5" type="qcurve"/>
      <point x="212" y="729"/>
      <point x="303.5" y="797" type="qcurve"/>
      <point x="395" y="865"/>
      <point x="488" y="865" type="qcurve"/>
      <point x="617" y="865" type="line"/>
      <point x="657" y="865"/>
      <point x="671" y="815.5" type="qcurve"/>
      <point x="685" y="766"/>
      <point x="685" y="750" type="qcurve"/>
      <point x="685" y="711"/>
      <point x="647" y="711" type="qcurve"/>
      <point x="437" y="711"/>
      <point x="349" y="648" type="qcurve"/>
      <point x="261" y="585"/>
      <point x="206" y="493" type="qcurve"/>
      <point x="151" y="401"/>
      <point x="151" y="291" type="qcurve"/>
      <point x="151" y="220"/>
      <point x="212" y="220" type="qcurve"/>
      <point x="259" y="220"/>
      <point x="306.5" y="243" type="qcurve"/>
      <point x="354" y="266"/>
      <point x="400" y="266" type="qcurve"/>
      <point x="456" y="266"/>
      <point x="489" y="227.5" type="qcurve"/>
      <point x="522" y="189"/>
      <point x="522" y="134" type="qcurve"/>
      <point x="522" y="43"/>
      <point x="467.5" y="-60" type="qcurve"/>
      <point x="413" y="-163"/>
      <point x="331.5" y="-201" type="qcurve"/>
      <point x="250" y="-239"/>
      <point x="198" y="-239" type="qcurve"/>
      <point x="146" y="-239"/>
      <point x="116" y="-215.5" type="qcurve"/>
      <point x="86" y="-192"/>
      <point x="86" y="-151.5" type="qcurve"/>
      <point x="86" y="-111"/>
      <point x="144" y="-95" type="qcurve"/>
      <point x="202" y="-79"/>
      <point x="267.5" y="-76" type="qcurve"/>
      <point x="333" y="-73"/>
      <point x="367.5" y="-50" type="qcurve"/>
      <point x="402" y="-27"/>
      <point x="402" y="14" type="qcurve"/>
      <point x="402" y="55"/>
      <point x="386.5" y="84" type="qcurve"/>
      <point x="371" y="113"/>
      <point x="336.5" y="113" type="qcurve"/>
      <point x="302" y="113"/>
      <point x="270.5" y="102" type="qcurve"/>
      <point x="239" y="91"/>
      <point x="197" y="91" type="qcurve"/>
      <point x="155" y="91"/>
      <point x="125" y="128.5" type="qcurve"/>
      <point x="95" y="166"/>
      <point x="78.5" y="214" type="qcurve"/>
      <point x="62" y="262"/>
    </contour>
  </outline>
</glyph>
<glyph name="sigma" format="1">
  <advance width="922"/>
  <unicode hex="03C3"/>
  <outline>
    <contour>
      <point x="42" y="333" type="qcurve"/>
      <point x="42" y="456"/>
      <point x="91" y="576" type="qcurve"/>
      <point x="140" y="696"/>
      <point x="236" y="774" type="qcurve"/>
      <point x="332" y="852"/>
      <point x="545" y="852" type="qcurve"/>
      <point x="772" y="852" type="line"/>
      <point x="872" y="852"/>
      <point x="888" y="892" type="qcurve"/>
      <point x="896" y="913"/>
      <point x="910" y="928" type="qcurve"/>
      <point x="924" y="943"/>
      <point x="936" y="943" type="qcurve"/>
      <point x="961" y="943"/>
      <point x="970.5" y="922" type="qcurve"/>
      <point x="980" y="901"/>
      <point x="980" y="864" type="qcurve"/>
      <point x="980" y="699"/>
      <point x="726" y="699" type="qcurve"/>
      <point x="573" y="699" type="line"/>
      <point x="624" y="628"/>
      <point x="646.5" y="536" type="qcurve"/>
      <point x="669" y="444"/>
      <point x="669" y="365" type="qcurve"/>
      <point x="669" y="219"/>
      <point x="588.5" y="98" type="qcurve"/>
      <point x="508" y="-23"/>
      <point x="328" y="-23" type="qcurve"/>
      <point x="200" y="-23"/>
      <point x="121" y="75.5" type="qcurve"/>
      <point x="42" y="174"/>
    </contour>
    <contour>
      <point x="156" y="296" type="qcurve"/>
      <point x="156" y="218"/>
      <point x="198.5" y="160" type="qcurve"/>
      <point x="241" y="102"/>
      <point x="313.5" y="102" type="qcurve"/>
      <point x="386" y="102"/>
      <point x="431" y="136" type="qcurve"/>
      <point x="476" y="170"/>
      <point x="514" y="245" type="qcurve"/>
      <point x="552" y="320"/>
      <point x="552" y="454" type="qcurve"/>
      <point x="552" y="580"/>
      <point x="470" y="692" type="qcurve"/>
      <point x="346" y="680"/>
      <point x="282" y="613" type="qcurve"/>
      <point x="218" y="546"/>
      <point x="187" y="472" type="qcurve"/>
      <point x="156" y="398"/>
    </contour>
  </outline>
</glyph>
<glyph name="tau" format="1">
  <advance width="1014"/>
  <unicode hex="03C4"/>
  <outline>
    <contour>
      <point x="342" y="105" type="qcurve"/>
      <point x="342" y="177"/>
      <point x="366" y="237" type="qcurve"/>
      <point x="535" y="663" type="line"/>
      <point x="543" y="682"/>
      <point x="543" y="693" type="qcurve"/>
      <point x="543" y="710"/>
      <point x="526" y="710" type="qcurve"/>
      <point x="516" y="710"/>
      <point x="434.5" y="713" type="qcurve"/>
      <point x="353" y="716"/>
      <point x="336" y="716" type="qcurve"/>
      <point x="220" y="716"/>
      <point x="183" y="686" type="qcurve"/>
      <point x="167" y="673"/>
      <point x="167" y="661" type="qcurve"/>
      <point x="167" y="649"/>
      <point x="182.5" y="628.5" type="qcurve"/>
      <point x="198" y="608"/>
      <point x="208" y="575" type="qcurve"/>
      <point x="218" y="542"/>
      <point x="218" y="512" type="qcurve"/>
      <point x="218" y="466"/>
      <point x="148" y="466" type="qcurve"/>
      <point x="100" y="466"/>
      <point x="72" y="502" type="qcurve"/>
      <point x="44" y="538"/>
      <point x="44" y="595" type="qcurve"/>
      <point x="44" y="652"/>
      <point x="61.5" y="707" type="qcurve"/>
      <point x="79" y="762"/>
      <point x="107" y="794" type="qcurve"/>
      <point x="136" y="826"/>
      <point x="188" y="850" type="qcurve"/>
      <point x="232" y="870"/>
      <point x="327" y="871" type="qcurve"/>
      <point x="402" y="870"/>
      <point x="567" y="861" type="qcurve"/>
      <point x="732" y="852"/>
      <point x="803" y="852" type="qcurve"/>
      <point x="902" y="852"/>
      <point x="917" y="892" type="qcurve"/>
      <point x="925" y="914"/>
      <point x="939.5" y="928.5" type="qcurve"/>
      <point x="954" y="943"/>
      <point x="966" y="943" type="qcurve"/>
      <point x="992" y="943"/>
      <point x="1001" y="922" type="qcurve"/>
      <point x="1010" y="901"/>
      <point x="1010" y="864" type="qcurve"/>
      <point x="1010" y="698"/>
      <point x="786" y="698" type="qcurve"/>
      <point x="772" y="698"/>
      <point x="747.5" y="699.5" type="qcurve"/>
      <point x="723" y="701"/>
      <point x="713" y="701" type="qcurve"/>
      <point x="686" y="701"/>
      <point x="674" y="680" type="qcurve"/>
      <point x="618" y="575" type="line"/>
      <point x="513" y="378"/>
      <point x="477" y="250" type="qcurve"/>
      <point x="506" y="262"/>
      <point x="552" y="262" type="qcurve"/>
      <point x="588" y="262"/>
      <point x="609" y="233" type="qcurve"/>
      <point x="630" y="204"/>
      <point x="630" y="172" type="qcurve"/>
      <point x="630" y="98"/>
      <point x="580" y="34.5" type="qcurve"/>
      <point x="530" y="-29"/>
      <point x="461" y="-29" type="qcurve"/>
      <point x="406" y="-29"/>
      <point x="374" y="2.5" type="qcurve"/>
      <point x="342" y="34"/>
    </contour>
  </outline>
</glyph>
<glyph name="upsilon" format="1">
  <advance width="837"/>
  <unicode hex="03C5"/>
  <outline>
    <contour>
      <point x="475" y="900" type="move" name="above"/>
    </contour>
    <contour>
      <point x="124" y="154" type="qcurve"/>
      <point x="124" y="234"/>
      <point x="161.5" y="373.5" type="qcurve"/>
      <point x="199" y="513"/>
      <point x="206" y="592" type="qcurve"/>
      <point x="172" y="580"/>
      <point x="138" y="580" type="qcurve"/>
      <point x="94" y="580"/>
      <point x="74" y="610.5" type="qcurve"/>
      <point x="54" y="641"/>
      <point x="54" y="670" type="qcurve"/>
      <point x="54" y="743"/>
      <point x="86" y="789.5" type="qcurve"/>
      <point x="118" y="836"/>
      <point x="150" y="853" type="qcurve"/>
      <point x="182" y="870"/>
      <point x="238" y="871" type="qcurve"/>
      <point x="264" y="871"/>
      <point x="288" y="854.5" type="qcurve"/>
      <point x="312" y="838"/>
      <point x="312" y="790" type="qcurve"/>
      <point x="312" y="710"/>
      <point x="275" y="566.5" type="qcurve"/>
      <point x="238" y="423"/>
      <point x="238" y="316" type="qcurve"/>
      <point x="238" y="232"/>
      <point x="258.5" y="188" type="qcurve"/>
      <point x="279" y="144"/>
      <point x="326" y="144" type="qcurve"/>
      <point x="412" y="144"/>
      <point x="488" y="223.5" type="qcurve"/>
      <point x="564" y="303"/>
      <point x="617" y="449.5" type="qcurve"/>
      <point x="670" y="596"/>
      <point x="670" y="722" type="qcurve"/>
      <point x="670" y="866"/>
      <point x="686" y="866" type="qcurve"/>
      <point x="724" y="866"/>
      <point x="746" y="788" type="qcurve"/>
      <point x="768" y="710"/>
      <point x="768" y="618" type="qcurve"/>
      <point x="768" y="461"/>
      <point x="725" y="329.5" type="qcurve"/>
      <point x="682" y="198"/>
      <point x="576" y="86" type="qcurve"/>
      <point x="470" y="-26"/>
      <point x="292" y="-26" type="qcurve"/>
      <point x="222" y="-26"/>
      <point x="173" y="19" type="qcurve"/>
      <point x="124" y="64"/>
    </contour>
  </outline>
</glyph>
<glyph name="phi" format="1">
  <advance width="1166"/>
  <unicode hex="03C6"/>
  <outline>
    <contour>
      <point x="80" y="383" type="qcurve"/>
      <point x="80" y="581"/>
      <point x="174" y="753" type="qcurve"/>
      <point x="268" y="925"/>
      <point x="415.5" y="1026.5" type="qcurve"/>
      <point x="563" y="1128"/>
      <point x="712" y="1128" type="qcurve"/>
      <point x="820" y="1128"/>
      <point x="820" y="1042" type="qcurve"/>
      <point x="966" y="1019"/>
      <point x="1024" y="918" type="qcurve"/>
      <point x="1082" y="817"/>
      <point x="1082" y="662" type="qcurve"/>
      <point x="1082" y="500"/>
      <point x="1025" y="363" type="qcurve"/>
      <point x="968" y="226"/>
      <point x="834.5" y="97.5" type="qcurve"/>
      <point x="701" y="-31"/>
      <point x="477" y="-65" type="qcurve"/>
      <point x="466" y="-176"/>
      <point x="466" y="-343.5" type="qcurve"/>
      <point x="466" y="-511"/>
      <point x="468" y="-552" type="qcurve"/>
      <point x="468" y="-578"/>
      <point x="402" y="-578" type="qcurve"/>
      <point x="336" y="-578"/>
      <point x="335" y="-549" type="qcurve"/>
      <point x="334" y="-454"/>
      <point x="334" y="-325" type="qcurve"/>
      <point x="334" y="-196"/>
      <point x="353" y="-56" type="qcurve"/>
      <point x="264" y="-27"/>
      <point x="172" y="83.5" type="qcurve"/>
      <point x="80" y="194"/>
    </contour>
    <contour>
      <point x="613" y="880" type="qcurve"/>
      <point x="586" y="883"/>
      <point x="561" y="883" type="qcurve"/>
      <point x="390" y="883"/>
      <point x="274.5" y="735.5" type="qcurve"/>
      <point x="159" y="588"/>
      <point x="159" y="430" type="qcurve"/>
      <point x="159" y="291"/>
      <point x="236" y="222" type="qcurve"/>
      <point x="313" y="153"/>
      <point x="385" y="149" type="qcurve"/>
      <point x="417" y="304"/>
      <point x="440" y="393" type="qcurve"/>
      <point x="463" y="482"/>
      <point x="504" y="617" type="qcurve"/>
      <point x="545" y="752"/>
    </contour>
    <contour>
      <point x="497" y="137" type="qcurve"/>
      <point x="780" y="154"/>
      <point x="874" y="270.5" type="qcurve"/>
      <point x="968" y="387"/>
      <point x="968" y="603" type="qcurve"/>
      <point x="968" y="696"/>
      <point x="936" y="767.5" type="qcurve"/>
      <point x="904" y="839"/>
      <point x="829" y="839" type="qcurve"/>
      <point x="725" y="839"/>
      <point x="645" y="679.5" type="qcurve"/>
      <point x="565" y="520"/>
      <point x="537" y="400" type="qcurve"/>
      <point x="509" y="280"/>
    </contour>
  </outline>
</glyph>
<glyph name="chi" format="1">
  <advance width="989"/>
  <unicode hex="03C7"/>
  <outline>
    <contour>
      <point x="505" y="-82" type="qcurve"/>
      <point x="479" y="83" type="line"/>
      <point x="24" y="-455" type="line"/>
      <point x="15" y="-466"/>
      <point x="1" y="-466" type="qcurve"/>
      <point x="-22" y="-466"/>
      <point x="-60" y="-432" type="qcurve"/>
      <point x="-98" y="-398"/>
      <point x="-98" y="-374" type="qcurve"/>
      <point x="-98" y="-365"/>
      <point x="-92" y="-358" type="qcurve"/>
      <point x="451" y="287" type="line"/>
      <point x="428" y="439" type="line"/>
      <point x="402" y="611"/>
      <point x="373" y="673" type="qcurve"/>
      <point x="344" y="735"/>
      <point x="278" y="735" type="qcurve"/>
      <point x="250" y="735"/>
      <point x="224" y="710.5" type="qcurve"/>
      <point x="198" y="686"/>
      <point x="169" y="686" type="qcurve"/>
      <point x="135" y="686"/>
      <point x="107.5" y="706.5" type="qcurve"/>
      <point x="80" y="727"/>
      <point x="80" y="765" type="qcurve"/>
      <point x="80" y="803"/>
      <point x="110" y="839" type="qcurve"/>
      <point x="140" y="875"/>
      <point x="222" y="875" type="qcurve"/>
      <point x="346" y="875"/>
      <point x="413" y="794.5" type="qcurve"/>
      <point x="480" y="714"/>
      <point x="502" y="564" type="qcurve"/>
      <point x="530" y="375" type="line"/>
      <point x="911" y="826" type="line"/>
      <point x="917" y="833"/>
      <point x="926" y="833" type="qcurve"/>
      <point x="947" y="832"/>
      <point x="988.5" y="795.5" type="qcurve"/>
      <point x="1030" y="759"/>
      <point x="1030" y="739" type="qcurve"/>
      <point x="1030" y="733"/>
      <point x="1026" y="729" type="qcurve"/>
      <point x="559" y="176" type="line"/>
      <point x="585" y="-5" type="line"/>
      <point x="613" y="-197"/>
      <point x="669" y="-260.5" type="qcurve"/>
      <point x="725" y="-324"/>
      <point x="777" y="-324" type="qcurve"/>
      <point x="900" y="-324"/>
      <point x="992" y="-221" type="qcurve"/>
      <point x="1084" y="-118"/>
      <point x="1109" y="-118" type="qcurve"/>
      <point x="1141" y="-118"/>
      <point x="1141" y="-150" type="qcurve"/>
      <point x="1141" y="-252"/>
      <point x="1095" y="-324" type="qcurve"/>
      <point x="1049" y="-396"/>
      <point x="974" y="-434" type="qcurve"/>
      <point x="899" y="-472"/>
      <point x="815" y="-472" type="qcurve"/>
      <point x="683" y="-472"/>
      <point x="612.5" y="-393.5" type="qcurve"/>
      <point x="542" y="-315"/>
    </contour>
  </outline>
</glyph>
<glyph name="psi" format="1">
  <advance width="1145"/>
  <unicode hex="03C8"/>
  <outline>
    <contour>
      <point x="624" y="-389" type="qcurve"/>
      <point x="624" y="-243"/>
      <point x="627" y="-23" type="qcurve"/>
      <point x="430" y="0"/>
      <point x="337" y="134" type="qcurve"/>
      <point x="244" y="268"/>
      <point x="230" y="400.5" type="qcurve"/>
      <point x="216" y="533"/>
      <point x="187" y="533" type="qcurve"/>
      <point x="172" y="533"/>
      <point x="151.5" y="511.5" type="qcurve"/>
      <point x="131" y="490"/>
      <point x="99" y="490" type="qcurve"/>
      <point x="69" y="490"/>
      <point x="46.5" y="515" type="qcurve"/>
      <point x="24" y="540"/>
      <point x="24" y="580" type="qcurve"/>
      <point x="24" y="630"/>
      <point x="66" y="663.5" type="qcurve"/>
      <point x="108" y="697"/>
      <point x="166" y="697" type="qcurve"/>
      <point x="252" y="697"/>
      <point x="309" y="501.5" type="qcurve"/>
      <point x="366" y="306"/>
      <point x="454" y="220" type="qcurve"/>
      <point x="542" y="134"/>
      <point x="629" y="117" type="qcurve"/>
      <point x="629" y="312"/>
      <point x="637" y="775" type="qcurve"/>
      <point x="645" y="1238"/>
      <point x="663.5" y="1361" type="qcurve"/>
      <point x="682" y="1484"/>
      <point x="731" y="1484" type="qcurve"/>
      <point x="812" y="1484"/>
      <point x="812" y="1251" type="qcurve"/>
      <point x="812" y="1104"/>
      <point x="760" y="706.5" type="qcurve"/>
      <point x="708" y="309"/>
      <point x="708" y="117" type="qcurve"/>
      <point x="807" y="123"/>
      <point x="878.5" y="173.5" type="qcurve"/>
      <point x="950" y="224"/>
      <point x="1038" y="328" type="qcurve"/>
      <point x="1048" y="340"/>
      <point x="1065" y="340" type="qcurve"/>
      <point x="1079" y="340"/>
      <point x="1079" y="314" type="qcurve"/>
      <point x="1079" y="288"/>
      <point x="1070" y="270" type="qcurve"/>
      <point x="1025" y="183"/>
      <point x="928" y="91.5" type="qcurve"/>
      <point x="831" y="0"/>
      <point x="710" y="-19" type="qcurve"/>
      <point x="715" y="-264"/>
      <point x="733" y="-399" type="qcurve"/>
      <point x="733" y="-432"/>
      <point x="678.5" y="-432" type="qcurve"/>
      <point x="624" y="-432"/>
    </contour>
  </outline>
</glyph>
<glyph name="iotadieresis" format="1">
  <advance width="445"/>
  <unicode hex="03CA"/>
  <outline>
    <contour>
      <point x="40" y="105" type="qcurve"/>
      <point x="40" y="153"/>
      <point x="64" y="237" type="qcurve"/>
      <point x="232" y="825" type="line"/>
      <point x="245" y="870"/>
      <point x="308" y="870" type="qcurve"/>
      <point x="353" y="870"/>
      <point x="369" y="850.5" type="qcurve"/>
      <point x="385" y="831"/>
      <point x="385" y="792" type="qcurve"/>
      <point x="385" y="742"/>
      <point x="286" y="543" type="qcurve"/>
      <point x="187" y="344"/>
      <point x="175" y="250" type="qcurve"/>
      <point x="204" y="262"/>
      <point x="250" y="262" type="qcurve"/>
      <point x="286" y="262"/>
      <point x="307" y="233" type="qcurve"/>
      <point x="328" y="204"/>
      <point x="328" y="172" type="qcurve"/>
      <point x="328" y="98"/>
      <point x="278" y="34.5" type="qcurve"/>
      <point x="228" y="-29"/>
      <point x="159" y="-29" type="qcurve"/>
      <point x="104" y="-29"/>
      <point x="72" y="2.5" type="qcurve"/>
      <point x="40" y="34"/>
    </contour>
    <contour>
      <point x="245" y="1156" type="qcurve"/>
      <point x="245" y="1111"/>
      <point x="213.5" y="1079.5" type="qcurve"/>
      <point x="182" y="1048"/>
      <point x="137.5" y="1048" type="qcurve"/>
      <point x="93" y="1048"/>
      <point x="61.5" y="1079.5" type="qcurve"/>
      <point x="30" y="1111"/>
      <point x="30" y="1156" type="qcurve"/>
      <point x="30" y="1201"/>
      <point x="61.5" y="1232.5" type="qcurve"/>
      <point x="93" y="1264"/>
      <point x="137.5" y="1264" type="qcurve"/>
      <point x="182" y="1264"/>
      <point x="213.5" y="1232.5" type="qcurve"/>
      <point x="245" y="1201"/>
    </contour>
    <contour>
      <point x="626" y="1156" type="qcurve"/>
      <point x="626" y="1111"/>
      <point x="594.5" y="1079.5" type="qcurve"/>
      <point x="563" y="1048"/>
      <point x="518.5" y="1048" type="qcurve"/>
      <point x="474" y="1048"/>
      <point x="442.5" y="1079.5" type="qcurve"/>
      <point x="411" y="1111"/>
      <point x="411" y="1156" type="qcurve"/>
      <point x="411" y="1201"/>
      <point x="442.5" y="1232.5" type="qcurve"/>
      <point x="474" y="1264"/>
      <point x="518.5" y="1264" type="qcurve"/>
      <point x="563" y="1264"/>
      <point x="594.5" y="1232.5" type="qcurve"/>
      <point x="626" y="1201"/>
    </contour>
  </outline>
</glyph>
<glyph name="upsilontonos" format="1">
  <advance width="837"/>
  <unicode hex="03CD"/>
  <outline>
    <contour>
      <point x="124" y="154" type="qcurve"/>
      <point x="124" y="234"/>
      <point x="161.5" y="373.5" type="qcurve"/>
      <point x="199" y="513"/>
      <point x="206" y="592" type="qcurve"/>
      <point x="172" y="580"/>
      <point x="138" y="580" type="qcurve"/>
      <point x="94" y="580"/>
      <point x="74" y="610.5" type="qcurve"/>
      <point x="54" y="641"/>
      <point x="54" y="670" type="qcurve"/>
      <point x="54" y="743"/>
      <point x="86" y="789.5" type="qcurve"/>
      <point x="118" y="836"/>
      <point x="150" y="853" type="qcurve"/>
      <point x="182" y="870"/>
      <point x="238" y="871" type="qcurve"/>
      <point x="264" y="871"/>
      <point x="288" y="854.5" type="qcurve"/>
      <point x="312" y="838"/>
      <point x="312" y="790" type="qcurve"/>
      <point x="312" y="710"/>
      <point x="275" y="566.5" type="qcurve"/>
      <point x="238" y="423"/>
      <point x="238" y="316" type="qcurve"/>
      <point x="238" y="232"/>
      <point x="258.5" y="188" type="qcurve"/>
      <point x="279" y="144"/>
      <point x="326" y="144" type="qcurve"/>
      <point x="412" y="144"/>
      <point x="488" y="223.5" type="qcurve"/>
      <point x="564" y="303"/>
      <point x="617" y="449.5" type="qcurve"/>
      <point x="670" y="596"/>
      <point x="670" y="722" type="qcurve"/>
      <point x="670" y="866"/>
      <point x="686" y="866" type="qcurve"/>
      <point x="724" y="866"/>
      <point x="746" y="788" type="qcurve"/>
      <point x="768" y="710"/>
      <point x="768" y="618" type="qcurve"/>
      <point x="768" y="461"/>
      <point x="725" y="329.5" type="qcurve"/>
      <point x="682" y="198"/>
      <point x="576" y="86" type="qcurve"/>
      <point x="470" y="-26"/>
      <point x="292" y="-26" type="qcurve"/>
      <point x="222" y="-26"/>
      <point x="173" y="19" type="qcurve"/>
      <point x="124" y="64"/>
    </contour>
    <contour>
      <point x="419" y="1028" type="qcurve"/>
      <point x="405" y="1028"/>
      <point x="405" y="1049" type="qcurve"/>
      <point x="405" y="1056"/>
      <point x="406" y="1062" type="qcurve"/>
      <point x="518" y="1542" type="line"/>
      <point x="536" y="1619"/>
      <point x="565" y="1620" type="qcurve"/>
      <point x="588" y="1620"/>
      <point x="609.5" y="1588" type="qcurve"/>
      <point x="631" y="1556"/>
      <point x="631" y="1532" type="qcurve"/>
      <point x="631" y="1508"/>
      <point x="595" y="1400" type="qcurve"/>
      <point x="519" y="1170" type="line"/>
      <point x="472" y="1028"/>
    </contour>
  </outline>
</glyph>
<glyph name="omegatonos" format="1">
  <advance width="1194"/>
  <unicode hex="03CE"/>
  <outline>
    <contour>
      <point x="80" y="226" type="qcurve"/>
      <point x="80" y="369"/>
      <point x="148" y="520.5" type="qcurve"/>
      <point x="216" y="672"/>
      <point x="301.5" y="771" type="qcurve"/>
      <point x="387" y="870"/>
      <point x="457" y="870" type="qcurve"/>
      <point x="512" y="870"/>
      <point x="540" y="849.5" type="qcurve"/>
      <point x="568" y="829"/>
      <point x="568" y="797" type="qcurve"/>
      <point x="568" y="765"/>
      <point x="492.5" y="709.5" type="qcurve"/>
      <point x="417" y="654"/>
      <point x="340.5" y="570" type="qcurve"/>
      <point x="264" y="486"/>
      <point x="206.5" y="383" type="qcurve"/>
      <point x="149" y="280"/>
      <point x="149" y="205" type="qcurve"/>
      <point x="149" y="164"/>
      <point x="174.5" y="136" type="qcurve"/>
      <point x="200" y="108"/>
      <point x="260" y="108" type="qcurve"/>
      <point x="350" y="108"/>
      <point x="418" y="190" type="qcurve"/>
      <point x="486" y="272"/>
      <point x="531.5" y="386.5" type="qcurve"/>
      <point x="577" y="501"/>
      <point x="589" y="536" type="qcurve"/>
      <point x="611" y="607"/>
      <point x="674" y="607" type="qcurve"/>
      <point x="689" y="607"/>
      <point x="713" y="601.5" type="qcurve"/>
      <point x="737" y="596"/>
      <point x="757" y="581" type="qcurve"/>
      <point x="777" y="566"/>
      <point x="777" y="539" type="qcurve"/>
      <point x="777" y="527"/>
      <point x="770" y="503.5" type="qcurve"/>
      <point x="763" y="480"/>
      <point x="696" y="347" type="qcurve"/>
      <point x="629" y="214"/>
      <point x="570" y="148" type="qcurve"/>
      <point x="594" y="108"/>
      <point x="664.5" y="108" type="qcurve"/>
      <point x="735" y="108"/>
      <point x="812.5" y="186" type="qcurve"/>
      <point x="890" y="264"/>
      <point x="936" y="362" type="qcurve"/>
      <point x="982" y="460"/>
      <point x="982" y="567.5" type="qcurve"/>
      <point x="982" y="675"/>
      <point x="967" y="737.5" type="qcurve"/>
      <point x="952" y="800"/>
      <point x="952" y="815" type="qcurve"/>
      <point x="952" y="860"/>
      <point x="992" y="860" type="qcurve"/>
      <point x="1016" y="860"/>
      <point x="1073" y="762" type="qcurve"/>
      <point x="1130" y="664"/>
      <point x="1130" y="521" type="qcurve"/>
      <point x="1130" y="378"/>
      <point x="1071" y="259" type="qcurve"/>
      <point x="1012" y="140"/>
      <point x="919" y="58.5" type="qcurve"/>
      <point x="826" y="-23"/>
      <point x="715" y="-23" type="qcurve"/>
      <point x="638" y="-23"/>
      <point x="584" y="4.5" type="qcurve"/>
      <point x="530" y="32"/>
      <point x="510" y="76" type="qcurve"/>
      <point x="484" y="36"/>
      <point x="429" y="5.5" type="qcurve"/>
      <point x="374" y="-25"/>
      <point x="310" y="-25" type="qcurve"/>
      <point x="214" y="-25"/>
      <point x="147" y="25" type="qcurve"/>
      <point x="80" y="75"/>
    </contour>
    <contour>
      <point x="704" y="1028" type="qcurve"/>
      <point x="690" y="1028"/>
      <point x="690" y="1049" type="qcurve"/>
      <point x="690" y="1056"/>
      <point x="692" y="1062" type="qcurve"/>
      <point x="803" y="1542" type="line"/>
      <point x="821" y="1619"/>
      <point x="851" y="1620" type="qcurve"/>
      <point x="874" y="1620"/>
      <point x="895.5" y="1588" type="qcurve"/>
      <point x="917" y="1556"/>
      <point x="917" y="1532" type="qcurve"/>
      <point x="917" y="1508"/>
      <point x="881" y="1400" type="qcurve"/>
      <point x="804" y="1170" type="line"/>
      <point x="757" y="1028"/>
    </contour>
  </outline>
</glyph>
<glyph name="uni03D0" format="1">
  <advance width="684"/>
  <unicode hex="03D0"/>
  <outline>
    <contour>
      <point x="66" y="506" type="qcurve"/>
      <point x="66" y="903"/>
      <point x="232.5" y="1194" type="qcurve"/>
      <point x="399" y="1485"/>
      <point x="582" y="1485" type="qcurve"/>
      <point x="690" y="1485"/>
      <point x="742.5" y="1417.5" type="qcurve"/>
      <point x="795" y="1350"/>
      <point x="795" y="1263" type="qcurve"/>
      <point x="795" y="1161"/>
      <point x="717" y="1111.5" type="qcurve"/>
      <point x="639" y="1062"/>
      <point x="546" y="1062" type="qcurve"/>
      <point x="492" y="1062"/>
      <point x="417.5" y="1086.5" type="qcurve"/>
      <point x="343" y="1111"/>
      <point x="331" y="1119" type="qcurve"/>
      <point x="236" y="954"/>
      <point x="195" y="795" type="qcurve"/>
      <point x="154" y="636"/>
      <point x="154" y="459" type="qcurve"/>
      <point x="154" y="387"/>
      <point x="171" y="319" type="qcurve"/>
      <point x="204" y="354"/>
      <point x="277.5" y="394.5" type="qcurve"/>
      <point x="351" y="435"/>
      <point x="411" y="435" type="qcurve"/>
      <point x="537" y="435"/>
      <point x="591" y="366" type="qcurve"/>
      <point x="645" y="297"/>
      <point x="645" y="211" type="qcurve"/>
      <point x="645" y="129"/>
      <point x="595.5" y="53" type="qcurve"/>
      <point x="546" y="-23"/>
      <point x="423" y="-23" type="qcurve"/>
      <point x="264" y="-23"/>
      <point x="165" y="122" type="qcurve"/>
      <point x="66" y="267"/>
    </contour>
    <contour>
      <point x="369" y="1178" type="qcurve"/>
      <point x="430" y="1165"/>
      <point x="515" y="1165" type="qcurve"/>
      <point x="594" y="1165"/>
      <point x="652.5" y="1210" type="qcurve"/>
      <point x="711" y="1255"/>
      <point x="711" y="1294" type="qcurve"/>
      <point x="711" y="1319"/>
      <point x="696" y="1335" type="qcurve"/>
      <point x="681" y="1351"/>
      <point x="638" y="1351" type="qcurve"/>
      <point x="599" y="1351"/>
      <point x="549" y="1333" type="qcurve"/>
      <point x="499" y="1315"/>
      <point x="448" y="1268.5" type="qcurve"/>
      <point x="397" y="1222"/>
    </contour>
    <contour>
      <point x="240" y="178" type="qcurve"/>
      <point x="266" y="148"/>
      <point x="305.5" y="130.5" type="qcurve"/>
      <point x="345" y="113"/>
      <point x="394" y="113" type="qcurve"/>
      <point x="448" y="113"/>
      <point x="494.5" y="144" type="qcurve"/>
      <point x="541" y="175"/>
      <point x="558" y="203" type="qcurve"/>
      <point x="575" y="231"/>
      <point x="575" y="253" type="qcurve"/>
      <point x="575" y="284"/>
      <point x="551.5" y="301.5" type="qcurve"/>
      <point x="528" y="319"/>
      <point x="484" y="319" type="qcurve"/>
      <point x="420" y="319"/>
      <point x="353.5" y="272" type="qcurve"/>
      <point x="287" y="225"/>
    </contour>
  </outline>
</glyph>
<glyph name="theta1" format="1">
  <advance width="1110"/>
  <unicode hex="03D1"/>
  <outline>
    <contour>
      <point x="138" y="1170" type="qcurve"/>
      <point x="138" y="1263"/>
      <point x="210" y="1326" type="qcurve"/>
      <point x="282" y="1389"/>
      <point x="366" y="1389" type="qcurve"/>
      <point x="501" y="1389"/>
      <point x="592" y="1332" type="qcurve"/>
      <point x="683" y="1275"/>
      <point x="758.5" y="1146" type="qcurve"/>
      <point x="834" y="1017"/>
      <point x="858" y="873" type="qcurve"/>
      <point x="935" y="883"/>
      <point x="982" y="906" type="qcurve"/>
      <point x="988" y="909"/>
      <point x="993" y="909" type="qcurve"/>
      <point x="1018" y="909"/>
      <point x="1050" y="855" type="qcurve"/>
      <point x="1071" y="819"/>
      <point x="1071" y="799" type="qcurve"/>
      <point x="1071" y="779"/>
      <point x="1056" y="772" type="qcurve"/>
      <point x="986" y="739"/>
      <point x="882" y="733" type="qcurve"/>
      <point x="894" y="662"/>
      <point x="894" y="539" type="qcurve"/>
      <point x="894" y="439"/>
      <point x="864.5" y="320.5" type="qcurve"/>
      <point x="835" y="202"/>
      <point x="766" y="100" type="qcurve"/>
      <point x="697" y="-2"/>
      <point x="606" y="-2" type="qcurve"/>
      <point x="518" y="-2"/>
      <point x="421" y="127" type="qcurve"/>
      <point x="324" y="256"/>
      <point x="283" y="256" type="qcurve"/>
      <point x="252" y="256"/>
      <point x="222.5" y="223.5" type="qcurve"/>
      <point x="193" y="191"/>
      <point x="186" y="124" type="qcurve"/>
      <point x="183" y="93"/>
      <point x="157" y="93" type="qcurve"/>
      <point x="134" y="93"/>
      <point x="98.5" y="114" type="qcurve"/>
      <point x="63" y="135"/>
      <point x="55" y="153" type="qcurve"/>
      <point x="49" y="166"/>
      <point x="49" y="183" type="qcurve"/>
      <point x="49" y="238"/>
      <point x="105.5" y="315" type="qcurve"/>
      <point x="162" y="392"/>
      <point x="224" y="392" type="qcurve"/>
      <point x="306" y="392"/>
      <point x="399" y="263" type="qcurve"/>
      <point x="492" y="134"/>
      <point x="546" y="134" type="qcurve"/>
      <point x="604" y="134"/>
      <point x="658.5" y="196" type="qcurve"/>
      <point x="713" y="258"/>
      <point x="755.5" y="373.5" type="qcurve"/>
      <point x="798" y="489"/>
      <point x="798" y="622" type="qcurve"/>
      <point x="798" y="689"/>
      <point x="795" y="731" type="qcurve"/>
      <point x="560" y="731"/>
      <point x="422.5" y="787" type="qcurve"/>
      <point x="285" y="843"/>
      <point x="211.5" y="942" type="qcurve"/>
      <point x="138" y="1041"/>
    </contour>
    <contour>
      <point x="234" y="1114" type="qcurve"/>
      <point x="234" y="1041"/>
      <point x="299" y="976.5" type="qcurve"/>
      <point x="364" y="912"/>
      <point x="487.5" y="889.5" type="qcurve"/>
      <point x="611" y="867"/>
      <point x="754" y="867" type="qcurve"/>
      <point x="778" y="868" type="line"/>
      <point x="773" y="914"/>
      <point x="738" y="1016" type="qcurve"/>
      <point x="703" y="1118"/>
      <point x="626" y="1185.5" type="qcurve"/>
      <point x="549" y="1253"/>
      <point x="422" y="1253" type="qcurve"/>
      <point x="354" y="1253"/>
      <point x="294" y="1217.5" type="qcurve"/>
      <point x="234" y="1182"/>
    </contour>
  </outline>
</glyph>
<glyph name="phi1" format="1">
  <advance width="1244"/>
  <unicode hex="03D5"/>
  <outline>
    <contour>
      <point x="58" y="486" type="qcurve"/>
      <point x="58" y="576"/>
      <point x="117" y="686" type="qcurve"/>
      <point x="176" y="796"/>
      <point x="306" y="888" type="qcurve"/>
      <point x="436" y="980"/>
      <point x="618" y="1014" type="qcurve"/>
      <point x="639" y="1169" type="line"/>
      <point x="643" y="1199"/>
      <point x="735" y="1199" type="qcurve"/>
      <point x="827" y="1199"/>
      <point x="827" y="1162" type="qcurve"/>
      <point x="803" y="987" type="line"/>
      <point x="903" y="965"/>
      <point x="979" y="900" type="qcurve"/>
      <point x="1055" y="835"/>
      <point x="1122.5" y="727.5" type="qcurve"/>
      <point x="1190" y="620"/>
      <point x="1190" y="466" type="qcurve"/>
      <point x="1190" y="350"/>
      <point x="1118" y="233" type="qcurve"/>
      <point x="1046" y="116"/>
      <point x="930" y="53.5" type="qcurve"/>
      <point x="814" y="-9"/>
      <point x="656" y="-17" type="qcurve"/>
      <point x="588" y="-481" type="line"/>
      <point x="579" y="-541"/>
      <point x="555" y="-579.5" type="qcurve"/>
      <point x="531" y="-618"/>
      <point x="501.5" y="-618" type="qcurve"/>
      <point x="472" y="-618"/>
      <point x="462.5" y="-579.5" type="qcurve"/>
      <point x="453" y="-541"/>
      <point x="453" y="-512.5" type="qcurve"/>
      <point x="453" y="-484"/>
      <point x="455" y="-463" type="qcurve"/>
      <point x="507" y="-1" type="line"/>
      <point x="380" y="24"/>
      <point x="288" y="78" type="qcurve"/>
      <point x="196" y="132"/>
      <point x="127" y="228" type="qcurve"/>
      <point x="58" y="324"/>
    </contour>
    <contour>
      <point x="196" y="408" type="qcurve"/>
      <point x="196" y="300"/>
      <point x="248" y="225.5" type="qcurve"/>
      <point x="300" y="151"/>
      <point x="376" y="121.5" type="qcurve"/>
      <point x="452" y="92"/>
      <point x="515" y="78" type="qcurve"/>
      <point x="604" y="892" type="line"/>
      <point x="470" y="854"/>
      <point x="371" y="755" type="qcurve"/>
      <point x="272" y="656"/>
      <point x="234" y="578" type="qcurve"/>
      <point x="196" y="500"/>
    </contour>
    <contour>
      <point x="672" y="92" type="line"/>
      <point x="766" y="110"/>
      <point x="839.5" y="158" type="qcurve"/>
      <point x="913" y="206"/>
      <point x="980.5" y="311" type="qcurve"/>
      <point x="1048" y="416"/>
      <point x="1048" y="534" type="qcurve"/>
      <point x="1048" y="643"/>
      <point x="1010" y="710" type="qcurve"/>
      <point x="972" y="777"/>
      <point x="927" y="820.5" type="qcurve"/>
      <point x="882" y="864"/>
      <point x="788" y="894" type="qcurve"/>
    </contour>
  </outline>
</glyph>
<glyph name="omega1" format="1">
  <advance width="1194"/>
  <unicode hex="03D6"/>
  <outline>
    <contour>
      <point x="80" y="226" type="qcurve"/>
      <point x="80" y="368"/>
      <point x="139" y="499.5" type="qcurve"/>
      <point x="198" y="631"/>
      <point x="257" y="715" type="qcurve"/>
      <point x="91" y="715"/>
      <point x="63" y="694" type="qcurve"/>
      <point x="35" y="673"/>
      <point x="35" y="661" type="qcurve"/>
      <point x="35" y="649"/>
      <point x="50.5" y="628.5" type="qcurve"/>
      <point x="66" y="608"/>
      <point x="76" y="575" type="qcurve"/>
      <point x="86" y="542"/>
      <point x="86" y="512" type="qcurve"/>
      <point x="86" y="466"/>
      <point x="16" y="466" type="qcurve"/>
      <point x="-32" y="466"/>
      <point x="-60.5" y="502" type="qcurve"/>
      <point x="-89" y="538"/>
      <point x="-89" y="587" type="qcurve"/>
      <point x="-89" y="652"/>
      <point x="-71" y="707" type="qcurve"/>
      <point x="-53" y="762"/>
      <point x="-25" y="794" type="qcurve"/>
      <point x="3" y="826"/>
      <point x="53" y="848" type="qcurve"/>
      <point x="103" y="870"/>
      <point x="237" y="870" type="qcurve"/>
      <point x="1023" y="852" type="line"/>
      <point x="1118" y="852"/>
      <point x="1131.5" y="883" type="qcurve"/>
      <point x="1145" y="914"/>
      <point x="1159.5" y="928.5" type="qcurve"/>
      <point x="1174" y="943"/>
      <point x="1186" y="943" type="qcurve"/>
      <point x="1212" y="943"/>
      <point x="1221" y="922" type="qcurve"/>
      <point x="1230" y="901"/>
      <point x="1230" y="864" type="qcurve"/>
      <point x="1230" y="741"/>
      <point x="1099" y="710" type="qcurve"/>
      <point x="1130" y="628"/>
      <point x="1130" y="521" type="qcurve"/>
      <point x="1130" y="378"/>
      <point x="1071" y="259" type="qcurve"/>
      <point x="1012" y="140"/>
      <point x="919" y="58.5" type="qcurve"/>
      <point x="826" y="-23"/>
      <point x="715" y="-23" type="qcurve"/>
      <point x="650" y="-23"/>
      <point x="597.5" y="9" type="qcurve"/>
      <point x="545" y="41"/>
      <point x="517" y="83" type="qcurve"/>
      <point x="489" y="48"/>
      <point x="428" y="11.5" type="qcurve"/>
      <point x="367" y="-25"/>
      <point x="310" y="-25" type="qcurve"/>
      <point x="214" y="-25"/>
      <point x="147" y="25" type="qcurve"/>
      <point x="80" y="75"/>
    </contour>
    <contour>
      <point x="974" y="699" type="qcurve"/>
      <point x="493" y="710" type="line"/>
      <point x="417" y="654"/>
      <point x="340.5" y="570" type="qcurve"/>
      <point x="264" y="486"/>
      <point x="206.5" y="383" type="qcurve"/>
      <point x="149" y="280"/>
      <point x="149" y="205" type="qcurve"/>
      <point x="149" y="164"/>
      <point x="174.5" y="136" type="qcurve"/>
      <point x="200" y="108"/>
      <point x="260" y="108" type="qcurve"/>
      <point x="350" y="108"/>
      <point x="418" y="190" type="qcurve"/>
      <point x="486" y="272"/>
      <point x="531.5" y="386.5" type="qcurve"/>
      <point x="577" y="501"/>
      <point x="589" y="536" type="qcurve"/>
      <point x="616" y="606"/>
      <point x="664" y="606" type="qcurve"/>
      <point x="712" y="606"/>
      <point x="744.5" y="588" type="qcurve"/>
      <point x="777" y="570"/>
      <point x="777" y="545" type="qcurve"/>
      <point x="777" y="520"/>
      <point x="768.5" y="496" type="qcurve"/>
      <point x="760" y="472"/>
      <point x="695.5" y="347" type="qcurve"/>
      <point x="631" y="222"/>
      <point x="588" y="167" type="qcurve"/>
      <point x="608" y="108"/>
      <point x="660" y="108" type="qcurve"/>
      <point x="735" y="108"/>
      <point x="812.5" y="186" type="qcurve"/>
      <point x="890" y="264"/>
      <point x="936" y="362" type="qcurve"/>
      <point x="982" y="460"/>
      <point x="982" y="582" type="qcurve"/>
      <point x="982" y="648"/>
    </contour>
  </outline>
</glyph>
<glyph name="uni03D8" format="1">
  <advance width="1461"/>
  <unicode hex="03D8"/>
  <outline>
    <contour>
      <point x="282" y="681" type="qcurve"/>
      <point x="282" y="371"/>
      <point x="432" y="209.5" type="qcurve"/>
      <point x="582" y="48"/>
      <point x="749" y="48" type="qcurve"/>
      <point x="961" y="48"/>
      <point x="1076.5" y="198.5" type="qcurve"/>
      <point x="1192" y="349"/>
      <point x="1192" y="602" type="qcurve"/>
      <point x="1192" y="841"/>
      <point x="1046.5" y="1032.5" type="qcurve"/>
      <point x="901" y="1224"/>
      <point x="727" y="1224" type="qcurve"/>
      <point x="517" y="1224"/>
      <point x="399.5" y="1045.5" type="qcurve"/>
      <point x="282" y="867"/>
    </contour>
    <contour>
      <point x="91" y="622" type="qcurve"/>
      <point x="91" y="845"/>
      <point x="267" y="1070" type="qcurve"/>
      <point x="443" y="1295"/>
      <point x="740" y="1295" type="qcurve"/>
      <point x="1006" y="1295"/>
      <point x="1194.5" y="1089.5" type="qcurve"/>
      <point x="1383" y="884"/>
      <point x="1383" y="618" type="qcurve"/>
      <point x="1383" y="362"/>
      <point x="1209" y="167.5" type="qcurve"/>
      <point x="1063.22" y="4.54613"/>
      <point x="829" y="-21.8835" type="qcurve"/>
      <point x="829" y="-542.3" type="line"/>
      <point x="829" y="-560.3"/>
      <point x="749" y="-560.3" type="qcurve"/>
      <point x="669" y="-560.3"/>
      <point x="669" y="-542.3" type="qcurve"/>
      <point x="669" y="-24.5259" type="line"/>
      <point x="424.391" y="-5.75073"/>
      <point x="268" y="155.5" type="qcurve"/>
      <point x="91" y="338"/>
    </contour>
  </outline>
</glyph>
<glyph name="uni03D9" format="1">
  <advance width="995"/>
  <unicode hex="03D9"/>
  <outline>
    <contour>
      <point x="247" y="422" type="qcurve"/>
      <point x="247" y="244"/>
      <point x="328.5" y="143.5" type="qcurve"/>
      <point x="410" y="43"/>
      <point x="504" y="43" type="qcurve"/>
      <point x="600" y="43"/>
      <point x="680.5" y="144.5" type="qcurve"/>
      <point x="761" y="246"/>
      <point x="761" y="422" type="qcurve"/>
      <point x="761" y="598"/>
      <point x="681" y="704" type="qcurve"/>
      <point x="601" y="810"/>
      <point x="506" y="811" type="qcurve"/>
      <point x="410" y="811"/>
      <point x="328.5" y="705.5" type="qcurve"/>
      <point x="247" y="600"/>
    </contour>
    <contour>
      <point x="84" y="428" type="qcurve"/>
      <point x="84" y="596"/>
      <point x="209" y="733" type="qcurve"/>
      <point x="334" y="870"/>
      <point x="508" y="870" type="qcurve"/>
      <point x="682" y="870"/>
      <point x="803" y="733" type="qcurve"/>
      <point x="924" y="596"/>
      <point x="924" y="420" type="qcurve"/>
      <point x="924" y="264"/>
      <point x="832" y="134.5" type="qcurve"/>
      <point x="740" y="5"/>
      <point x="582" y="-18.4672" type="qcurve"/>
      <point x="582" y="-363.263" type="line"/>
      <point x="582" y="-381.263"/>
      <point x="505.5" y="-381.263" type="qcurve"/>
      <point x="429" y="-381.263"/>
      <point x="429" y="-363.263" type="qcurve"/>
      <point x="429" y="-14.5791" type="line"/>
      <point x="280" y="17"/>
      <point x="182" y="147.5" type="qcurve"/>
      <point x="84" y="278"/>
    </contour>
  </outline>
</glyph>
<glyph name="uni03DA" format="1">
  <advance width="1147"/>
  <unicode hex="03DA"/>
  <outline>
    <contour>
      <point x="82" y="574" type="qcurve"/>
      <point x="82" y="870"/>
      <point x="290" y="1106.5" type="qcurve"/>
      <point x="498" y="1343"/>
      <point x="874" y="1343" type="qcurve"/>
      <point x="1082" y="1343" type="line"/>
      <point x="1099" y="1343"/>
      <point x="1099" y="1250.5" type="qcurve"/>
      <point x="1099" y="1158"/>
      <point x="1081" y="1158" type="qcurve"/>
      <point x="914" y="1158" type="line"/>
      <point x="568" y="1158"/>
      <point x="411.5" y="1033" type="qcurve"/>
      <point x="255" y="908"/>
      <point x="255" y="640" type="qcurve"/>
      <point x="255" y="504"/>
      <point x="320.5" y="414.5" type="qcurve"/>
      <point x="386" y="325"/>
      <point x="525" y="325" type="qcurve"/>
      <point x="786" y="325"/>
      <point x="877.5" y="222.5" type="qcurve"/>
      <point x="969" y="120"/>
      <point x="969" y="-6" type="qcurve"/>
      <point x="969" y="-169"/>
      <point x="819.5" y="-281" type="qcurve"/>
      <point x="670" y="-393"/>
      <point x="490" y="-393" type="qcurve"/>
      <point x="388" y="-393"/>
      <point x="313" y="-354.5" type="qcurve"/>
      <point x="238" y="-316"/>
      <point x="238" y="-267" type="qcurve"/>
      <point x="238" y="-244"/>
      <point x="255" y="-223.5" type="qcurve"/>
      <point x="272" y="-203"/>
      <point x="316" y="-203" type="qcurve"/>
      <point x="377" y="-203"/>
      <point x="475" y="-238" type="qcurve"/>
      <point x="573" y="-273"/>
      <point x="632" y="-273" type="qcurve"/>
      <point x="744" y="-273"/>
      <point x="810" y="-212.8" type="qcurve"/>
      <point x="876" y="-152.6"/>
      <point x="876" y="-78.5996" type="qcurve"/>
      <point x="876" y="0"/>
      <point x="813.5" y="62.5" type="qcurve"/>
      <point x="751" y="125"/>
      <point x="529" y="125" type="qcurve"/>
      <point x="338" y="125"/>
      <point x="210" y="239" type="qcurve"/>
      <point x="82" y="353"/>
    </contour>
  </outline>
</glyph>
